STARTFONT 2.1
COMMENT
COMMENT Converted from OpenType font "NimbusSans-Regular.otf" by "otf2bdf 3.0".
COMMENT
FONT -FreeType-Nimbus Sans-Medium-R-Normal--39-280-100-100-P-203-ISO10646-1
SIZE 28 100 100
FONTBOUNDINGBOX 48 52 -8 -11
STARTPROPERTIES 19
FOUNDRY "FreeType"
FAMILY_NAME "Nimbus Sans"
WEIGHT_NAME "Medium"
SLANT "R"
SETWIDTH_NAME "Normal"
ADD_STYLE_NAME ""
PIXEL_SIZE 39
POINT_SIZE 280
RESOLUTION_X 100
RESOLUTION_Y 100
SPACING "P"
AVERAGE_WIDTH 203
CHARSET_REGISTRY "ISO10646"
CHARSET_ENCODING "1"
FONT_ASCENT 28
FONT_DESCENT 10
COPYRIGHT "(URW)++,Copyright 2014 by (URW)++ Design & Development"
_OTF_FONTFILE "NimbusSans-Regular.otf"
_OTF_PSNAME "NimbusSans-Regular"
ENDPROPERTIES
CHARS 854
STARTCHAR 0020
ENCODING 32
SWIDTH 282 0
DWIDTH 11 0
BBX 0 0 0 0
BITMAP
ENDCHAR
STARTCHAR 0021
ENCODING 33
SWIDTH 282 0
DWIDTH 11 0
BBX 3 28 5 0
BITMAP
E0
E0
E0
E0
E0
E0
E0
E0
E0
E0
E0
E0
E0
E0
E0
E0
E0
E0
E0
C0
40
40
00
00
E0
E0
E0
E0
ENDCHAR
STARTCHAR 0022
ENCODING 34
SWIDTH 360 0
DWIDTH 14 0
BBX 10 10 2 18
BITMAP
F3C0
F3C0
F3C0
F3C0
F3C0
E3C0
E1C0
6180
6180
6180
ENDCHAR
STARTCHAR 0023
ENCODING 35
SWIDTH 565 0
DWIDTH 22 0
BBX 20 28 1 0
BITMAP
01C1C0
01C1C0
01C380
018380
038380
038380
038380
038380
7FFFF0
7FFFF0
7FFFF0
070700
070700
070E00
0E0E00
0E0E00
0E0E00
FFFFE0
FFFFE0
FFFFE0
1C1C00
1C1C00
1C1C00
1C1C00
1C3800
383800
383800
383800
ENDCHAR
STARTCHAR 0024
ENCODING 36
SWIDTH 565 0
DWIDTH 22 0
BBX 18 35 2 -5
BITMAP
00C000
00C000
03F000
0FFC00
3FFF00
7CCF00
70C780
F0C380
E0C3C0
E0C3C0
E0C000
F0C000
F0C000
7CC000
3FC000
1FF800
0FFE00
01FF80
00CF80
00C3C0
00C1C0
00C1C0
E0C1C0
E0C1C0
E0C1C0
E0C1C0
F0C3C0
78C780
3FFF00
1FFE00
07F000
00C000
00C000
00C000
00C000
ENDCHAR
STARTCHAR 0025
ENCODING 37
SWIDTH 900 0
DWIDTH 35 0
BBX 32 29 1 0
BITMAP
00000180
07000380
1FE00300
3FF00700
78700E00
70380C00
E0381C00
E0181800
E0183800
E0183000
70387000
78786000
3FF0E000
1FE0C000
0F81C000
00018000
000381F0
000703FC
000707FE
000E0E0F
000C0C07
001C1C03
00181C03
00381C03
00301C07
00700E0F
006007FE
00E003FC
00C001F0
ENDCHAR
STARTCHAR 0026
ENCODING 38
SWIDTH 668 0
DWIDTH 26 0
BBX 22 28 2 0
BITMAP
01F800
07FC00
0FFE00
0E0F00
1E0700
1C0700
1C0700
1E0700
0E0F00
0F1E00
07BC00
03F800
03E000
0FE000
1EF040
3C7870
783C70
701E70
F00FF0
E00FE0
E007E0
F003C0
F003C0
780FE0
7C1FF0
3FFE78
1FF83C
07E03C
ENDCHAR
STARTCHAR 0027
ENCODING 39
SWIDTH 180 0
DWIDTH 7 0
BBX 4 10 2 18
BITMAP
F0
F0
F0
F0
F0
E0
E0
E0
60
60
ENDCHAR
STARTCHAR 0028
ENCODING 40
SWIDTH 334 0
DWIDTH 13 0
BBX 8 37 3 -9
BITMAP
03
06
06
0C
1C
1C
38
38
30
70
70
70
70
E0
E0
E0
E0
E0
E0
E0
E0
E0
E0
E0
70
70
70
70
38
38
18
1C
0C
0E
06
07
03
ENDCHAR
STARTCHAR 0029
ENCODING 41
SWIDTH 334 0
DWIDTH 13 0
BBX 8 37 2 -9
BITMAP
C0
E0
60
70
30
38
18
1C
1C
0E
0E
0E
0E
0F
07
07
07
07
07
07
07
07
07
0E
0E
0E
0E
1C
1C
1C
18
38
30
70
60
C0
C0
ENDCHAR
STARTCHAR 002A
ENCODING 42
SWIDTH 385 0
DWIDTH 15 0
BBX 11 11 2 17
BITMAP
0E00
0E00
0E00
CE60
FFE0
7FC0
0E00
1F00
3B80
71C0
2180
ENDCHAR
STARTCHAR 002B
ENCODING 43
SWIDTH 591 0
DWIDTH 23 0
BBX 19 19 2 0
BITMAP
00E000
00E000
00E000
00E000
00E000
00E000
00E000
00E000
FFFFE0
FFFFE0
FFFFE0
00E000
00E000
00E000
00E000
00E000
00E000
00E000
00E000
ENDCHAR
STARTCHAR 002C
ENCODING 44
SWIDTH 282 0
DWIDTH 11 0
BBX 4 10 3 -6
BITMAP
F0
F0
F0
F0
10
10
10
30
E0
C0
ENDCHAR
STARTCHAR 002D
ENCODING 45
SWIDTH 334 0
DWIDTH 13 0
BBX 9 3 2 9
BITMAP
FF80
FF80
FF80
ENDCHAR
STARTCHAR 002E
ENCODING 46
SWIDTH 282 0
DWIDTH 11 0
BBX 4 4 3 0
BITMAP
F0
F0
F0
F0
ENDCHAR
STARTCHAR 002F
ENCODING 47
SWIDTH 282 0
DWIDTH 11 0
BBX 11 28 0 0
BITMAP
0060
00E0
00C0
00C0
01C0
0180
0180
0380
0300
0300
0700
0600
0600
0E00
0C00
0C00
1C00
1800
1800
3800
3000
3000
7000
6000
6000
6000
C000
C000
ENDCHAR
STARTCHAR 0030
ENCODING 48
SWIDTH 565 0
DWIDTH 22 0
BBX 18 28 2 0
BITMAP
03F000
0FFC00
1FFE00
3E1E00
380F00
780700
700780
F00380
F00380
F00380
E003C0
E003C0
E003C0
E003C0
E003C0
E003C0
E003C0
E003C0
F00380
F00380
F00380
700780
780700
780F00
3C1E00
1FFE00
0FF800
03F000
ENDCHAR
STARTCHAR 0031
ENCODING 49
SWIDTH 565 0
DWIDTH 22 0
BBX 9 28 4 0
BITMAP
0180
0180
0380
0380
0F80
FF80
FF80
FF80
0380
0380
0380
0380
0380
0380
0380
0380
0380
0380
0380
0380
0380
0380
0380
0380
0380
0380
0380
0380
ENDCHAR
STARTCHAR 0032
ENCODING 50
SWIDTH 565 0
DWIDTH 22 0
BBX 19 28 1 0
BITMAP
01F800
07FE00
1FFF80
1F0F80
3C03C0
3801C0
7801E0
7801E0
7001E0
7001E0
0001E0
0003C0
0003C0
000F80
001F00
007E00
01F800
03E000
0FC000
1F0000
3E0000
3C0000
780000
700000
700000
7FFFE0
FFFFE0
FFFFE0
ENDCHAR
STARTCHAR 0033
ENCODING 51
SWIDTH 565 0
DWIDTH 22 0
BBX 19 28 1 0
BITMAP
03F800
0FFE00
1FFF00
3E0F80
3C0780
7803C0
7003C0
7003C0
7003C0
0003C0
000780
001F00
00FE00
00FE00
00FF80
0007C0
0003C0
0001E0
0001E0
F001E0
F001E0
7001C0
7803C0
7803C0
3E0F80
1FFF00
0FFE00
03F800
ENDCHAR
STARTCHAR 0034
ENCODING 52
SWIDTH 565 0
DWIDTH 22 0
BBX 19 28 1 0
BITMAP
000E00
001E00
001E00
003E00
007E00
007E00
00EE00
01CE00
03CE00
038E00
070E00
0F0E00
0E0E00
1C0E00
3C0E00
780E00
700E00
E00E00
FFFFE0
FFFFE0
FFFFE0
000E00
000E00
000E00
000E00
000E00
000E00
000E00
ENDCHAR
STARTCHAR 0035
ENCODING 53
SWIDTH 565 0
DWIDTH 22 0
BBX 19 28 1 0
BITMAP
1FFFC0
1FFFC0
1FFFC0
1C0000
1C0000
3C0000
3C0000
380000
380000
39F800
3FFE00
3FFF00
7E0F80
7803C0
7003C0
0001E0
0001E0
0001E0
0001E0
0001E0
F001E0
7001C0
7803C0
7803C0
3E0F80
1FFF00
0FFE00
03F800
ENDCHAR
STARTCHAR 0036
ENCODING 54
SWIDTH 565 0
DWIDTH 22 0
BBX 18 28 2 0
BITMAP
01F800
07FC00
1FFE00
3E1F00
3C0780
780780
700380
700000
F00000
E00000
E1F000
E7FE00
EFFF00
FE1F00
F80780
F00380
F003C0
F003C0
E003C0
E003C0
F003C0
7003C0
700380
780780
3E1F00
1FFE00
0FFC00
03F000
ENDCHAR
STARTCHAR 0037
ENCODING 55
SWIDTH 565 0
DWIDTH 22 0
BBX 18 28 2 0
BITMAP
FFFFC0
FFFFC0
FFFFC0
0001C0
000380
000700
000700
000E00
001C00
001C00
003800
003800
007000
007000
00E000
00E000
01C000
01C000
03C000
038000
038000
078000
070000
070000
0F0000
0F0000
0E0000
1E0000
ENDCHAR
STARTCHAR 0038
ENCODING 56
SWIDTH 565 0
DWIDTH 22 0
BBX 19 28 1 0
BITMAP
01F800
0FFE00
1FFF00
1E0F80
3C07C0
3803C0
7803C0
7803C0
3803C0
3C0380
1E0780
0FFF00
07FC00
1FFF00
3E0F80
3C03C0
7801C0
7001E0
7001E0
F001E0
F001E0
7001E0
7801C0
7C03C0
3E0F80
1FFF00
0FFE00
03F800
ENDCHAR
STARTCHAR 0039
ENCODING 57
SWIDTH 565 0
DWIDTH 22 0
BBX 19 28 1 0
BITMAP
01F800
0FFE00
1FFF00
3E0F00
3C0780
7803C0
7001C0
7001C0
7001C0
F001E0
7001E0
7001E0
7803E0
7C07E0
3E0FE0
1FFFE0
0FFDE0
03F1E0
0001C0
0001C0
0001C0
7803C0
780380
3C0780
3E1F00
1FFE00
0FFC00
03F000
ENDCHAR
STARTCHAR 003A
ENCODING 58
SWIDTH 282 0
DWIDTH 11 0
BBX 4 20 4 0
BITMAP
F0
F0
F0
F0
00
00
00
00
00
00
00
00
00
00
00
00
F0
F0
F0
F0
ENDCHAR
STARTCHAR 003B
ENCODING 59
SWIDTH 282 0
DWIDTH 11 0
BBX 4 26 4 -6
BITMAP
F0
F0
F0
F0
00
00
00
00
00
00
00
00
00
00
00
00
F0
F0
F0
F0
10
10
10
30
E0
C0
ENDCHAR
STARTCHAR 003C
ENCODING 60
SWIDTH 591 0
DWIDTH 23 0
BBX 19 19 2 0
BITMAP
000020
0000E0
0007E0
001FC0
007F00
03F800
0FE000
3F0000
FC0000
F00000
FC0000
7F0000
1FE000
03F800
00FE00
003FC0
0007E0
0001E0
000020
ENDCHAR
STARTCHAR 003D
ENCODING 61
SWIDTH 591 0
DWIDTH 23 0
BBX 19 10 2 4
BITMAP
FFFFE0
FFFFE0
FFFFE0
000000
000000
000000
000000
FFFFE0
FFFFE0
FFFFE0
ENDCHAR
STARTCHAR 003E
ENCODING 62
SWIDTH 591 0
DWIDTH 23 0
BBX 19 19 2 0
BITMAP
800000
E00000
F80000
FF0000
1FC000
07F000
00FE00
003F80
000FE0
0001E0
0007E0
001FC0
00FE00
03F800
1FE000
7F0000
FC0000
E00000
800000
ENDCHAR
STARTCHAR 003F
ENCODING 63
SWIDTH 565 0
DWIDTH 22 0
BBX 17 28 3 0
BITMAP
07F000
1FFC00
3FFE00
7C1F00
700F00
F00780
F00780
E00780
E00780
000700
000F00
001E00
003E00
007800
00F000
01E000
01C000
03C000
03C000
03C000
000000
000000
000000
000000
03C000
03C000
03C000
03C000
ENDCHAR
STARTCHAR 0040
ENCODING 64
SWIDTH 1002 0
DWIDTH 39 0
BBX 36 34 1 -6
BITMAP
0001FF0000
000FFFE000
003FFFF800
00FE01FC00
01F0007E00
03E0001F00
0780000780
0F000003C0
0E000003E0
1C01FC71E0
3C03FEF0E0
380F87E0F0
780E03E0F0
701E01E070
703C01C070
703801C070
F03803C0F0
F0780380F0
F0780380E0
F0780781E0
F0780701C0
703C0F03C0
783E1F0780
781FF7FF00
3C0FE3FC00
3C0001F000
1E00000000
0F00000000
07C0000000
03F0000000
01FC01C000
00FFFFC000
003FFFC000
0003FE0000
ENDCHAR
STARTCHAR 0041
ENCODING 65
SWIDTH 668 0
DWIDTH 26 0
BBX 24 28 1 0
BITMAP
003E00
007E00
007E00
00FF00
00FF00
00F700
01E780
01E780
01C380
03C3C0
03C3C0
0381E0
0781E0
0781E0
0700F0
0F00F0
0F00F0
1FFFF8
1FFFF8
1FFFF8
3C003C
3C003C
3C003C
78001E
78001E
70001F
F0000F
F0000F
ENDCHAR
STARTCHAR 0042
ENCODING 66
SWIDTH 668 0
DWIDTH 26 0
BBX 21 28 3 0
BITMAP
FFFE00
FFFF80
FFFFC0
F007E0
F001F0
F000F0
F000F0
F000F0
F000F0
F000F0
F001E0
F003C0
FFFF80
FFFF80
FFFFE0
F003F0
F000F0
F00078
F00078
F00038
F00038
F00078
F00078
F000F0
F001F0
FFFFE0
FFFFC0
FFFF00
ENDCHAR
STARTCHAR 0043
ENCODING 67
SWIDTH 720 0
DWIDTH 28 0
BBX 24 28 2 0
BITMAP
007F80
03FFE0
07FFF8
0FC3F8
1F007C
3C001E
3C001E
78000E
70000F
700000
F00000
F00000
F00000
F00000
F00000
F00000
F00000
F00007
F0000F
78000F
78000F
3C001E
3E001E
1F007C
0FC1FC
07FFF8
03FFE0
007F80
ENDCHAR
STARTCHAR 0044
ENCODING 68
SWIDTH 720 0
DWIDTH 28 0
BBX 23 28 3 0
BITMAP
FFFE00
FFFF80
FFFFE0
F007F0
F000F0
F00078
F0003C
F0003C
F0001C
F0001E
F0001E
F0001E
F0001E
F0001E
F0001E
F0001E
F0001E
F0001E
F0001E
F0001C
F0003C
F0003C
F00078
F000F0
F003F0
FFFFE0
FFFF80
FFFE00
ENDCHAR
STARTCHAR 0045
ENCODING 69
SWIDTH 668 0
DWIDTH 26 0
BBX 20 28 4 0
BITMAP
FFFFE0
FFFFE0
FFFFE0
E00000
E00000
E00000
E00000
E00000
E00000
E00000
E00000
E00000
FFFFE0
FFFFE0
FFFFE0
E00000
E00000
E00000
E00000
E00000
E00000
E00000
E00000
E00000
E00000
FFFFF0
FFFFF0
FFFFF0
ENDCHAR
STARTCHAR 0046
ENCODING 70
SWIDTH 617 0
DWIDTH 24 0
BBX 19 28 4 0
BITMAP
FFFFE0
FFFFE0
FFFFE0
E00000
E00000
E00000
E00000
E00000
E00000
E00000
E00000
E00000
FFFF80
FFFF80
FFFF80
E00000
E00000
E00000
E00000
E00000
E00000
E00000
E00000
E00000
E00000
E00000
E00000
E00000
ENDCHAR
STARTCHAR 0047
ENCODING 71
SWIDTH 771 0
DWIDTH 30 0
BBX 26 28 2 0
BITMAP
007F8000
01FFF000
07FFFC00
0FE0FE00
1F003F00
3E000F00
3C000780
78000780
70000780
F0000000
F0000000
F0000000
E0000000
E003FFC0
E003FFC0
E003FFC0
F00003C0
F00003C0
F00003C0
780003C0
780003C0
3C0007C0
3E000FC0
1F001FC0
0FE0F9C0
07FFF1C0
03FFE1C0
007F0000
ENDCHAR
STARTCHAR 0048
ENCODING 72
SWIDTH 720 0
DWIDTH 28 0
BBX 22 28 3 0
BITMAP
F0003C
F0003C
F0003C
F0003C
F0003C
F0003C
F0003C
F0003C
F0003C
F0003C
F0003C
F0003C
FFFFFC
FFFFFC
FFFFFC
F0003C
F0003C
F0003C
F0003C
F0003C
F0003C
F0003C
F0003C
F0003C
F0003C
F0003C
F0003C
F0003C
ENDCHAR
STARTCHAR 0049
ENCODING 73
SWIDTH 282 0
DWIDTH 11 0
BBX 4 28 4 0
BITMAP
F0
F0
F0
F0
F0
F0
F0
F0
F0
F0
F0
F0
F0
F0
F0
F0
F0
F0
F0
F0
F0
F0
F0
F0
F0
F0
F0
F0
ENDCHAR
STARTCHAR 004A
ENCODING 74
SWIDTH 488 0
DWIDTH 19 0
BBX 16 28 1 0
BITMAP
000F
000F
000F
000F
000F
000F
000F
000F
000F
000F
000F
000F
000F
000F
000F
000F
000F
000F
E00F
E00F
E00F
F00F
F00E
F01E
7C3E
7FFC
3FF8
0FE0
ENDCHAR
STARTCHAR 004B
ENCODING 75
SWIDTH 668 0
DWIDTH 26 0
BBX 22 28 3 0
BITMAP
F0007C
F000F8
F001F0
F003E0
F007C0
F00F80
F01F00
F03E00
F07C00
F0F800
F1F000
F3E000
F7F000
FFF000
FE7800
FC3C00
F83E00
F01E00
F00F00
F00F80
F00780
F003C0
F003E0
F001E0
F000F0
F00078
F0007C
F0003C
ENDCHAR
STARTCHAR 004C
ENCODING 76
SWIDTH 565 0
DWIDTH 22 0
BBX 18 28 3 0
BITMAP
F00000
F00000
F00000
F00000
F00000
F00000
F00000
F00000
F00000
F00000
F00000
F00000
F00000
F00000
F00000
F00000
F00000
F00000
F00000
F00000
F00000
F00000
F00000
F00000
F00000
FFFFC0
FFFFC0
FFFFC0
ENDCHAR
STARTCHAR 004D
ENCODING 77
SWIDTH 822 0
DWIDTH 32 0
BBX 27 28 3 0
BITMAP
F80007E0
F80007E0
FC0007E0
FC000FE0
FC000FE0
EE000FE0
EE001FE0
EF001DE0
E7001DE0
E70039E0
E78039E0
E38039E0
E38071E0
E3C071E0
E1C071E0
E1C0E1E0
E1E0E1E0
E0E0E1E0
E0E1C1E0
E0F1C1E0
E071C1E0
E07381E0
E07B81E0
E03B81E0
E03F01E0
E01F01E0
E01F01E0
E01E01E0
ENDCHAR
STARTCHAR 004E
ENCODING 78
SWIDTH 720 0
DWIDTH 28 0
BBX 22 28 3 0
BITMAP
F0001C
F8001C
FC001C
FC001C
FE001C
FE001C
EF001C
E7801C
E7801C
E3C01C
E1E01C
E1E01C
E0F01C
E0781C
E0781C
E03C1C
E01E1C
E01E1C
E00F1C
E0079C
E0079C
E003DC
E003DC
E001FC
E000FC
E000FC
E0007C
E0003C
ENDCHAR
STARTCHAR 004F
ENCODING 79
SWIDTH 771 0
DWIDTH 30 0
BBX 28 28 1 0
BITMAP
003FC000
00FFF800
03FFFE00
07F07F00
0F801F80
1F000780
3E0003C0
3C0003E0
780001E0
780001E0
780000F0
700000F0
700000F0
F00000F0
F00000F0
700000F0
700000F0
780000F0
780000E0
780001E0
3C0001C0
3E0003C0
1F000780
0F801F80
07F07F00
03FFFC00
01FFF800
003FC000
ENDCHAR
STARTCHAR 0050
ENCODING 80
SWIDTH 668 0
DWIDTH 26 0
BBX 20 28 4 0
BITMAP
FFFE00
FFFF80
FFFFC0
E007E0
E001E0
E000F0
E000F0
E000F0
E000F0
E000F0
E000F0
E001E0
E007E0
FFFFC0
FFFF80
FFFE00
E00000
E00000
E00000
E00000
E00000
E00000
E00000
E00000
E00000
E00000
E00000
E00000
ENDCHAR
STARTCHAR 0051
ENCODING 81
SWIDTH 771 0
DWIDTH 30 0
BBX 28 29 1 -1
BITMAP
003FC000
00FFF800
03FFFE00
07F07F00
0F801F80
1F000780
3E0003C0
3C0003E0
780001E0
780001E0
780000F0
700000F0
700000F0
F00000F0
F00000F0
700000F0
700000F0
780000F0
780000E0
780001E0
3C0061C0
3E00F3C0
1F007F80
0F803F00
07F07F00
03FFFF80
01FFFBE0
003FC1E0
00000040
ENDCHAR
STARTCHAR 0052
ENCODING 82
SWIDTH 720 0
DWIDTH 28 0
BBX 22 28 4 0
BITMAP
FFFF00
FFFFE0
FFFFF0
E001F0
E000F8
E00078
E00078
E00038
E00038
E00078
E00078
E000F0
E001E0
FFFFC0
FFFF80
FFFFE0
E001F0
E000F0
E00078
E00078
E00078
E00078
E00078
E00078
E00078
E00078
E0003C
E0003C
ENDCHAR
STARTCHAR 0053
ENCODING 83
SWIDTH 668 0
DWIDTH 26 0
BBX 22 28 2 0
BITMAP
01FE00
0FFF80
1FFFE0
3F03F0
3C00F0
780078
700078
700038
780000
780000
7E0000
3FC000
1FFC00
0FFF80
00FFE0
000FF8
0001F8
00007C
00003C
E0003C
F0001C
F0003C
78003C
7C0078
3F01F0
1FFFE0
0FFFC0
01FE00
ENDCHAR
STARTCHAR 0054
ENCODING 84
SWIDTH 617 0
DWIDTH 24 0
BBX 22 28 1 0
BITMAP
FFFFFC
FFFFFC
FFFFFC
007800
007800
007800
007800
007800
007800
007800
007800
007800
007800
007800
007800
007800
007800
007800
007800
007800
007800
007800
007800
007800
007800
007800
007800
007800
ENDCHAR
STARTCHAR 0055
ENCODING 85
SWIDTH 720 0
DWIDTH 28 0
BBX 22 28 3 0
BITMAP
F0003C
F0003C
F0003C
F0003C
F0003C
F0003C
F0003C
F0003C
F0003C
F0003C
F0003C
F0003C
F0003C
F0003C
F0003C
F0003C
F0003C
F0003C
F0003C
F0003C
F0003C
70003C
780078
7C00F8
3F83F0
1FFFE0
07FFC0
01FE00
ENDCHAR
STARTCHAR 0056
ENCODING 86
SWIDTH 668 0
DWIDTH 26 0
BBX 24 28 1 0
BITMAP
F0000F
78000F
78001E
78001E
3C001C
3C003C
1C003C
1E0038
1E0078
0E0078
0F0070
0F00F0
0700F0
0780E0
0781E0
03C1E0
03C1C0
01C3C0
01E3C0
01E380
00E780
00F780
00F700
007F00
007E00
007E00
003E00
003C00
ENDCHAR
STARTCHAR 0057
ENCODING 87
SWIDTH 951 0
DWIDTH 37 0
BBX 35 28 1 0
BITMAP
F001F001E0
F001F001E0
F001F001C0
7801F003C0
7803F803C0
7803B803C0
3803B80380
3C07BC0780
3C073C0780
3C071C0780
1C071C0700
1E0F1E0F00
1E0E0E0F00
1E0E0E0F00
0E1E0F0E00
0F1E0F0E00
0F1C071E00
0F1C071E00
073C079C00
0738039C00
07B803BC00
07B803FC00
03F803F800
03F001F800
03F001F800
03F001F800
01F000F000
01E000F000
ENDCHAR
STARTCHAR 0058
ENCODING 88
SWIDTH 668 0
DWIDTH 26 0
BBX 24 28 1 0
BITMAP
78001E
7C003E
3E003C
1E0078
0F00F8
0F80F0
0781E0
03C3E0
03E3C0
01E780
00FF00
00FF00
007E00
003C00
007E00
007F00
00FF00
01E780
03E7C0
03C3C0
0781E0
0F81F0
0F00F0
1E0078
3E007C
3C003E
78001E
F8001F
ENDCHAR
STARTCHAR 0059
ENCODING 89
SWIDTH 668 0
DWIDTH 26 0
BBX 24 28 1 0
BITMAP
F0000F
F8000F
7C001E
3C003E
3E003C
1E0078
0F0078
0F80F0
0781E0
03C1E0
03C3C0
01E3C0
00F780
00FF00
007F00
007E00
003C00
003C00
003C00
003C00
003C00
003C00
003C00
003C00
003C00
003C00
003C00
003C00
ENDCHAR
STARTCHAR 005A
ENCODING 90
SWIDTH 617 0
DWIDTH 24 0
BBX 22 28 1 0
BITMAP
7FFFFC
7FFFFC
7FFFFC
000078
0000F8
0001F0
0001E0
0003C0
000780
000F80
001F00
001E00
003C00
007C00
00F800
01F000
01E000
03C000
07C000
0F8000
1F0000
1E0000
3C0000
7C0000
F80000
FFFFFC
FFFFFC
FFFFFC
ENDCHAR
STARTCHAR 005B
ENCODING 91
SWIDTH 282 0
DWIDTH 11 0
BBX 8 36 2 -8
BITMAP
FF
FF
FF
F0
F0
F0
F0
F0
F0
F0
F0
F0
F0
F0
F0
F0
F0
F0
F0
F0
F0
F0
F0
F0
F0
F0
F0
F0
F0
F0
F0
F0
F0
FF
FF
FF
ENDCHAR
STARTCHAR 005C
ENCODING 92
SWIDTH 282 0
DWIDTH 11 0
BBX 11 28 0 0
BITMAP
C000
C000
6000
6000
6000
7000
3000
3000
3800
1800
1800
1C00
0C00
0C00
0E00
0600
0600
0700
0300
0300
0380
0180
0180
01C0
00C0
00C0
00E0
0060
ENDCHAR
STARTCHAR 005D
ENCODING 93
SWIDTH 282 0
DWIDTH 11 0
BBX 7 36 1 -8
BITMAP
FE
FE
FE
0E
0E
0E
0E
0E
0E
0E
0E
0E
0E
0E
0E
0E
0E
0E
0E
0E
0E
0E
0E
0E
0E
0E
0E
0E
0E
0E
0E
0E
0E
FE
FE
FE
ENDCHAR
STARTCHAR 005E
ENCODING 94
SWIDTH 462 0
DWIDTH 18 0
BBX 14 15 2 13
BITMAP
0380
0780
0780
0FC0
0FC0
0CE0
1CE0
1C60
3870
3830
3038
7038
6018
E01C
E00C
ENDCHAR
STARTCHAR 005F
ENCODING 95
SWIDTH 565 0
DWIDTH 22 0
BBX 23 2 -1 -7
BITMAP
FFFFFE
FFFFFE
ENDCHAR
STARTCHAR 0060
ENCODING 96
SWIDTH 334 0
DWIDTH 13 0
BBX 8 6 1 22
BITMAP
F8
78
3C
1E
0E
07
ENDCHAR
STARTCHAR 0061
ENCODING 97
SWIDTH 565 0
DWIDTH 22 0
BBX 19 20 2 0
BITMAP
07F800
1FFE00
3FFF00
7C0F00
700700
700700
000700
000700
007F00
1FFF00
7FE700
F80700
F00700
E00700
E00700
E00F00
F03F80
7FFFE0
7FE3E0
1F83E0
ENDCHAR
STARTCHAR 0062
ENCODING 98
SWIDTH 565 0
DWIDTH 22 0
BBX 18 28 2 0
BITMAP
E00000
E00000
E00000
E00000
E00000
E00000
E00000
E00000
E1F800
E7FE00
EFFF00
FE1F80
F80780
F003C0
F003C0
F001C0
E001C0
E001C0
E001C0
E001C0
F001C0
F003C0
F80380
F80780
FE1F00
FFFF00
EFFC00
E3F000
ENDCHAR
STARTCHAR 0063
ENCODING 99
SWIDTH 488 0
DWIDTH 19 0
BBX 17 20 1 0
BITMAP
03F000
0FFC00
1FFF00
3E0F00
380780
780380
700380
700000
F00000
F00000
F00000
F00000
F00000
700380
780380
780780
3E0F00
1FFF00
0FFC00
03F000
ENDCHAR
STARTCHAR 0064
ENCODING 100
SWIDTH 565 0
DWIDTH 22 0
BBX 18 28 1 0
BITMAP
0001C0
0001C0
0001C0
0001C0
0001C0
0001C0
0001C0
0001C0
03F1C0
0FFDC0
1FFFC0
3E1FC0
7807C0
7803C0
F003C0
F001C0
F001C0
E001C0
E001C0
F001C0
F001C0
F001C0
7803C0
7C07C0
3E0FC0
1FFFC0
0FF9C0
03F1C0
ENDCHAR
STARTCHAR 0065
ENCODING 101
SWIDTH 565 0
DWIDTH 22 0
BBX 18 20 2 0
BITMAP
03F000
0FFC00
3FFE00
3C1F00
780780
F00380
E003C0
E003C0
FFFFC0
FFFFC0
FFFFC0
E00000
E00000
E00000
F00380
780780
7C0F00
3FFE00
1FFC00
07F000
ENDCHAR
STARTCHAR 0066
ENCODING 102
SWIDTH 282 0
DWIDTH 11 0
BBX 9 28 1 0
BITMAP
0780
1F80
1F80
1C00
3C00
3C00
3C00
3C00
FF80
FF80
FF80
3C00
3C00
3C00
3C00
3C00
3C00
3C00
3C00
3C00
3C00
3C00
3C00
3C00
3C00
3C00
3C00
3C00
ENDCHAR
STARTCHAR 0067
ENCODING 103
SWIDTH 565 0
DWIDTH 22 0
BBX 18 28 1 -8
BITMAP
03F1C0
0FF9C0
1FFDC0
3E1FC0
3807C0
7807C0
7003C0
7003C0
7003C0
F003C0
F003C0
F003C0
7003C0
7003C0
7807C0
3807C0
3E1FC0
1FFFC0
0FFBC0
03E3C0
000380
700380
780380
780780
3C0F00
1FFE00
0FFC00
01E000
ENDCHAR
STARTCHAR 0068
ENCODING 104
SWIDTH 565 0
DWIDTH 22 0
BBX 16 28 3 0
BITMAP
E000
E000
E000
E000
E000
E000
E000
E000
E1F8
E7FC
EFFE
FC1F
F80F
F007
E007
E007
E007
E007
E007
E007
E007
E007
E007
E007
E007
E007
E007
E007
ENDCHAR
STARTCHAR 0069
ENCODING 105
SWIDTH 231 0
DWIDTH 9 0
BBX 3 28 3 0
BITMAP
E0
E0
E0
E0
00
00
00
00
E0
E0
E0
E0
E0
E0
E0
E0
E0
E0
E0
E0
E0
E0
E0
E0
E0
E0
E0
E0
ENDCHAR
STARTCHAR 006A
ENCODING 106
SWIDTH 231 0
DWIDTH 9 0
BBX 7 37 -1 -9
BITMAP
0E
0E
0E
0E
00
00
00
00
0E
0E
0E
0E
0E
0E
0E
0E
0E
0E
0E
0E
0E
0E
0E
0E
0E
0E
0E
0E
0E
0E
0E
0E
0E
1E
FE
FC
F0
ENDCHAR
STARTCHAR 006B
ENCODING 107
SWIDTH 488 0
DWIDTH 19 0
BBX 17 28 2 0
BITMAP
E00000
E00000
E00000
E00000
E00000
E00000
E00000
E00000
E00F00
E01E00
E03C00
E07800
E0F000
E1E000
E7C000
EFC000
FFC000
FDE000
F9E000
F0F000
E07800
E07800
E03C00
E01E00
E01E00
E00F00
E00780
E00780
ENDCHAR
STARTCHAR 006C
ENCODING 108
SWIDTH 231 0
DWIDTH 9 0
BBX 3 28 3 0
BITMAP
E0
E0
E0
E0
E0
E0
E0
E0
E0
E0
E0
E0
E0
E0
E0
E0
E0
E0
E0
E0
E0
E0
E0
E0
E0
E0
E0
E0
ENDCHAR
STARTCHAR 006D
ENCODING 109
SWIDTH 822 0
DWIDTH 32 0
BBX 27 20 3 1
BITMAP
E7F03F00
EFF8FF80
FFFDFFC0
F83F83C0
F01F01E0
E01E01E0
E00E01E0
E00E01E0
E00E01E0
E00E01E0
E00E01E0
E00E01E0
E00E01E0
E00E01E0
E00E01E0
E00E01E0
E00E01E0
E00E01E0
E00E01E0
E00E01E0
ENDCHAR
STARTCHAR 006E
ENCODING 110
SWIDTH 565 0
DWIDTH 22 0
BBX 16 20 3 1
BITMAP
E3F0
EFFC
FFFE
FC1F
F80F
F007
E007
E007
E007
E007
E007
E007
E007
E007
E007
E007
E007
E007
E007
E007
ENDCHAR
STARTCHAR 006F
ENCODING 111
SWIDTH 565 0
DWIDTH 22 0
BBX 19 20 1 0
BITMAP
03F800
0FFE00
1FFF00
3E0F80
3C03C0
7803C0
7001C0
7001E0
7001E0
F001E0
F001E0
F001E0
7001E0
7001C0
7803C0
3C03C0
3E0F80
1FFF00
0FFE00
03F800
ENDCHAR
STARTCHAR 0070
ENCODING 112
SWIDTH 565 0
DWIDTH 22 0
BBX 18 28 2 -7
BITMAP
E3F800
EFFE00
EFFF00
FE1F80
F80780
F803C0
F003C0
F001C0
E001C0
E001C0
E001C0
F001C0
F001C0
F003C0
F803C0
F80780
FE1F80
EFFF00
E7FE00
E1F800
E00000
E00000
E00000
E00000
E00000
E00000
E00000
E00000
ENDCHAR
STARTCHAR 0071
ENCODING 113
SWIDTH 565 0
DWIDTH 22 0
BBX 18 29 1 -9
BITMAP
03F1C0
0FFDC0
1FFFC0
3E0FC0
7807C0
7803C0
7003C0
F001C0
F001C0
E001C0
E001C0
F001C0
F001C0
F003C0
7803C0
7C07C0
3E0FC0
1FFDC0
0FF9C0
03F1C0
0001C0
0001C0
0001C0
0001C0
0001C0
0001C0
0001C0
0001C0
000040
ENDCHAR
STARTCHAR 0072
ENCODING 114
SWIDTH 334 0
DWIDTH 13 0
BBX 9 20 3 0
BITMAP
E380
E780
EF80
FC00
F000
F000
E000
E000
E000
E000
E000
E000
E000
E000
E000
E000
E000
E000
E000
E000
ENDCHAR
STARTCHAR 0073
ENCODING 115
SWIDTH 488 0
DWIDTH 19 0
BBX 17 20 1 0
BITMAP
07F000
1FFC00
3FFE00
7C1F00
780F00
700700
700000
7C0000
3F8000
1FF800
07FE00
007F00
000780
000780
F00780
700780
7C0F00
3FFE00
1FFC00
07F000
ENDCHAR
STARTCHAR 0074
ENCODING 116
SWIDTH 282 0
DWIDTH 11 0
BBX 9 26 1 0
BITMAP
3C00
3C00
3C00
3C00
3C00
3C00
FF80
FF80
FF80
3C00
3C00
3C00
3C00
3C00
3C00
3C00
3C00
3C00
3C00
3C00
3C00
3C00
3C00
3F80
1F80
0F80
ENDCHAR
STARTCHAR 0075
ENCODING 117
SWIDTH 565 0
DWIDTH 22 0
BBX 16 20 3 -1
BITMAP
E007
E007
E007
E007
E007
E007
E007
E007
E007
E007
E007
E007
E00F
E00F
E00F
E01F
F03F
FFFF
7FF7
1FE7
ENDCHAR
STARTCHAR 0076
ENCODING 118
SWIDTH 488 0
DWIDTH 19 0
BBX 18 20 1 0
BITMAP
E003C0
F00380
F00780
700780
780700
780F00
380E00
3C0E00
3C1E00
1C1C00
1E1C00
1E3800
0E3800
0F7800
077000
077000
07E000
03E000
03E000
03C000
ENDCHAR
STARTCHAR 0077
ENCODING 119
SWIDTH 720 0
DWIDTH 28 0
BBX 27 20 0 0
BITMAP
F00F00E0
701F01E0
701F01E0
781F81C0
381F81C0
383B83C0
3C3BC3C0
3C39C380
1C39C380
1C71C780
1E71E700
0E70E700
0E70E700
0EE0EE00
0FE0FE00
07E07E00
07E07E00
07C07C00
03C07C00
03C03C00
ENDCHAR
STARTCHAR 0078
ENCODING 120
SWIDTH 488 0
DWIDTH 19 0
BBX 17 20 1 0
BITMAP
F00780
780700
380E00
3C1E00
1E3C00
0E3800
077800
07F000
03E000
01C000
03E000
03F000
077000
0F7800
0E3C00
1C1C00
3C1E00
780F00
700700
F00780
ENDCHAR
STARTCHAR 0079
ENCODING 121
SWIDTH 488 0
DWIDTH 19 0
BBX 17 28 1 -8
BITMAP
E00380
F00380
700780
700700
780F00
380F00
380E00
3C1E00
1C1C00
1C1C00
1E3C00
0E3800
0E3800
0F7000
077000
07F000
07E000
03E000
03E000
03C000
03C000
038000
038000
078000
070000
7F0000
7E0000
7C0000
ENDCHAR
STARTCHAR 007A
ENCODING 122
SWIDTH 488 0
DWIDTH 19 0
BBX 17 20 1 0
BITMAP
7FFF00
7FFF00
7FFF00
000F00
001E00
003C00
007800
00F000
00E000
01E000
03C000
078000
0F0000
1E0000
3C0000
3C0000
780000
FFFF80
FFFF80
FFFF80
ENDCHAR
STARTCHAR 007B
ENCODING 123
SWIDTH 334 0
DWIDTH 13 0
BBX 9 37 2 -9
BITMAP
0780
0F80
1F80
1C00
1C00
1C00
1C00
1C00
1C00
1C00
1C00
1C00
1C00
1C00
3C00
3800
7800
F000
E000
F000
7800
3800
1C00
1C00
1C00
1C00
1C00
1C00
1C00
1C00
1C00
1C00
1C00
1C00
1F80
0F80
0380
ENDCHAR
STARTCHAR 007C
ENCODING 124
SWIDTH 257 0
DWIDTH 10 0
BBX 2 37 4 -9
BITMAP
C0
C0
C0
C0
C0
C0
C0
C0
C0
C0
C0
C0
C0
C0
C0
C0
C0
C0
C0
C0
C0
C0
C0
C0
C0
C0
C0
C0
C0
C0
C0
C0
C0
C0
C0
C0
C0
ENDCHAR
STARTCHAR 007D
ENCODING 125
SWIDTH 334 0
DWIDTH 13 0
BBX 9 37 1 -9
BITMAP
F000
F800
FC00
1C00
1C00
1C00
1C00
1C00
1C00
1C00
1C00
1C00
1C00
1C00
1E00
0E00
0F00
0780
0380
0780
0E00
0E00
1C00
1C00
1C00
1C00
1C00
1C00
1C00
1C00
1C00
1C00
1C00
1C00
FC00
F800
C000
ENDCHAR
STARTCHAR 007E
ENCODING 126
SWIDTH 591 0
DWIDTH 23 0
BBX 17 7 3 10
BITMAP
3C0000
7F0180
7F8180
E3E380
C0FF00
C07E00
000800
ENDCHAR
STARTCHAR 00A0
ENCODING 160
SWIDTH 282 0
DWIDTH 11 0
BBX 0 0 0 0
BITMAP
ENDCHAR
STARTCHAR 00A1
ENCODING 161
SWIDTH 334 0
DWIDTH 13 0
BBX 3 28 5 -8
BITMAP
E0
E0
E0
E0
00
00
00
C0
C0
C0
E0
E0
E0
E0
E0
E0
E0
E0
E0
E0
E0
E0
E0
E0
E0
E0
E0
E0
ENDCHAR
STARTCHAR 00A2
ENCODING 162
SWIDTH 565 0
DWIDTH 22 0
BBX 18 29 2 -5
BITMAP
00C000
00C000
00C000
01F800
0FFE00
1FFF00
3ECF80
3CC780
78C380
70C3C0
F0C000
F0C000
E0C000
E0C000
E0C000
F0C000
F0C000
F0C3C0
70C3C0
78C380
7CC780
3ECF00
1FFF00
0FFE00
01F000
00C000
00C000
00C000
00C000
ENDCHAR
STARTCHAR 00A3
ENCODING 163
SWIDTH 565 0
DWIDTH 22 0
BBX 20 28 1 0
BITMAP
01FC00
07FF00
0FFF80
1F07C0
3C03C0
3801E0
7801E0
7801E0
7801E0
780000
3C0000
3C0000
1E0000
FFF800
FFF800
0F0000
070000
078000
070000
070000
070000
0E0000
1C0000
3BE000
7FFFE0
7FFFF0
307FE0
000F80
ENDCHAR
STARTCHAR 00A4
ENCODING 164
SWIDTH 565 0
DWIDTH 22 0
BBX 16 16 3 5
BITMAP
4004
E7CE
FFFF
7FFE
7C3C
701C
701E
F00E
F00E
700E
781C
7C3C
7FFE
FFFF
77CE
4004
ENDCHAR
STARTCHAR 00A5
ENCODING 165
SWIDTH 565 0
DWIDTH 22 0
BBX 20 28 1 0
BITMAP
E00070
E000E0
7000E0
7801C0
3801C0
3C0380
1C0780
0E0700
0E0E00
070E00
079C00
039C00
03F800
01F800
3FFFC0
3FFFC0
00F000
00F000
00F000
3FFFC0
3FFFC0
00F000
00F000
00F000
00F000
00F000
00F000
00F000
ENDCHAR
STARTCHAR 00A6
ENCODING 166
SWIDTH 257 0
DWIDTH 10 0
BBX 2 37 4 -9
BITMAP
C0
C0
C0
C0
C0
C0
C0
C0
C0
C0
C0
C0
C0
C0
C0
C0
00
00
00
00
00
C0
C0
C0
C0
C0
C0
C0
C0
C0
C0
C0
C0
C0
C0
C0
C0
ENDCHAR
STARTCHAR 00A7
ENCODING 167
SWIDTH 565 0
DWIDTH 22 0
BBX 18 36 2 -8
BITMAP
03F000
07FC00
0FFE00
1E1E00
3C0F00
3C0700
3C0700
3C0700
3E0000
1F0000
0FC000
3FE000
71F800
E0FC00
E03F00
E01F80
E00780
E003C0
F003C0
7C01C0
7E01C0
1F8380
0FC380
03EF00
01FE00
00FC00
003E00
001E00
700E00
700F00
780E00
780E00
3C3E00
1FFC00
0FF800
07E000
ENDCHAR
STARTCHAR 00A8
ENCODING 168
SWIDTH 334 0
DWIDTH 13 0
BBX 11 4 1 24
BITMAP
F3E0
F3E0
F3E0
F3E0
ENDCHAR
STARTCHAR 00A9
ENCODING 169
SWIDTH 745 0
DWIDTH 29 0
BBX 29 28 0 0
BITMAP
001FC000
00FFF800
03FDFE00
07801F00
0E000780
1C0001C0
381FC0E0
703FE0F0
70707070
E0E03830
E0C03838
C1C00038
C1C00038
C1C00018
C1C00018
C1C00038
E1C01838
E0E03838
E0E03830
70787070
703FE0E0
381FC0E0
1C0001C0
0F000780
07801F00
03F9FE00
00FFF800
003FC000
ENDCHAR
STARTCHAR 00AA
ENCODING 170
SWIDTH 360 0
DWIDTH 14 0
BBX 12 17 1 11
BITMAP
1F80
3FC0
70E0
60E0
00E0
03E0
3FE0
70E0
60E0
E0E0
61E0
7F70
3E70
0000
0000
7FE0
7FE0
ENDCHAR
STARTCHAR 00AB
ENCODING 171
SWIDTH 565 0
DWIDTH 22 0
BBX 14 13 4 4
BITMAP
0404
0C0C
1C1C
7878
F0F0
E0E0
C0C0
E0E0
F0F0
7C78
1C1C
0C0C
0404
ENDCHAR
STARTCHAR 00AC
ENCODING 172
SWIDTH 591 0
DWIDTH 23 0
BBX 19 12 2 3
BITMAP
FFFFE0
FFFFE0
FFFFE0
0000E0
0000E0
0000E0
0000E0
0000E0
0000E0
0000E0
0000E0
0000E0
ENDCHAR
STARTCHAR 00AD
ENCODING 173
SWIDTH 334 0
DWIDTH 13 0
BBX 9 3 2 9
BITMAP
FF80
FF80
FF80
ENDCHAR
STARTCHAR 00AE
ENCODING 174
SWIDTH 745 0
DWIDTH 29 0
BBX 29 28 0 0
BITMAP
001FC000
00FFF800
03F9FE00
07801F00
1E000780
1C0001C0
38FFF0E0
70FFF8F0
70E03870
E0E03838
E0E03838
C0E03838
C0E03838
C0FFF018
C0FFF018
C0E0F838
C0E03838
E0E03838
E0E03830
70E03870
70E03870
38E01CE0
1C0001C0
1E000780
07800F00
03F9FE00
00FFF800
003FC000
ENDCHAR
STARTCHAR 00AF
ENCODING 175
SWIDTH 334 0
DWIDTH 13 0
BBX 11 3 1 24
BITMAP
FFE0
FFE0
FFE0
ENDCHAR
STARTCHAR 00B0
ENCODING 176
SWIDTH 411 0
DWIDTH 16 0
BBX 12 12 2 15
BITMAP
1F00
3FC0
71E0
E0E0
C070
C070
C070
C060
E060
71E0
3FC0
1F00
ENDCHAR
STARTCHAR 00B1
ENCODING 177
SWIDTH 591 0
DWIDTH 23 0
BBX 19 25 2 0
BITMAP
00E000
00E000
00E000
00E000
00E000
00E000
00E000
00E000
FFFFE0
FFFFE0
FFFFE0
00E000
00E000
00E000
00E000
00E000
00E000
00E000
00E000
000000
000000
000000
FFFFE0
FFFFE0
FFFFE0
ENDCHAR
STARTCHAR 00B2
ENCODING 178
SWIDTH 334 0
DWIDTH 13 0
BBX 12 17 0 11
BITMAP
0F80
3FE0
38F0
7070
6030
6030
0030
0070
01E0
07C0
0F00
1C00
3800
7000
6000
7FF0
FFF0
ENDCHAR
STARTCHAR 00B3
ENCODING 179
SWIDTH 334 0
DWIDTH 13 0
BBX 12 17 0 11
BITMAP
0F80
3FC0
70E0
6070
6070
6070
00E0
07C0
07E0
00F0
0070
0030
E030
6070
70E0
3FE0
1F80
ENDCHAR
STARTCHAR 00B4
ENCODING 180
SWIDTH 334 0
DWIDTH 13 0
BBX 7 6 4 22
BITMAP
1E
3C
38
70
E0
C0
ENDCHAR
STARTCHAR 00B5
ENCODING 181
SWIDTH 565 0
DWIDTH 22 0
BBX 18 28 3 -8
BITMAP
E00F00
E00F00
E00F00
E00F00
E00F00
E00F00
E00F00
E00F00
E00F00
E00F00
E00F00
E00F00
E00F00
E00F00
E00F00
E01F00
F03F00
FFF7C0
FFE7C0
EF83C0
E00000
E00000
E00000
E00000
E00000
E00000
E00000
E00000
ENDCHAR
STARTCHAR 00B6
ENCODING 182
SWIDTH 540 0
DWIDTH 21 0
BBX 18 35 2 -7
BITMAP
03FFC0
0FFFC0
1FC3C0
3FC300
7FC300
7FC300
FFC300
FFC300
FFC300
FFC300
FFC300
FFC300
FFC300
7FC300
7FC300
3FC300
1FC300
0FC300
00C300
00C300
00C300
00C300
00C300
00C300
00C300
00C300
00C300
00C300
00C300
00C300
00C300
00C300
00C300
00C300
00C300
ENDCHAR
STARTCHAR 00B7
ENCODING 183
SWIDTH 282 0
DWIDTH 11 0
BBX 4 4 4 9
BITMAP
F0
F0
F0
F0
ENDCHAR
STARTCHAR 00B8
ENCODING 184
SWIDTH 334 0
DWIDTH 13 0
BBX 9 9 2 -9
BITMAP
0C00
0800
1F00
1F80
0380
0380
C380
FF00
1800
ENDCHAR
STARTCHAR 00B9
ENCODING 185
SWIDTH 334 0
DWIDTH 13 0
BBX 6 17 2 11
BITMAP
04
0C
0C
7C
FC
0C
0C
0C
0C
0C
0C
0C
0C
0C
0C
0C
0C
ENDCHAR
STARTCHAR 00BA
ENCODING 186
SWIDTH 360 0
DWIDTH 14 0
BBX 11 17 2 11
BITMAP
1F00
7F80
E1C0
E0C0
C0C0
C0E0
C0E0
C0E0
C0C0
E0C0
E1C0
7F80
3F00
0000
0000
FFC0
FFC0
ENDCHAR
STARTCHAR 00BB
ENCODING 187
SWIDTH 565 0
DWIDTH 22 0
BBX 14 12 4 4
BITMAP
8100
C0C0
E0E0
F0F0
7C78
1C1C
0C0C
1C3C
7878
F0F0
E0E0
C080
ENDCHAR
STARTCHAR 00BC
ENCODING 188
SWIDTH 822 0
DWIDTH 32 0
BBX 31 29 1 0
BITMAP
04000180
0C000300
0C000700
7C000600
FC000C00
0C001C00
0C001800
0C003800
0C003000
0C006000
0C00E000
0C00C030
0C018070
0C018070
0C0300F0
0C0701F0
0C0603B0
000C0330
000C0630
00180E30
00381C30
00301830
00603FFE
00E03FFE
00C00030
01800030
01800030
03000030
07000000
ENDCHAR
STARTCHAR 00BD
ENCODING 189
SWIDTH 822 0
DWIDTH 32 0
BBX 30 28 1 0
BITMAP
0C000700
0C000600
1C000C00
FC001C00
FC001800
0C003000
0C003000
0C006000
0C00E000
0C00C000
0C018000
0C0383F0
0C030FF8
0C060E1C
0C061C0C
0C0C180C
001C180C
0018001C
0030003C
00700078
006001E0
00C00780
00C00E00
01801C00
03801C00
03001FFC
06001FFC
0E000000
ENDCHAR
STARTCHAR 00BE
ENCODING 190
SWIDTH 822 0
DWIDTH 32 0
BBX 31 28 1 0
BITMAP
1F8001C0
3FC00180
70E00300
60600300
E0600600
E0600E00
00E00C00
07C01800
07C03800
00E03000
00706000
C0706030
E070C070
E071C0F0
70E181F0
7FC301B0
1F870330
00060630
000C0E30
001C1C30
00183830
00303FFE
00303FFE
00600030
00E00030
00C00030
01800030
03800000
ENDCHAR
STARTCHAR 00BF
ENCODING 191
SWIDTH 617 0
DWIDTH 24 0
BBX 17 28 4 -8
BITMAP
01C000
01C000
01C000
01C000
000000
000000
000000
000000
01C000
01C000
01C000
03C000
078000
0F8000
1F0000
3C0000
780000
700000
F00000
E00780
E00700
E00700
F00700
F00F00
7C1E00
7FFE00
3FFC00
0FF000
ENDCHAR
STARTCHAR 00C0
ENCODING 192
SWIDTH 668 0
DWIDTH 26 0
BBX 24 36 1 0
BITMAP
01E000
00F000
007800
003800
001C00
000C00
000000
000000
003E00
007E00
007E00
00FF00
00FF00
00F700
01E780
01E780
01C380
03C3C0
03C3C0
0381E0
0781E0
0781E0
0700F0
0F00F0
0F00F0
1FFFF8
1FFFF8
1FFFF8
3C003C
3C003C
3C003C
78001E
78001E
70001F
F0000F
F0000F
ENDCHAR
STARTCHAR 00C1
ENCODING 193
SWIDTH 668 0
DWIDTH 26 0
BBX 24 36 1 0
BITMAP
000780
000F00
000E00
001C00
003800
003000
000000
000000
003E00
007E00
007E00
00FF00
00FF00
00F700
01E780
01E780
01C380
03C3C0
03C3C0
0381E0
0781E0
0781E0
0700F0
0F00F0
0F00F0
1FFFF8
1FFFF8
1FFFF8
3C003C
3C003C
3C003C
78001E
78001E
70001F
F0000F
F0000F
ENDCHAR
STARTCHAR 00C2
ENCODING 194
SWIDTH 668 0
DWIDTH 26 0
BBX 24 36 1 0
BITMAP
003C00
007E00
00F700
00E700
01C380
0181C0
000000
000000
003E00
007E00
007E00
00FF00
00FF00
00F700
01E780
01E780
01C380
03C3C0
03C3C0
0381E0
0781E0
0781E0
0700F0
0F00F0
0F00F0
1FFFF8
1FFFF8
1FFFF8
3C003C
3C003C
3C003C
78001E
78001E
70001F
F0000F
F0000F
ENDCHAR
STARTCHAR 00C3
ENCODING 195
SWIDTH 668 0
DWIDTH 26 0
BBX 24 35 1 0
BITMAP
00F0C0
01FFC0
03FF80
030700
000000
000000
000000
003E00
007E00
007E00
00FF00
00FF00
00F700
01E780
01E780
01C380
03C3C0
03C3C0
0381E0
0781E0
0781E0
0700F0
0F00F0
0F00F0
1FFFF8
1FFFF8
1FFFF8
3C003C
3C003C
3C003C
78001E
78001E
70001F
F0000F
F0000F
ENDCHAR
STARTCHAR 00C4
ENCODING 196
SWIDTH 668 0
DWIDTH 26 0
BBX 24 35 1 0
BITMAP
01E780
01E780
01E780
01E780
000000
000000
000000
003E00
007E00
007E00
00FF00
00FF00
00F700
01E780
01E780
01C380
03C3C0
03C3C0
0381E0
0781E0
0781E0
0700F0
0F00F0
0F00F0
1FFFF8
1FFFF8
1FFFF8
3C003C
3C003C
3C003C
78001E
78001E
70001F
F0000F
F0000F
ENDCHAR
STARTCHAR 00C5
ENCODING 197
SWIDTH 668 0
DWIDTH 26 0
BBX 24 37 1 0
BITMAP
001800
007E00
006600
004200
006200
007E00
003C00
000000
000000
003E00
007E00
007E00
00FF00
00FF00
00F700
01E780
01E780
01C380
03C3C0
03C3C0
0381E0
0781E0
0781E0
0700F0
0F00F0
0F00F0
1FFFF8
1FFFF8
1FFFF8
3C003C
3C003C
3C003C
78001E
78001E
70001F
F0000F
F0000F
ENDCHAR
STARTCHAR 00C6
ENCODING 198
SWIDTH 1002 0
DWIDTH 39 0
BBX 36 28 1 0
BITMAP
001FFFFFE0
003FFFFFE0
003FFFFFE0
0038780000
0078780000
0070780000
00F0780000
00F0780000
00E0780000
01E0780000
01C0780000
03C0780000
03C07FFFE0
07807FFFE0
07807FFFE0
0700780000
0F00780000
0FFFF80000
1FFFF80000
1FFFF80000
1E00780000
3C00780000
3C00780000
7800780000
7800780000
F0007FFFF0
F0007FFFF0
F0007FFFF0
ENDCHAR
STARTCHAR 00C7
ENCODING 199
SWIDTH 720 0
DWIDTH 28 0
BBX 24 37 2 -9
BITMAP
007F80
03FFE0
07FFF0
0FC3F8
1F007C
3E001E
3C001E
78000E
78000F
700000
F00000
F00000
F00000
F00000
E00000
F00000
F00000
F00000
F00007
F0000F
78000F
78000F
3C001E
3E001E
1F003C
0FC0FC
07FFF8
03FFE0
00FF80
001800
001E00
003F00
000700
000700
018700
01FE00
001000
ENDCHAR
STARTCHAR 00C8
ENCODING 200
SWIDTH 668 0
DWIDTH 26 0
BBX 20 36 4 0
BITMAP
078000
03C000
01C000
00E000
006000
003000
000000
000000
FFFFE0
FFFFE0
FFFFE0
E00000
E00000
E00000
E00000
E00000
E00000
E00000
E00000
E00000
FFFFE0
FFFFE0
FFFFE0
E00000
E00000
E00000
E00000
E00000
E00000
E00000
E00000
E00000
E00000
FFFFF0
FFFFF0
FFFFF0
ENDCHAR
STARTCHAR 00C9
ENCODING 201
SWIDTH 668 0
DWIDTH 26 0
BBX 20 36 4 0
BITMAP
003C00
007800
007000
00E000
01C000
018000
000000
000000
FFFFE0
FFFFE0
FFFFE0
E00000
E00000
E00000
E00000
E00000
E00000
E00000
E00000
E00000
FFFFE0
FFFFE0
FFFFE0
E00000
E00000
E00000
E00000
E00000
E00000
E00000
E00000
E00000
E00000
FFFFF0
FFFFF0
FFFFF0
ENDCHAR
STARTCHAR 00CA
ENCODING 202
SWIDTH 668 0
DWIDTH 26 0
BBX 20 36 4 0
BITMAP
01F000
03F000
03B800
071C00
060C00
0C0E00
000000
000000
FFFFE0
FFFFE0
FFFFE0
E00000
E00000
E00000
E00000
E00000
E00000
E00000
E00000
E00000
FFFFE0
FFFFE0
FFFFE0
E00000
E00000
E00000
E00000
E00000
E00000
E00000
E00000
E00000
E00000
FFFFF0
FFFFF0
FFFFF0
ENDCHAR
STARTCHAR 00CB
ENCODING 203
SWIDTH 668 0
DWIDTH 26 0
BBX 20 35 4 0
BITMAP
0F3E00
0F3E00
0F3E00
0F3E00
000000
000000
000000
FFFFE0
FFFFE0
FFFFE0
E00000
E00000
E00000
E00000
E00000
E00000
E00000
E00000
E00000
FFFFE0
FFFFE0
FFFFE0
E00000
E00000
E00000
E00000
E00000
E00000
E00000
E00000
E00000
E00000
FFFFF0
FFFFF0
FFFFF0
ENDCHAR
STARTCHAR 00CC
ENCODING 204
SWIDTH 282 0
DWIDTH 11 0
BBX 7 36 1 0
BITMAP
F0
78
38
1C
0C
06
00
00
1E
1E
1E
1E
1E
1E
1E
1E
1E
1E
1E
1E
1E
1E
1E
1E
1E
1E
1E
1E
1E
1E
1E
1E
1E
1E
1E
1E
ENDCHAR
STARTCHAR 00CD
ENCODING 205
SWIDTH 282 0
DWIDTH 11 0
BBX 7 36 3 0
BITMAP
1E
3C
38
70
E0
C0
00
00
78
78
78
78
78
78
78
78
78
78
78
78
78
78
78
78
78
78
78
78
78
78
78
78
78
78
78
78
ENDCHAR
STARTCHAR 00CE
ENCODING 206
SWIDTH 282 0
DWIDTH 11 0
BBX 11 36 0 0
BITMAP
1F00
1F00
3B80
71C0
60C0
E060
0000
0000
0F00
0F00
0F00
0F00
0F00
0F00
0F00
0F00
0F00
0F00
0F00
0F00
0F00
0F00
0F00
0F00
0F00
0F00
0F00
0F00
0F00
0F00
0F00
0F00
0F00
0F00
0F00
0F00
ENDCHAR
STARTCHAR 00CF
ENCODING 207
SWIDTH 282 0
DWIDTH 11 0
BBX 11 35 0 0
BITMAP
F1E0
F1E0
F1E0
F1E0
0000
0000
0000
0F00
0F00
0F00
0F00
0F00
0F00
0F00
0F00
0F00
0F00
0F00
0F00
0F00
0F00
0F00
0F00
0F00
0F00
0F00
0F00
0F00
0F00
0F00
0F00
0F00
0F00
0F00
0F00
ENDCHAR
STARTCHAR 00D0
ENCODING 208
SWIDTH 720 0
DWIDTH 28 0
BBX 25 28 1 0
BITMAP
3FFF8000
3FFFE000
3FFFF800
3C01FC00
3C003C00
3C001E00
3C000F00
3C000F00
3C000700
3C000780
3C000780
3C000780
FFF80780
FFF80780
FFF80780
3C000780
3C000780
3C000780
3C000780
3C000700
3C000F00
3C000F00
3C001E00
3C003C00
3C00FC00
3FFFF800
3FFFE000
3FFF8000
ENDCHAR
STARTCHAR 00D1
ENCODING 209
SWIDTH 720 0
DWIDTH 28 0
BBX 22 35 3 0
BITMAP
01F180
03FF80
03FF80
070E00
000000
000000
000000
F0001C
F8001C
FC001C
FC001C
FE001C
FE001C
EF001C
E7801C
E7801C
E3C01C
E1E01C
E1E01C
E0F01C
E0781C
E0781C
E03C1C
E01E1C
E01E1C
E00F1C
E0079C
E0079C
E003DC
E003DC
E001FC
E000FC
E000FC
E0007C
E0003C
ENDCHAR
STARTCHAR 00D2
ENCODING 210
SWIDTH 771 0
DWIDTH 30 0
BBX 28 36 1 0
BITMAP
00780000
003C0000
001C0000
000E0000
00070000
00030000
00000000
00000000
003FC000
00FFF800
03FFFE00
07F07F00
0F801F80
1F000780
3E0003C0
3C0003E0
780001E0
780001E0
780000F0
700000F0
700000F0
F00000F0
F00000F0
700000F0
700000F0
780000F0
780000E0
780001E0
3C0001C0
3E0003C0
1F000780
0F801F80
07F07F00
03FFFC00
01FFF800
003FC000
ENDCHAR
STARTCHAR 00D3
ENCODING 211
SWIDTH 771 0
DWIDTH 30 0
BBX 28 36 1 0
BITMAP
0001E000
0001C000
00038000
00070000
00060000
000C0000
00000000
00000000
003FC000
00FFF800
03FFFE00
07F07F00
0F801F80
1F000780
3E0003C0
3C0003E0
780001E0
780001E0
780000F0
700000F0
700000F0
F00000F0
F00000F0
700000F0
700000F0
780000F0
780000E0
780001E0
3C0001C0
3E0003C0
1F000780
0F801F80
07F07F00
03FFFC00
01FFF800
003FC000
ENDCHAR
STARTCHAR 00D4
ENCODING 212
SWIDTH 771 0
DWIDTH 30 0
BBX 28 36 1 0
BITMAP
000F0000
000F8000
001F8000
0039C000
0030E000
00706000
00000000
00000000
003FC000
00FFF800
03FFFE00
07F07F00
0F801F80
1F000780
3E0003C0
3C0003E0
780001E0
780001E0
780000F0
700000F0
700000F0
F00000F0
F00000F0
700000F0
700000F0
780000F0
780000E0
780001E0
3C0001C0
3E0003C0
1F000780
0F801F80
07F07F00
03FFFC00
01FFF800
003FC000
ENDCHAR
STARTCHAR 00D5
ENCODING 213
SWIDTH 771 0
DWIDTH 30 0
BBX 28 35 1 0
BITMAP
003C3000
007FF000
007FF000
00E1E000
00000000
00000000
00000000
003FC000
00FFF800
03FFFE00
07F07F00
0F801F80
1F000780
3E0003C0
3C0003E0
780001E0
780001E0
780000F0
700000F0
700000F0
F00000F0
F00000F0
700000F0
700000F0
780000F0
780000E0
780001E0
3C0001C0
3E0003C0
1F000780
0F801F80
07F07F00
03FFFC00
01FFF800
003FC000
ENDCHAR
STARTCHAR 00D6
ENCODING 214
SWIDTH 771 0
DWIDTH 30 0
BBX 28 35 1 0
BITMAP
0079E000
0079E000
0079E000
0079E000
00000000
00000000
00000000
003FC000
00FFF800
03FFFE00
07F07F00
0F801F80
1F000780
3E0003C0
3C0003E0
780001E0
780001E0
780000F0
700000F0
700000F0
F00000F0
F00000F0
700000F0
700000F0
780000F0
780000E0
780001E0
3C0001C0
3E0003C0
1F000780
0F801F80
07F07F00
03FFFC00
01FFF800
003FC000
ENDCHAR
STARTCHAR 00D7
ENCODING 215
SWIDTH 591 0
DWIDTH 23 0
BBX 15 15 4 2
BITMAP
600C
F01E
783C
3C78
1EF0
0FE0
07C0
07C0
0FE0
1EF0
3C78
783C
F01E
E00C
4000
ENDCHAR
STARTCHAR 00D8
ENCODING 216
SWIDTH 771 0
DWIDTH 30 0
BBX 28 28 1 1
BITMAP
003FC070
00FFF860
03FFFCC0
07E0FF80
0F801F80
1E000780
3C000FC0
3C001FC0
780039E0
780071E0
7000E0E0
7001C0F0
F00380F0
F00700F0
F00E00F0
F01C00F0
703800F0
707000E0
78E001E0
79C001E0
3F8003C0
3F0003C0
1E000780
1F801F80
3FF07F00
73FFFC00
E1FFF800
403FC000
ENDCHAR
STARTCHAR 00D9
ENCODING 217
SWIDTH 720 0
DWIDTH 28 0
BBX 22 36 3 0
BITMAP
03C000
01E000
00F000
007000
003800
001C00
000000
000000
F0003C
F0003C
F0003C
F0003C
F0003C
F0003C
F0003C
F0003C
F0003C
F0003C
F0003C
F0003C
F0003C
F0003C
F0003C
F0003C
F0003C
F0003C
F0003C
F0003C
F0003C
78003C
780078
3C00F8
3F83F0
1FFFE0
07FFC0
01FE00
ENDCHAR
STARTCHAR 00DA
ENCODING 218
SWIDTH 720 0
DWIDTH 28 0
BBX 22 36 3 0
BITMAP
000F00
001E00
003C00
003800
007000
00E000
000000
000000
F0003C
F0003C
F0003C
F0003C
F0003C
F0003C
F0003C
F0003C
F0003C
F0003C
F0003C
F0003C
F0003C
F0003C
F0003C
F0003C
F0003C
F0003C
F0003C
F0003C
F0003C
78003C
780078
3C00F8
3F83F0
1FFFE0
07FFC0
01FE00
ENDCHAR
STARTCHAR 00DB
ENCODING 219
SWIDTH 720 0
DWIDTH 28 0
BBX 22 36 3 0
BITMAP
007800
00FC00
00EE00
01C600
038700
030380
000000
000000
F0003C
F0003C
F0003C
F0003C
F0003C
F0003C
F0003C
F0003C
F0003C
F0003C
F0003C
F0003C
F0003C
F0003C
F0003C
F0003C
F0003C
F0003C
F0003C
F0003C
F0003C
78003C
780078
3C00F8
3F83F0
1FFFE0
07FFC0
01FE00
ENDCHAR
STARTCHAR 00DC
ENCODING 220
SWIDTH 720 0
DWIDTH 28 0
BBX 22 35 3 0
BITMAP
03CF00
03CF00
03CF00
03CF00
000000
000000
000000
F0003C
F0003C
F0003C
F0003C
F0003C
F0003C
F0003C
F0003C
F0003C
F0003C
F0003C
F0003C
F0003C
F0003C
F0003C
F0003C
F0003C
F0003C
F0003C
F0003C
F0003C
78003C
780078
3C00F8
3F83F0
1FFFE0
07FFC0
01FE00
ENDCHAR
STARTCHAR 00DD
ENCODING 221
SWIDTH 668 0
DWIDTH 26 0
BBX 24 36 1 0
BITMAP
000780
000F00
001E00
001C00
003800
003000
000000
000000
F0000F
F8001F
7C001E
3C003C
3E003C
1E0078
0F00F8
0F80F0
0781E0
03C1E0
03C3C0
01E380
01F780
00FF00
007F00
007E00
003C00
003C00
003C00
003C00
003C00
003C00
003C00
003C00
003C00
003C00
003C00
003C00
ENDCHAR
STARTCHAR 00DE
ENCODING 222
SWIDTH 668 0
DWIDTH 26 0
BBX 20 28 4 0
BITMAP
E00000
E00000
E00000
E00000
E00000
FFFE00
FFFF80
FFFFC0
E007E0
E001E0
E000F0
E000F0
E000F0
E000F0
E000F0
E000F0
E001E0
E007E0
FFFFC0
FFFF80
FFFE00
E00000
E00000
E00000
E00000
E00000
E00000
E00000
ENDCHAR
STARTCHAR 00DF
ENCODING 223
SWIDTH 617 0
DWIDTH 24 0
BBX 19 28 3 0
BITMAP
07F000
1FFC00
3FFF00
7C1F00
F00780
E00780
E00380
E00380
E00380
E00780
E00F00
E0FC00
E0F800
E0FE00
E01F80
E003C0
E003C0
E001C0
E001E0
E001E0
E001E0
E001C0
E003C0
E007C0
E01F80
E1FF00
E1FE00
E1F000
ENDCHAR
STARTCHAR 00E0
ENCODING 224
SWIDTH 565 0
DWIDTH 22 0
BBX 19 28 2 0
BITMAP
0F0000
078000
038000
01C000
00E000
006000
000000
000000
07F800
1FFE00
3FFF00
7C0F00
700700
700700
000700
000700
007F00
1FFF00
7FE700
F80700
F00700
E00700
E00700
E00F00
F03F80
7FFFE0
7FE3E0
1F83E0
ENDCHAR
STARTCHAR 00E1
ENCODING 225
SWIDTH 565 0
DWIDTH 22 0
BBX 19 28 2 0
BITMAP
007C00
007800
00F000
00E000
01C000
038000
000000
000000
07F800
1FFE00
3FFF00
7C0F00
700700
700700
000700
000700
007F00
1FFF00
7FE700
F80700
F00700
E00700
E00700
E00F00
F03F80
7FFFE0
7FE3E0
1F83E0
ENDCHAR
STARTCHAR 00E2
ENCODING 226
SWIDTH 565 0
DWIDTH 22 0
BBX 19 28 2 0
BITMAP
01E000
03E000
077000
073800
0E1800
1C1C00
000000
000000
07F800
1FFE00
3FFF00
7C0F00
700700
700700
000700
000700
007F00
1FFF00
7FE700
F80700
F00700
E00700
E00700
E00F00
F03F80
7FFFE0
7FE3E0
1F83E0
ENDCHAR
STARTCHAR 00E3
ENCODING 227
SWIDTH 565 0
DWIDTH 22 0
BBX 19 28 2 0
BITMAP
0F0E00
0FFC00
1FFC00
187800
000000
000000
000000
000000
07F800
1FFE00
3FFF00
7C0F00
700700
700700
000700
000700
007F00
1FFF00
7FE700
F80700
F00700
E00700
E00700
E00F00
F03F80
7FFFE0
7FE3E0
1F83E0
ENDCHAR
STARTCHAR 00E4
ENCODING 228
SWIDTH 565 0
DWIDTH 22 0
BBX 19 28 2 0
BITMAP
1E3C00
1E3C00
1E3C00
1E3C00
000000
000000
000000
000000
07F800
1FFE00
3FFF00
7C0F00
700700
700700
000700
000700
007F00
1FFF00
7FE700
F80700
F00700
E00700
E00700
E00F00
F03F80
7FFFE0
7FE3E0
1F83E0
ENDCHAR
STARTCHAR 00E5
ENCODING 229
SWIDTH 565 0
DWIDTH 22 0
BBX 19 29 2 0
BITMAP
00C000
03E000
033000
063000
063000
033000
03E000
00C000
000000
07F800
1FFE00
3FFF00
7C0F00
700700
700700
000700
000700
007F00
1FFF00
7FE700
F80700
F00700
E00700
E00700
E00F00
F03F80
7FFFE0
7FE3E0
1F83E0
ENDCHAR
STARTCHAR 00E6
ENCODING 230
SWIDTH 900 0
DWIDTH 35 0
BBX 32 20 1 0
BITMAP
03F80FC0
0FFE3FF0
1FFF7FF8
3C0FF07C
7803E01E
7803C00E
0003800F
0007800F
007FFFFF
0FFFFFFF
3FFBFFFF
7E038000
78038000
F003800E
F007C00E
F00FE01E
781CF03C
7FF8FFF8
3FF03FF0
0FC00FC0
ENDCHAR
STARTCHAR 00E7
ENCODING 231
SWIDTH 488 0
DWIDTH 19 0
BBX 18 29 1 -9
BITMAP
03F000
0FFC00
1FFF00
3E0F00
3C0780
780380
700380
700000
F00000
F00000
F00000
F00000
F00000
F003C0
700380
780380
3C0780
3E0F00
1FFE00
0FFC00
03F000
018000
01F000
01F800
003800
003800
0C7800
0FF000
018000
ENDCHAR
STARTCHAR 00E8
ENCODING 232
SWIDTH 565 0
DWIDTH 22 0
BBX 18 28 2 0
BITMAP
0F0000
078000
038000
01C000
00E000
006000
000000
000000
03F000
0FFC00
3FFE00
3C1F00
780780
F00380
E003C0
E003C0
FFFFC0
FFFFC0
FFFFC0
E00000
E00000
E00000
F00380
780780
7C0F00
3FFE00
1FFC00
07F000
ENDCHAR
STARTCHAR 00E9
ENCODING 233
SWIDTH 565 0
DWIDTH 22 0
BBX 18 28 2 0
BITMAP
003C00
007800
00F000
00E000
01C000
038000
000000
000000
03F000
0FFC00
3FFE00
3C1F00
780780
F00380
E003C0
E003C0
FFFFC0
FFFFC0
FFFFC0
E00000
E00000
E00000
F00380
780780
7C0F00
3FFE00
1FFC00
07F000
ENDCHAR
STARTCHAR 00EA
ENCODING 234
SWIDTH 565 0
DWIDTH 22 0
BBX 18 28 2 0
BITMAP
01E000
03F000
03F800
073800
0E1C00
0C0C00
000000
000000
03F000
0FFC00
3FFE00
3C1F00
780780
F00380
E003C0
E003C0
FFFFC0
FFFFC0
FFFFC0
E00000
E00000
E00000
F00380
780780
7C0F00
3FFE00
1FFC00
07F000
ENDCHAR
STARTCHAR 00EB
ENCODING 235
SWIDTH 565 0
DWIDTH 22 0
BBX 18 28 2 0
BITMAP
0F3C00
0F3C00
0F3C00
0F3C00
000000
000000
000000
000000
03F000
0FFC00
3FFE00
3C1F00
780780
F00380
E003C0
E003C0
FFFFC0
FFFFC0
FFFFC0
E00000
E00000
E00000
F00380
780780
7C0F00
3FFE00
1FFC00
07F000
ENDCHAR
STARTCHAR 00EC
ENCODING 236
SWIDTH 282 0
DWIDTH 11 0
BBX 8 28 0 0
BITMAP
F8
78
3C
1E
06
03
00
00
0E
0E
0E
0E
0E
0E
0E
0E
0E
0E
0E
0E
0E
0E
0E
0E
0E
0E
0E
0E
ENDCHAR
STARTCHAR 00ED
ENCODING 237
SWIDTH 282 0
DWIDTH 11 0
BBX 7 28 3 0
BITMAP
1E
3C
38
70
E0
C0
00
00
70
70
70
70
70
70
70
70
70
70
70
70
70
70
70
70
70
70
70
70
ENDCHAR
STARTCHAR 00EE
ENCODING 238
SWIDTH 282 0
DWIDTH 11 0
BBX 11 28 0 0
BITMAP
1F00
3F00
3B80
71C0
E1C0
C0E0
0000
0000
0E00
0E00
0E00
0E00
0E00
0E00
0E00
0E00
0E00
0E00
0E00
0E00
0E00
0E00
0E00
0E00
0E00
0E00
0E00
0E00
ENDCHAR
STARTCHAR 00EF
ENCODING 239
SWIDTH 282 0
DWIDTH 11 0
BBX 10 28 0 0
BITMAP
F3C0
F3C0
F3C0
F3C0
0000
0000
0000
0000
0E00
0E00
0E00
0E00
0E00
0E00
0E00
0E00
0E00
0E00
0E00
0E00
0E00
0E00
0E00
0E00
0E00
0E00
0E00
0E00
ENDCHAR
STARTCHAR 00F0
ENCODING 240
SWIDTH 565 0
DWIDTH 22 0
BBX 19 28 1 0
BITMAP
080000
1E1800
0FF800
07E000
0FE000
1EF800
107C00
003E00
03FE00
0FFF00
1FFF80
3E0F80
3C03C0
7803C0
7001C0
7001E0
F001E0
F001E0
F001E0
F001E0
7001E0
7001C0
7803C0
3C03C0
3E0F80
1FFF00
0FFE00
03F800
ENDCHAR
STARTCHAR 00F1
ENCODING 241
SWIDTH 565 0
DWIDTH 22 0
BBX 16 28 3 0
BITMAP
0E0C
1FFC
3FF8
30F0
0000
0000
0000
0000
E7F0
EFFC
FFFE
FC1F
F80F
F007
E007
E007
E007
E007
E007
E007
E007
E007
E007
E007
E007
E007
E007
E007
ENDCHAR
STARTCHAR 00F2
ENCODING 242
SWIDTH 565 0
DWIDTH 22 0
BBX 19 28 1 0
BITMAP
078000
038000
01C000
00E000
006000
003000
000000
000000
03F800
0FFE00
1FFF00
3E0F80
3C03C0
7803C0
7001C0
7001E0
7001E0
F001E0
F001E0
F001E0
7001E0
7001C0
7803C0
3C03C0
3E0F80
1FFF00
0FFE00
03F800
ENDCHAR
STARTCHAR 00F3
ENCODING 243
SWIDTH 565 0
DWIDTH 22 0
BBX 19 28 1 0
BITMAP
003E00
003C00
007800
00F000
00E000
01C000
000000
000000
03F800
0FFE00
1FFF00
3E0F80
3C03C0
7803C0
7001C0
7001E0
7001E0
F001E0
F001E0
F001E0
7001E0
7001C0
7803C0
3C03C0
3E0F80
1FFF00
0FFE00
03F800
ENDCHAR
STARTCHAR 00F4
ENCODING 244
SWIDTH 565 0
DWIDTH 22 0
BBX 19 28 1 0
BITMAP
01F000
01F000
03B800
039C00
070C00
0E0E00
000000
000000
03F800
0FFE00
1FFF00
3E0F80
3C03C0
7803C0
7001C0
7001E0
7001E0
F001E0
F001E0
F001E0
7001E0
7001C0
7803C0
3C03C0
3E0F80
1FFF00
0FFE00
03F800
ENDCHAR
STARTCHAR 00F5
ENCODING 245
SWIDTH 565 0
DWIDTH 22 0
BBX 19 28 1 0
BITMAP
078700
07FF00
0FFE00
0C3C00
000000
000000
000000
000000
03F800
0FFE00
1FFF00
3E0F80
3C03C0
7803C0
7001C0
7001E0
7001E0
F001E0
F001E0
F001E0
7001E0
7001C0
7803C0
3C03C0
3E0F80
1FFF00
0FFE00
03F800
ENDCHAR
STARTCHAR 00F6
ENCODING 246
SWIDTH 565 0
DWIDTH 22 0
BBX 19 28 1 0
BITMAP
0F1E00
0F1E00
0F1E00
0F1E00
000000
000000
000000
000000
03F800
0FFE00
1FFF00
3E0F80
3C03C0
7803C0
7001C0
7001E0
7001E0
F001E0
F001E0
F001E0
7001E0
7001C0
7803C0
3C03C0
3E0F80
1FFF00
0FFE00
03F800
ENDCHAR
STARTCHAR 00F7
ENCODING 247
SWIDTH 591 0
DWIDTH 23 0
BBX 19 18 2 0
BITMAP
01E000
01E000
01E000
01E000
000000
000000
000000
FFFFE0
FFFFE0
FFFFE0
000000
000000
000000
000000
01E000
01E000
01E000
01E000
ENDCHAR
STARTCHAR 00F8
ENCODING 248
SWIDTH 617 0
DWIDTH 24 0
BBX 19 20 1 0
BITMAP
03F820
0FFE60
1FFFC0
3E0F80
3C03C0
7807C0
700DC0
7019E0
7031E0
F061E0
F0C1E0
F181E0
7301E0
7601C0
7C03C0
3C03C0
3E0F80
7FFF00
EFFE00
C3F800
ENDCHAR
STARTCHAR 00F9
ENCODING 249
SWIDTH 565 0
DWIDTH 22 0
BBX 16 28 3 -1
BITMAP
1E00
0E00
0700
0380
0180
00C0
0000
0000
E007
E007
E007
E007
E007
E007
E007
E007
E007
E007
E007
E007
E00F
E00F
E00F
E01F
F03F
FFFF
7FF7
1FE7
ENDCHAR
STARTCHAR 00FA
ENCODING 250
SWIDTH 565 0
DWIDTH 22 0
BBX 16 28 3 -1
BITMAP
00F0
00E0
01C0
0380
0300
0600
0000
0000
E007
E007
E007
E007
E007
E007
E007
E007
E007
E007
E007
E007
E00F
E00F
E00F
E01F
F03F
FFFF
7FF7
1FE7
ENDCHAR
STARTCHAR 00FB
ENCODING 251
SWIDTH 565 0
DWIDTH 22 0
BBX 16 28 3 -1
BITMAP
07C0
07E0
0EE0
0C70
1C30
3818
0000
0000
E007
E007
E007
E007
E007
E007
E007
E007
E007
E007
E007
E007
E00F
E00F
E00F
E01F
F03F
FFFF
7FF7
1FE7
ENDCHAR
STARTCHAR 00FC
ENCODING 252
SWIDTH 565 0
DWIDTH 22 0
BBX 16 28 3 -1
BITMAP
3E78
3E78
3E78
3E78
0000
0000
0000
0000
E007
E007
E007
E007
E007
E007
E007
E007
E007
E007
E007
E007
E00F
E00F
E00F
E01F
F03F
FFFF
7FF7
1FE7
ENDCHAR
STARTCHAR 00FD
ENCODING 253
SWIDTH 488 0
DWIDTH 19 0
BBX 17 36 1 -8
BITMAP
007800
007000
00E000
01C000
038000
030000
000000
000000
E00380
F00380
700780
700700
780F00
380F00
380E00
3C1E00
1C1C00
1C1C00
1E3C00
0E3800
0E3800
0F7000
077000
07F000
07E000
03E000
03E000
03C000
03C000
038000
038000
078000
070000
7F0000
7E0000
7C0000
ENDCHAR
STARTCHAR 00FE
ENCODING 254
SWIDTH 565 0
DWIDTH 22 0
BBX 18 35 2 -8
BITMAP
E00000
E00000
E00000
E00000
E00000
E00000
E00000
E1F800
E7FE00
EFFF00
FE1F80
F80780
F003C0
F003C0
F001C0
E001C0
E001C0
E001C0
E001C0
F001C0
F003C0
F803C0
F80780
FE1F80
EFFF00
E7FE00
E1F800
E00000
E00000
E00000
E00000
E00000
E00000
E00000
E00000
ENDCHAR
STARTCHAR 00FF
ENCODING 255
SWIDTH 488 0
DWIDTH 19 0
BBX 17 36 1 -8
BITMAP
1E3C00
1E3C00
1E3C00
1E3C00
000000
000000
000000
000000
E00380
F00380
700780
700700
780F00
380F00
380E00
3C1E00
1C1C00
1C1C00
1E3C00
0E3800
0E3800
0F7000
077000
07F000
07E000
03E000
03E000
03C000
03C000
038000
038000
078000
070000
7F0000
7E0000
7C0000
ENDCHAR
STARTCHAR 0100
ENCODING 256
SWIDTH 668 0
DWIDTH 26 0
BBX 24 35 1 0
BITMAP
01FF80
01FF80
01FF80
000000
000000
000000
000000
003E00
007E00
007E00
00FF00
00FF00
00F700
01E780
01E780
01C380
03C3C0
03C3C0
0381E0
0781E0
0781E0
0700F0
0F00F0
0F00F0
1FFFF8
1FFFF8
1FFFF8
3C003C
3C003C
3C003C
78001E
78001E
70001F
F0000F
F0000F
ENDCHAR
STARTCHAR 0101
ENCODING 257
SWIDTH 565 0
DWIDTH 22 0
BBX 19 26 2 0
BITMAP
1FFC00
1FFC00
1FFC00
000000
000000
000000
07F800
1FFE00
3FFF00
7C0F00
700700
700700
000700
000700
007F00
1FFF00
7FE700
F80700
F00700
E00700
E00700
E00F00
F03F80
7FFFE0
7FE3E0
1F83E0
ENDCHAR
STARTCHAR 0102
ENCODING 258
SWIDTH 668 0
DWIDTH 26 0
BBX 24 36 1 0
BITMAP
0300C0
0381C0
03C380
01FF80
00FF00
003800
000000
000000
003E00
007E00
007E00
00FF00
00FF00
00F700
01E780
01E780
01C380
03C3C0
03C3C0
0381E0
0781E0
0781E0
0700F0
0F00F0
0F00F0
1FFFF8
1FFFF8
1FFFF8
3C003C
3C003C
3C003C
78001E
78001E
70001F
F0000F
F0000F
ENDCHAR
STARTCHAR 0103
ENCODING 259
SWIDTH 565 0
DWIDTH 22 0
BBX 19 28 2 0
BITMAP
180E00
1C0C00
1E1C00
0FFC00
07F800
01C000
000000
000000
07F800
1FFE00
3FFF00
7C0F00
700700
700700
000700
000700
007F00
1FFF00
7FE700
F80700
F00700
E00700
E00700
E00F00
F03F80
7FFFE0
7FE3E0
1F83E0
ENDCHAR
STARTCHAR 0104
ENCODING 260
SWIDTH 668 0
DWIDTH 26 0
BBX 26 36 1 -8
BITMAP
003E0000
007E0000
007E0000
00FF0000
00FF0000
00F70000
01E78000
01E78000
01C38000
03C3C000
03C3C000
0381E000
0781E000
0781E000
0700F000
0F00F000
0F00F000
1FFFF800
1FFFF800
1FFFF800
3C003C00
3C003C00
3C003C00
78001E00
78001E00
70001F00
F0000F00
F0000F00
00000600
00001C00
00003800
00003800
00003800
00003800
00001FC0
00000FC0
ENDCHAR
STARTCHAR 0105
ENCODING 261
SWIDTH 565 0
DWIDTH 22 0
BBX 21 27 2 -7
BITMAP
07F800
1FFE00
3FFF00
7C0F00
700700
700700
000700
000700
007F00
1FFF00
3FE700
780700
F00700
E00700
E00700
E00F00
F03F80
7FFFE0
3FE3E0
1F83E0
000180
000300
000700
000700
000700
0003F8
0000F8
ENDCHAR
STARTCHAR 0106
ENCODING 262
SWIDTH 720 0
DWIDTH 28 0
BBX 24 36 2 0
BITMAP
0003C0
000780
000F00
000E00
001C00
003800
000000
000000
007F80
03FFE0
07FFF8
0FC3F8
1F007C
3C001E
3C001E
78000E
70000F
700000
F00000
F00000
F00000
F00000
F00000
F00000
F00000
F00007
F0000F
78000F
78000F
3C001E
3E001E
1F007C
0FC1FC
07FFF8
03FFE0
007F80
ENDCHAR
STARTCHAR 0107
ENCODING 263
SWIDTH 488 0
DWIDTH 19 0
BBX 17 28 1 0
BITMAP
003E00
003C00
007800
00F000
00E000
01C000
000000
000000
03F000
0FFC00
1FFF00
3E0F00
380780
780380
700380
700000
F00000
F00000
F00000
F00000
F00000
700380
780380
780780
3E0F00
1FFF00
0FFC00
03F000
ENDCHAR
STARTCHAR 0108
ENCODING 264
SWIDTH 720 0
DWIDTH 28 0
BBX 24 36 2 0
BITMAP
001E00
003E00
007700
007700
00E380
01C1C0
000000
000000
007F80
03FFE0
07FFF8
0FC3F8
1F007C
3C001E
3C001E
78000E
70000F
700000
F00000
F00000
F00000
F00000
F00000
F00000
F00000
F00007
F0000F
78000F
78000F
3C001E
3E001E
1F007C
0FC1FC
07FFF8
03FFE0
007F80
ENDCHAR
STARTCHAR 0109
ENCODING 265
SWIDTH 488 0
DWIDTH 19 0
BBX 17 28 1 0
BITMAP
01F000
01F000
03B800
073800
061C00
0E0E00
000000
000000
03F000
0FFC00
1FFF00
3E0F00
380780
780380
700380
700000
F00000
F00000
F00000
F00000
F00000
700380
780380
780780
3E0F00
1FFF00
0FFC00
03F000
ENDCHAR
STARTCHAR 010A
ENCODING 266
SWIDTH 720 0
DWIDTH 28 0
BBX 24 35 2 0
BITMAP
001E00
001E00
001E00
001E00
000000
000000
000000
007F80
03FFE0
07FFF8
0FC3F8
1F007C
3C001E
3C001E
78000E
70000F
700000
F00000
F00000
F00000
F00000
F00000
F00000
F00000
F00007
F0000F
78000F
78000F
3C001E
3E001E
1F007C
0FC1FC
07FFF8
03FFE0
007F80
ENDCHAR
STARTCHAR 010B
ENCODING 267
SWIDTH 488 0
DWIDTH 19 0
BBX 17 28 1 0
BITMAP
01E000
01E000
01E000
01E000
000000
000000
000000
000000
03F000
0FFC00
1FFF00
3E0F00
380780
780380
700380
700000
F00000
F00000
F00000
F00000
F00000
700380
780380
780780
3E0F00
1FFF00
0FFC00
03F000
ENDCHAR
STARTCHAR 010C
ENCODING 268
SWIDTH 720 0
DWIDTH 28 0
BBX 24 36 2 0
BITMAP
01C0C0
00E1C0
007380
007700
003F00
001E00
000000
000000
007F80
03FFE0
07FFF8
0FC3F8
1F007C
3C001E
3C001E
78000E
70000F
700000
F00000
F00000
F00000
F00000
F00000
F00000
F00000
F00007
F0000F
78000F
78000F
3C001E
3E001E
1F007C
0FC1FC
07FFF8
03FFE0
007F80
ENDCHAR
STARTCHAR 010D
ENCODING 269
SWIDTH 488 0
DWIDTH 19 0
BBX 17 28 1 0
BITMAP
0E0E00
061C00
073800
03B800
01F000
01E000
000000
000000
03F000
0FFC00
1FFF00
3E0F00
380780
780380
700380
700000
F00000
F00000
F00000
F00000
F00000
700380
780380
780780
3E0F00
1FFF00
0FFC00
03F000
ENDCHAR
STARTCHAR 010E
ENCODING 270
SWIDTH 720 0
DWIDTH 28 0
BBX 23 36 3 0
BITMAP
070600
030E00
039C00
01F800
00F800
00F000
000000
000000
FFFE00
FFFF80
FFFFE0
F007F0
F000F0
F00078
F0003C
F0003C
F0001C
F0001E
F0001E
F0001E
F0001E
F0001E
F0001E
F0001E
F0001E
F0001E
F0001E
F0001C
F0003C
F0003C
F00078
F000F0
F003F0
FFFFE0
FFFF80
FFFE00
ENDCHAR
STARTCHAR 010F
ENCODING 271
SWIDTH 642 0
DWIDTH 25 0
BBX 24 28 1 0
BITMAP
0001CF
0001CF
0001CF
0001CF
0001C3
0001C3
0001C3
0001C6
03F1CE
0FFDC0
1FFFC0
3E1FC0
7807C0
7803C0
F003C0
F001C0
F001C0
E001C0
E001C0
F001C0
F001C0
F001C0
7803C0
7C07C0
3E0FC0
1FFFC0
0FF9C0
03F1C0
ENDCHAR
STARTCHAR 0110
ENCODING 272
SWIDTH 720 0
DWIDTH 28 0
BBX 25 28 1 0
BITMAP
3FFF8000
3FFFE000
3FFFF800
3C01FC00
3C003C00
3C001E00
3C000F00
3C000F00
3C000700
3C000780
3C000780
3C000780
FFF80780
FFF80780
FFF80780
3C000780
3C000780
3C000780
3C000780
3C000700
3C000F00
3C000F00
3C001E00
3C003C00
3C00FC00
3FFFF800
3FFFE000
3FFF8000
ENDCHAR
STARTCHAR 0111
ENCODING 273
SWIDTH 565 0
DWIDTH 22 0
BBX 21 28 1 0
BITMAP
0001C0
0001C0
0001C0
007FF8
007FF8
0001C0
0001C0
0001C0
03F1C0
0FFDC0
1FFFC0
3F1FC0
7C07C0
7803C0
F003C0
F001C0
F001C0
E001C0
E001C0
F001C0
F001C0
7003C0
7803C0
7C07C0
3E1FC0
1FFFC0
0FFDC0
03F1C0
ENDCHAR
STARTCHAR 0112
ENCODING 274
SWIDTH 668 0
DWIDTH 26 0
BBX 20 35 4 0
BITMAP
0FFE00
0FFE00
0FFE00
000000
000000
000000
000000
FFFFE0
FFFFE0
FFFFE0
E00000
E00000
E00000
E00000
E00000
E00000
E00000
E00000
E00000
FFFFE0
FFFFE0
FFFFE0
E00000
E00000
E00000
E00000
E00000
E00000
E00000
E00000
E00000
E00000
FFFFF0
FFFFF0
FFFFF0
ENDCHAR
STARTCHAR 0113
ENCODING 275
SWIDTH 565 0
DWIDTH 22 0
BBX 18 26 2 0
BITMAP
0FFC00
0FFC00
0FFC00
000000
000000
000000
03F000
0FFC00
3FFE00
3C1F00
780780
F00380
E003C0
E003C0
FFFFC0
FFFFC0
FFFFC0
E00000
E00000
E00000
F00380
780780
7C0F00
3FFE00
1FFC00
07F000
ENDCHAR
STARTCHAR 0114
ENCODING 276
SWIDTH 668 0
DWIDTH 26 0
BBX 20 36 4 0
BITMAP
0C0600
0C0600
0E0E00
0FFC00
07F800
00E000
000000
000000
FFFFE0
FFFFE0
FFFFE0
E00000
E00000
E00000
E00000
E00000
E00000
E00000
E00000
E00000
FFFFE0
FFFFE0
FFFFE0
E00000
E00000
E00000
E00000
E00000
E00000
E00000
E00000
E00000
E00000
FFFFF0
FFFFF0
FFFFF0
ENDCHAR
STARTCHAR 0115
ENCODING 277
SWIDTH 565 0
DWIDTH 22 0
BBX 18 28 2 0
BITMAP
1C0600
1C0E00
0E1C00
0FFC00
07F800
01C000
000000
000000
03F000
0FFC00
3FFE00
3C1F00
780780
F00380
E003C0
E003C0
FFFFC0
FFFFC0
FFFFC0
E00000
E00000
E00000
F00380
780780
7C0F00
3FFE00
1FFC00
07F000
ENDCHAR
STARTCHAR 0116
ENCODING 278
SWIDTH 668 0
DWIDTH 26 0
BBX 20 35 4 0
BITMAP
01E000
01E000
01E000
01E000
000000
000000
000000
FFFFE0
FFFFE0
FFFFE0
E00000
E00000
E00000
E00000
E00000
E00000
E00000
E00000
E00000
FFFFE0
FFFFE0
FFFFE0
E00000
E00000
E00000
E00000
E00000
E00000
E00000
E00000
E00000
E00000
FFFFF0
FFFFF0
FFFFF0
ENDCHAR
STARTCHAR 0117
ENCODING 279
SWIDTH 565 0
DWIDTH 22 0
BBX 18 28 2 0
BITMAP
01E000
01E000
01E000
01E000
000000
000000
000000
000000
03F000
0FFC00
3FFE00
3C1F00
780780
F00380
E003C0
E003C0
FFFFC0
FFFFC0
FFFFC0
E00000
E00000
E00000
F00380
780780
7C0F00
3FFE00
1FFC00
07F000
ENDCHAR
STARTCHAR 0118
ENCODING 280
SWIDTH 668 0
DWIDTH 26 0
BBX 21 36 4 -8
BITMAP
FFFFE0
FFFFE0
FFFFE0
E00000
E00000
E00000
E00000
E00000
E00000
E00000
E00000
E00000
FFFFE0
FFFFE0
FFFFE0
E00000
E00000
E00000
E00000
E00000
E00000
E00000
E00000
E00000
E00000
FFFFF0
FFFFF0
FFFFF0
0000E0
000180
000380
000700
000700
000780
0003F8
0000F8
ENDCHAR
STARTCHAR 0119
ENCODING 281
SWIDTH 565 0
DWIDTH 22 0
BBX 18 27 2 -7
BITMAP
03F000
0FFC00
3FFE00
3C1F00
780780
F00380
E003C0
E003C0
FFFFC0
FFFFC0
FFFFC0
E00000
E00000
E00000
F00380
780780
7C0F00
3FFE00
1FFC00
07FC00
003800
003000
007000
007000
007000
003F80
001F80
ENDCHAR
STARTCHAR 011A
ENCODING 282
SWIDTH 668 0
DWIDTH 26 0
BBX 20 36 4 0
BITMAP
0E0E00
071C00
03B800
03F800
01F000
01E000
000000
000000
FFFFE0
FFFFE0
FFFFE0
E00000
E00000
E00000
E00000
E00000
E00000
E00000
E00000
E00000
FFFFE0
FFFFE0
FFFFE0
E00000
E00000
E00000
E00000
E00000
E00000
E00000
E00000
E00000
E00000
FFFFF0
FFFFF0
FFFFF0
ENDCHAR
STARTCHAR 011B
ENCODING 283
SWIDTH 565 0
DWIDTH 22 0
BBX 18 28 2 0
BITMAP
0C0C00
0E1C00
073800
03F800
03F000
01E000
000000
000000
03F000
0FFC00
3FFE00
3C1F00
780780
F00380
E003C0
E003C0
FFFFC0
FFFFC0
FFFFC0
E00000
E00000
E00000
F00380
780780
7C0F00
3FFE00
1FFC00
07F000
ENDCHAR
STARTCHAR 011C
ENCODING 284
SWIDTH 771 0
DWIDTH 30 0
BBX 26 36 2 0
BITMAP
001E0000
003F0000
003F0000
00738000
00E1C000
00C0C000
00000000
00000000
007F8000
01FFF000
07FFFC00
0FE0FE00
1F003F00
3E000F00
3C000780
78000780
70000780
F0000000
F0000000
F0000000
E0000000
E003FFC0
E003FFC0
E003FFC0
F00003C0
F00003C0
F00003C0
780003C0
780003C0
3C0007C0
3E000FC0
1F001FC0
0FE0F9C0
07FFF1C0
03FFE1C0
007F0000
ENDCHAR
STARTCHAR 011D
ENCODING 285
SWIDTH 565 0
DWIDTH 22 0
BBX 18 36 1 -8
BITMAP
01F000
01F000
03B800
071C00
060C00
0E0600
000000
000000
03F1C0
0FF9C0
1FFDC0
3E1FC0
3807C0
7807C0
7003C0
7003C0
7003C0
F003C0
F003C0
F003C0
7003C0
7003C0
7807C0
3807C0
3E1FC0
1FFFC0
0FFBC0
03E3C0
000380
700380
780380
780780
3C0F00
1FFE00
0FFC00
01E000
ENDCHAR
STARTCHAR 011E
ENCODING 286
SWIDTH 771 0
DWIDTH 30 0
BBX 26 35 2 0
BITMAP
00C06000
00E0E000
00FFE000
007FC000
001F0000
00000000
00000000
007F8000
01FFF000
07FFFC00
0FE0FE00
1F003F00
3E000F00
3C000780
78000780
70000780
F0000000
F0000000
F0000000
E0000000
E003FFC0
E003FFC0
E003FFC0
F00003C0
F00003C0
F00003C0
780003C0
780003C0
3C0007C0
3E000FC0
1F001FC0
0FE0F9C0
07FFF1C0
03FFE1C0
007F0000
ENDCHAR
STARTCHAR 011F
ENCODING 287
SWIDTH 565 0
DWIDTH 22 0
BBX 18 36 1 -8
BITMAP
0C0600
0C0600
0E0E00
0FFC00
07F800
00E000
000000
000000
03F1C0
0FF9C0
1FFDC0
3E1FC0
3807C0
7807C0
7003C0
7003C0
7003C0
F003C0
F003C0
F003C0
7003C0
7003C0
7807C0
3807C0
3E1FC0
1FFFC0
0FFBC0
03E3C0
000380
700380
780380
780780
3C0F00
1FFE00
0FFC00
01E000
ENDCHAR
STARTCHAR 0120
ENCODING 288
SWIDTH 771 0
DWIDTH 30 0
BBX 26 35 2 0
BITMAP
001E0000
001E0000
001E0000
001E0000
00000000
00000000
00000000
007F8000
01FFF000
07FFFC00
0FE0FE00
1F003F00
3E000F00
3C000780
78000780
70000780
F0000000
F0000000
F0000000
E0000000
E003FFC0
E003FFC0
E003FFC0
F00003C0
F00003C0
F00003C0
780003C0
780003C0
3C0007C0
3E000FC0
1F001FC0
0FE0F9C0
07FFF1C0
03FFE1C0
007F0000
ENDCHAR
STARTCHAR 0121
ENCODING 289
SWIDTH 565 0
DWIDTH 22 0
BBX 18 36 1 -8
BITMAP
01E000
01E000
01E000
01E000
000000
000000
000000
000000
03F1C0
0FF9C0
1FFDC0
3E1FC0
3807C0
7807C0
7003C0
7003C0
7003C0
F003C0
F003C0
F003C0
7003C0
7003C0
7807C0
3807C0
3E1FC0
1FFFC0
0FFBC0
03E3C0
000380
700380
780380
780780
3C0F00
1FFE00
0FFC00
01E000
ENDCHAR
STARTCHAR 0122
ENCODING 290
SWIDTH 771 0
DWIDTH 30 0
BBX 26 38 2 -10
BITMAP
007F8000
01FFF000
07FFFC00
0FE0FE00
1F003F00
3E000F00
3C000780
78000780
70000780
F0000000
F0000000
F0000000
E0000000
E003FFC0
E003FFC0
E003FFC0
F00003C0
F00003C0
F00003C0
780003C0
780003C0
3C0007C0
3E000FC0
1F001FC0
0FE0F9C0
07FFF1C0
03FFE1C0
007F0000
00000000
001E0000
001E0000
001E0000
001E0000
00060000
00060000
00060000
001C0000
00180000
ENDCHAR
STARTCHAR 0123
ENCODING 291
SWIDTH 565 0
DWIDTH 22 0
BBX 18 39 1 -8
BITMAP
002000
00E000
00C000
008000
018000
01E000
01E000
01E000
01E000
000000
000000
03F1C0
0FF9C0
1FFDC0
3E1FC0
3807C0
7807C0
7003C0
7003C0
7003C0
F003C0
F003C0
F003C0
7003C0
7003C0
7807C0
3807C0
3E1FC0
1FFFC0
0FFBC0
03E3C0
000380
700380
780380
780780
3C0F00
1FFE00
0FFC00
01E000
ENDCHAR
STARTCHAR 0124
ENCODING 292
SWIDTH 720 0
DWIDTH 28 0
BBX 22 36 3 0
BITMAP
007C00
007C00
00EE00
01C700
018300
030380
000000
000000
F0003C
F0003C
F0003C
F0003C
F0003C
F0003C
F0003C
F0003C
F0003C
F0003C
F0003C
F0003C
FFFFFC
FFFFFC
FFFFFC
F0003C
F0003C
F0003C
F0003C
F0003C
F0003C
F0003C
F0003C
F0003C
F0003C
F0003C
F0003C
F0003C
ENDCHAR
STARTCHAR 0125
ENCODING 293
SWIDTH 565 0
DWIDTH 22 0
BBX 20 36 -1 0
BITMAP
1F0000
3F0000
3B8000
71C000
60C000
C0E000
000000
000000
0E0000
0E0000
0E0000
0E0000
0E0000
0E0000
0E0000
0E0000
0E1F80
0E7FC0
0EFFE0
0FC1F0
0F80F0
0F0070
0E0070
0E0070
0E0070
0E0070
0E0070
0E0070
0E0070
0E0070
0E0070
0E0070
0E0070
0E0070
0E0070
0E0070
ENDCHAR
STARTCHAR 0126
ENCODING 294
SWIDTH 720 0
DWIDTH 28 0
BBX 28 28 0 0
BITMAP
1E000780
1E000780
1E000780
1E000780
1E000780
1E000780
FFFFFFF0
FFFFFFF0
FFFFFFF0
1E000780
1E000780
1E000780
1FFFFF80
1FFFFF80
1FFFFF80
1E000780
1E000780
1E000780
1E000780
1E000780
1E000780
1E000780
1E000780
1E000780
1E000780
1E000780
1E000780
1E000780
ENDCHAR
STARTCHAR 0127
ENCODING 295
SWIDTH 565 0
DWIDTH 22 0
BBX 19 28 0 0
BITMAP
1C0000
1C0000
1C0000
FFFC00
FFFC00
1C0000
1C0000
1C0000
1C3F00
1CFF80
1DFFC0
1F83E0
1F01E0
1E00E0
1C00E0
1C00E0
1C00E0
1C00E0
1C00E0
1C00E0
1C00E0
1C00E0
1C00E0
1C00E0
1C00E0
1C00E0
1C00E0
1C00E0
ENDCHAR
STARTCHAR 0128
ENCODING 296
SWIDTH 282 0
DWIDTH 11 0
BBX 12 35 -1 0
BITMAP
3E30
7FF0
7FF0
E1C0
0000
0000
0000
0780
0780
0780
0780
0780
0780
0780
0780
0780
0780
0780
0780
0780
0780
0780
0780
0780
0780
0780
0780
0780
0780
0780
0780
0780
0780
0780
0780
ENDCHAR
STARTCHAR 0129
ENCODING 297
SWIDTH 282 0
DWIDTH 11 0
BBX 12 28 -1 0
BITMAP
3C30
7FF0
7FF0
E1E0
0000
0000
0000
0000
0700
0700
0700
0700
0700
0700
0700
0700
0700
0700
0700
0700
0700
0700
0700
0700
0700
0700
0700
0700
ENDCHAR
STARTCHAR 012A
ENCODING 298
SWIDTH 282 0
DWIDTH 11 0
BBX 10 35 1 0
BITMAP
FFC0
FFC0
FFC0
0000
0000
0000
0000
1E00
1E00
1E00
1E00
1E00
1E00
1E00
1E00
1E00
1E00
1E00
1E00
1E00
1E00
1E00
1E00
1E00
1E00
1E00
1E00
1E00
1E00
1E00
1E00
1E00
1E00
1E00
1E00
ENDCHAR
STARTCHAR 012B
ENCODING 299
SWIDTH 282 0
DWIDTH 11 0
BBX 9 27 1 0
BITMAP
FF80
FF80
FF80
0000
0000
0000
0000
1C00
1C00
1C00
1C00
1C00
1C00
1C00
1C00
1C00
1C00
1C00
1C00
1C00
1C00
1C00
1C00
1C00
1C00
1C00
1C00
ENDCHAR
STARTCHAR 012C
ENCODING 300
SWIDTH 282 0
DWIDTH 11 0
BBX 11 36 0 0
BITMAP
C060
C060
E0E0
FFC0
7F80
0E00
0000
0000
0E00
0E00
0E00
0E00
0E00
0E00
0E00
0E00
0E00
0E00
0E00
0E00
0E00
0E00
0E00
0E00
0E00
0E00
0E00
0E00
0E00
0E00
0E00
0E00
0E00
0E00
0E00
0E00
ENDCHAR
STARTCHAR 012D
ENCODING 301
SWIDTH 282 0
DWIDTH 11 0
BBX 11 28 0 0
BITMAP
C060
E0E0
FFE0
7FC0
1F00
0000
0000
0000
0E00
0E00
0E00
0E00
0E00
0E00
0E00
0E00
0E00
0E00
0E00
0E00
0E00
0E00
0E00
0E00
0E00
0E00
0E00
0E00
ENDCHAR
STARTCHAR 012E
ENCODING 302
SWIDTH 282 0
DWIDTH 11 0
BBX 6 36 3 -8
BITMAP
78
78
78
78
78
78
78
78
78
78
78
78
78
78
78
78
78
78
78
78
78
78
78
78
78
78
78
78
30
60
E0
C0
C0
E0
FC
7C
ENDCHAR
STARTCHAR 012F
ENCODING 303
SWIDTH 231 0
DWIDTH 9 0
BBX 6 36 1 -8
BITMAP
38
38
38
38
00
00
00
00
38
38
38
38
38
38
38
38
38
38
38
38
38
38
38
38
38
38
38
38
30
70
60
E0
E0
E0
7C
3C
ENDCHAR
STARTCHAR 0130
ENCODING 304
SWIDTH 282 0
DWIDTH 11 0
BBX 4 35 4 0
BITMAP
F0
F0
F0
F0
00
00
00
F0
F0
F0
F0
F0
F0
F0
F0
F0
F0
F0
F0
F0
F0
F0
F0
F0
F0
F0
F0
F0
F0
F0
F0
F0
F0
F0
F0
ENDCHAR
STARTCHAR 0131
ENCODING 305
SWIDTH 282 0
DWIDTH 11 0
BBX 3 20 4 0
BITMAP
E0
E0
E0
E0
E0
E0
E0
E0
E0
E0
E0
E0
E0
E0
E0
E0
E0
E0
E0
E0
ENDCHAR
STARTCHAR 0132
ENCODING 306
SWIDTH 745 0
DWIDTH 29 0
BBX 22 28 4 0
BITMAP
F0003C
F0003C
F0003C
F0003C
F0003C
F0003C
F0003C
F0003C
F0003C
F0003C
F0003C
F0003C
F0003C
F0003C
F0003C
F0003C
F0003C
F0003C
F3803C
F3803C
F3803C
F38038
F3C038
F3C078
F1F0F0
F1FFF0
F0FFE0
F03F80
ENDCHAR
STARTCHAR 0133
ENCODING 307
SWIDTH 437 0
DWIDTH 17 0
BBX 11 37 3 -9
BITMAP
F0E0
F0E0
F0E0
F0E0
0000
0000
0000
0000
F0E0
F0E0
F0E0
F0E0
F0E0
F0E0
F0E0
F0E0
F0E0
F0E0
F0E0
F0E0
F0E0
F0E0
F0E0
F0E0
F0E0
F0E0
F0E0
F0E0
00E0
00E0
00E0
00E0
00E0
01E0
0FE0
0FC0
0F00
ENDCHAR
STARTCHAR 0134
ENCODING 308
SWIDTH 488 0
DWIDTH 19 0
BBX 19 36 1 0
BITMAP
001F00
003F00
003B80
007180
00E1C0
00C0E0
000000
000000
000F00
000F00
000F00
000F00
000F00
000F00
000F00
000F00
000F00
000F00
000F00
000F00
000F00
000F00
000F00
000F00
000F00
000F00
E00F00
E00F00
E00F00
F00F00
F00E00
F01E00
7C3E00
7FFC00
3FF800
0FE000
ENDCHAR
STARTCHAR 0135
ENCODING 309
SWIDTH 231 0
DWIDTH 9 0
BBX 11 37 -1 -9
BITMAP
1E00
3F00
3B80
7380
E1C0
C0E0
0000
0000
0E00
0E00
0E00
0E00
0E00
0E00
0E00
0E00
0E00
0E00
0E00
0E00
0E00
0E00
0E00
0E00
0E00
0E00
0E00
0E00
0E00
0E00
0E00
0E00
0E00
1E00
FE00
FC00
F000
ENDCHAR
STARTCHAR 0136
ENCODING 310
SWIDTH 668 0
DWIDTH 26 0
BBX 22 39 3 -11
BITMAP
F0007C
F000F8
F001F0
F003E0
F007C0
F00F80
F01F00
F03E00
F07C00
F0F800
F1F000
F3E000
F7F000
FFF000
FE7800
FC3C00
F83E00
F01E00
F00F00
F00F80
F00780
F003C0
F003E0
F001E0
F000F0
F00078
F0007C
F0003C
000000
000000
007800
007800
007800
007800
001800
001000
003000
007000
004000
ENDCHAR
STARTCHAR 0137
ENCODING 311
SWIDTH 488 0
DWIDTH 19 0
BBX 17 39 2 -11
BITMAP
E00000
E00000
E00000
E00000
E00000
E00000
E00000
E00000
E00F00
E01E00
E03C00
E07800
E0F000
E1E000
E7C000
EFC000
FFC000
FDE000
F9E000
F0F000
E07800
E07800
E03C00
E01E00
E01E00
E00F00
E00780
E00780
000000
000000
03C000
03C000
03C000
03C000
004000
00C000
00C000
038000
030000
ENDCHAR
STARTCHAR 0138
ENCODING 312
SWIDTH 488 0
DWIDTH 19 0
BBX 15 20 2 0
BITMAP
C00E
C01C
C038
C070
C0E0
C1C0
C380
C700
CE00
DF00
FB80
F380
E1C0
C0E0
C070
C070
C038
C01C
C01C
C00E
ENDCHAR
STARTCHAR 0139
ENCODING 313
SWIDTH 565 0
DWIDTH 22 0
BBX 18 36 3 0
BITMAP
1E0000
3C0000
380000
700000
E00000
C00000
000000
000000
F00000
F00000
F00000
F00000
F00000
F00000
F00000
F00000
F00000
F00000
F00000
F00000
F00000
F00000
F00000
F00000
F00000
F00000
F00000
F00000
F00000
F00000
F00000
F00000
F00000
FFFFC0
FFFFC0
FFFFC0
ENDCHAR
STARTCHAR 013A
ENCODING 314
SWIDTH 231 0
DWIDTH 9 0
BBX 8 36 2 0
BITMAP
0F
1E
3C
38
70
E0
00
00
70
70
70
70
70
70
70
70
70
70
70
70
70
70
70
70
70
70
70
70
70
70
70
70
70
70
70
70
ENDCHAR
STARTCHAR 013B
ENCODING 315
SWIDTH 565 0
DWIDTH 22 0
BBX 18 39 3 -11
BITMAP
F00000
F00000
F00000
F00000
F00000
F00000
F00000
F00000
F00000
F00000
F00000
F00000
F00000
F00000
F00000
F00000
F00000
F00000
F00000
F00000
F00000
F00000
F00000
F00000
F00000
FFFFC0
FFFFC0
FFFFC0
000000
000000
01E000
01E000
01E000
01E000
006000
006000
004000
01C000
018000
ENDCHAR
STARTCHAR 013C
ENCODING 316
SWIDTH 231 0
DWIDTH 9 0
BBX 4 39 2 -11
BITMAP
70
70
70
70
70
70
70
70
70
70
70
70
70
70
70
70
70
70
70
70
70
70
70
70
70
70
70
70
00
00
F0
F0
F0
F0
10
30
30
E0
C0
ENDCHAR
STARTCHAR 013D
ENCODING 317
SWIDTH 565 0
DWIDTH 22 0
BBX 18 28 3 0
BITMAP
F0F000
F0F000
F0F000
F0F000
F02000
F02000
F06000
F0C000
F00000
F00000
F00000
F00000
F00000
F00000
F00000
F00000
F00000
F00000
F00000
F00000
F00000
F00000
F00000
F00000
F00000
FFFFC0
FFFFC0
FFFFC0
ENDCHAR
STARTCHAR 013E
ENCODING 318
SWIDTH 308 0
DWIDTH 12 0
BBX 9 28 3 0
BITMAP
E780
E780
E780
E780
E180
E180
E100
E700
E400
E000
E000
E000
E000
E000
E000
E000
E000
E000
E000
E000
E000
E000
E000
E000
E000
E000
E000
E000
ENDCHAR
STARTCHAR 013F
ENCODING 319
SWIDTH 565 0
DWIDTH 22 0
BBX 18 28 3 0
BITMAP
F00000
F00000
F00000
F00000
F00000
F00000
F00000
F00000
F00000
F00000
F00000
F00000
F03C00
F03C00
F03C00
F03C00
F00000
F00000
F00000
F00000
F00000
F00000
F00000
F00000
F00000
FFFFC0
FFFFC0
FFFFC0
ENDCHAR
STARTCHAR 0140
ENCODING 320
SWIDTH 334 0
DWIDTH 13 0
BBX 10 28 3 0
BITMAP
E000
E000
E000
E000
E000
E000
E000
E000
E000
E000
E000
E000
E3C0
E3C0
E3C0
E3C0
E000
E000
E000
E000
E000
E000
E000
E000
E000
E000
E000
E000
ENDCHAR
STARTCHAR 0141
ENCODING 321
SWIDTH 565 0
DWIDTH 22 0
BBX 21 28 0 0
BITMAP
1E0000
1E0000
1E0000
1E0000
1E0000
1E0000
1E0000
1E0000
1E0800
1E1800
1E7800
1EF000
1FE000
1F8000
1F0000
7E0000
FE0000
FE0000
9E0000
1E0000
1E0000
1E0000
1E0000
1E0000
1E0000
1FFFF8
1FFFF8
1FFFF8
ENDCHAR
STARTCHAR 0142
ENCODING 322
SWIDTH 231 0
DWIDTH 9 0
BBX 8 28 0 0
BITMAP
3C
3C
3C
3C
3C
3C
3C
3C
3C
3C
3D
3F
3F
3E
7C
FC
FC
BC
3C
3C
3C
3C
3C
3C
3C
3C
3C
3C
ENDCHAR
STARTCHAR 0143
ENCODING 323
SWIDTH 720 0
DWIDTH 28 0
BBX 22 36 3 0
BITMAP
000F00
001E00
003C00
003800
007000
00E000
000000
000000
F0001C
F8001C
FC001C
FC001C
FE001C
FE001C
EF001C
E7801C
E7801C
E3C01C
E1E01C
E1E01C
E0F01C
E0781C
E0781C
E03C1C
E01E1C
E01E1C
E00F1C
E0079C
E0079C
E003DC
E003DC
E001FC
E000FC
E000FC
E0007C
E0003C
ENDCHAR
STARTCHAR 0144
ENCODING 324
SWIDTH 565 0
DWIDTH 22 0
BBX 16 28 3 0
BITMAP
0078
00F0
01E0
01C0
0380
0700
0000
0000
E3F0
EFFC
FFFE
FC1F
F80F
F007
E007
E007
E007
E007
E007
E007
E007
E007
E007
E007
E007
E007
E007
E007
ENDCHAR
STARTCHAR 0145
ENCODING 325
SWIDTH 720 0
DWIDTH 28 0
BBX 22 39 3 -11
BITMAP
F0001C
F8001C
FC001C
FC001C
FE001C
FE001C
EF001C
E7801C
E7801C
E3C01C
E1E01C
E1E01C
E0F01C
E0781C
E0781C
E03C1C
E01E1C
E01E1C
E00F1C
E0079C
E0079C
E003DC
E003DC
E001FC
E000FC
E000FC
E0007C
E0003C
000000
000000
007000
007000
007000
007000
001000
001000
003000
006000
004000
ENDCHAR
STARTCHAR 0146
ENCODING 326
SWIDTH 565 0
DWIDTH 22 0
BBX 16 31 3 -10
BITMAP
E3F0
EFFC
FFFE
FC1F
F80F
F007
E007
E007
E007
E007
E007
E007
E007
E007
E007
E007
E007
E007
E007
E007
0000
0000
03C0
03C0
03C0
03C0
00C0
00C0
0080
0380
0300
ENDCHAR
STARTCHAR 0147
ENCODING 327
SWIDTH 720 0
DWIDTH 28 0
BBX 22 36 3 0
BITMAP
038300
018700
01CE00
00FC00
00FC00
007800
000000
000000
F0001C
F8001C
FC001C
FC001C
FE001C
FE001C
EF001C
E7801C
E7801C
E3C01C
E1E01C
E1E01C
E0F01C
E0781C
E0781C
E03C1C
E01E1C
E01E1C
E00F1C
E0079C
E0079C
E003DC
E003DC
E001FC
E000FC
E000FC
E0007C
E0003C
ENDCHAR
STARTCHAR 0148
ENCODING 328
SWIDTH 565 0
DWIDTH 22 0
BBX 16 28 3 0
BITMAP
1838
1C30
0E70
07E0
07C0
03C0
0000
0000
E3F0
EFFC
FFFE
FC1F
F80F
F007
E007
E007
E007
E007
E007
E007
E007
E007
E007
E007
E007
E007
E007
E007
ENDCHAR
STARTCHAR 0149
ENCODING 329
SWIDTH 591 0
DWIDTH 23 0
BBX 21 29 0 0
BITMAP
F00000
F00000
F00000
F00000
100000
300000
300000
E00000
C00000
073F80
077FE0
07FFF0
07E0F8
078078
078078
070038
070038
070038
070038
070038
070038
070038
070038
070038
070038
070038
070038
070038
070038
ENDCHAR
STARTCHAR 014A
ENCODING 330
SWIDTH 720 0
DWIDTH 28 0
BBX 21 39 4 -11
BITMAP
007E00
E1FF80
E3FFE0
EF87F0
EE01F0
FC00F0
F80078
F00078
F00078
F00078
E00078
E00078
E00078
E00078
E00078
E00078
E00078
E00078
E00078
E00078
E00078
E00078
E00078
E00078
E00078
E00078
E00078
E00078
000078
000078
000078
000078
000078
000078
000078
0000F0
000FF0
000FE0
000FC0
ENDCHAR
STARTCHAR 014B
ENCODING 331
SWIDTH 565 0
DWIDTH 22 0
BBX 16 29 3 -9
BITMAP
E1F0
E7FC
EFFE
FC1F
F80F
F007
E007
E007
E007
E007
E007
E007
E007
E007
E007
E007
E007
E007
E007
E007
0007
0007
0007
0007
0007
000F
007F
007E
0078
ENDCHAR
STARTCHAR 014C
ENCODING 332
SWIDTH 771 0
DWIDTH 30 0
BBX 28 34 1 0
BITMAP
007FE000
007FE000
007FE000
00000000
00000000
00000000
003FC000
00FFF800
03FFFE00
07F07F00
0F801F80
1F000780
3E0003C0
3C0003E0
780001E0
780001E0
780000F0
700000F0
700000F0
F00000F0
F00000F0
700000F0
700000F0
780000F0
780000E0
780001E0
3C0001C0
3E0003C0
1F000780
0F801F80
07F07F00
03FFFC00
01FFF800
003FC000
ENDCHAR
STARTCHAR 014D
ENCODING 333
SWIDTH 565 0
DWIDTH 22 0
BBX 19 26 1 0
BITMAP
0FFE00
0FFE00
0FFE00
000000
000000
000000
03F800
0FFE00
1FFF00
3E0F80
3C03C0
7803C0
7001C0
7001E0
7001E0
F001E0
F001E0
F001E0
7001E0
7001C0
7803C0
3C03C0
3E0F80
1FFF00
0FFE00
03F800
ENDCHAR
STARTCHAR 014E
ENCODING 334
SWIDTH 771 0
DWIDTH 30 0
BBX 28 35 1 0
BITMAP
00E03000
00E07000
007FE000
003FC000
001F8000
00000000
00000000
003FC000
00FFF800
03FFFE00
07F07F00
0F801F80
1F000780
3E0003C0
3C0003E0
780001E0
780001E0
780000F0
700000F0
700000F0
F00000F0
F00000F0
700000F0
700000F0
780000F0
780000E0
780001E0
3C0001C0
3E0003C0
1F000780
0F801F80
07F07F00
03FFFC00
01FFF800
003FC000
ENDCHAR
STARTCHAR 014F
ENCODING 335
SWIDTH 565 0
DWIDTH 22 0
BBX 19 28 1 0
BITMAP
0C0600
0E0600
0F0E00
07FC00
03F800
00E000
000000
000000
03F800
0FFE00
1FFF00
3E0F80
3C03C0
7803C0
7001C0
7001E0
7001E0
F001E0
F001E0
F001E0
7001E0
7001C0
7803C0
3C03C0
3E0F80
1FFF00
0FFE00
03F800
ENDCHAR
STARTCHAR 0150
ENCODING 336
SWIDTH 771 0
DWIDTH 30 0
BBX 28 36 1 0
BITMAP
00078F00
000F1E00
000E1C00
001C3800
00387000
00306000
00000000
00000000
003FC000
00FFF800
03FFFE00
07F07F00
0F801F80
1F000780
3E0003C0
3C0003E0
780001E0
780001E0
780000F0
700000F0
700000F0
F00000F0
F00000F0
700000F0
700000F0
780000F0
780000E0
780001E0
3C0001C0
3E0003C0
1F000780
0F801F80
07F07F00
03FFFC00
01FFF800
003FC000
ENDCHAR
STARTCHAR 0151
ENCODING 337
SWIDTH 565 0
DWIDTH 22 0
BBX 19 28 1 0
BITMAP
00F1E0
01E3C0
01C380
038700
070E00
060C00
000000
000000
03F800
0FFE00
1FFF00
3E0F80
3C03C0
7803C0
7001C0
7001E0
7001E0
F001E0
F001E0
F001E0
7001E0
7001C0
7803C0
3C03C0
3E0F80
1FFF00
0FFE00
03F800
ENDCHAR
STARTCHAR 0152
ENCODING 338
SWIDTH 1002 0
DWIDTH 39 0
BBX 35 28 2 0
BITMAP
00FE3FFFE0
03FFBFFFE0
0FFFFFFFE0
1F83FC0000
3E00FC0000
3C007C0000
78003C0000
70003C0000
F0003C0000
F0003C0000
F0003C0000
E0003C0000
E0003FFFE0
E0003FFFE0
E0003FFFE0
E0003C0000
E0003C0000
F0003C0000
F0003C0000
F0003C0000
70003C0000
78003C0000
3C007C0000
3E00FC0000
1F83FC0000
0FFFBFFFE0
07FF3FFFE0
00FC3FFFE0
ENDCHAR
STARTCHAR 0153
ENCODING 339
SWIDTH 951 0
DWIDTH 37 0
BBX 33 20 2 0
BITMAP
07F007E000
1FFC1FF800
3FFE3FFC00
7C1F783E00
7807F00F00
F003E00700
F003C00780
E003C00780
E003FFFF80
E001FFFF80
E001FFFF80
E001C00000
E003C00000
F003C00000
F003E00700
7807F00F00
7C1F781E00
3FFE7FFC00
1FFC1FF800
07F007E000
ENDCHAR
STARTCHAR 0154
ENCODING 340
SWIDTH 720 0
DWIDTH 28 0
BBX 22 36 4 0
BITMAP
003E00
003C00
007800
007000
00E000
01C000
000000
000000
FFFF00
FFFFE0
FFFFF0
E001F0
E000F8
E00078
E00078
E00038
E00038
E00078
E00078
E000F0
E001E0
FFFFC0
FFFF80
FFFFE0
E001F0
E000F0
E00078
E00078
E00078
E00078
E00078
E00078
E00078
E00078
E0003C
E0003C
ENDCHAR
STARTCHAR 0155
ENCODING 341
SWIDTH 334 0
DWIDTH 13 0
BBX 9 28 3 0
BITMAP
0780
0F00
0E00
1C00
3800
3000
0000
0000
E380
E780
EF80
FC00
F000
F000
E000
E000
E000
E000
E000
E000
E000
E000
E000
E000
E000
E000
E000
E000
ENDCHAR
STARTCHAR 0156
ENCODING 342
SWIDTH 720 0
DWIDTH 28 0
BBX 22 39 4 -11
BITMAP
FFFF00
FFFFE0
FFFFF0
E001F0
E000F8
E00078
E00078
E00038
E00038
E00078
E00078
E000F0
E001E0
FFFFC0
FFFF80
FFFFE0
E001F0
E000F0
E00078
E00078
E00078
E00078
E00078
E00078
E00078
E00078
E0003C
E0003C
000000
000000
00F000
00F000
00F000
00F000
001000
003000
003000
00E000
00C000
ENDCHAR
STARTCHAR 0157
ENCODING 343
SWIDTH 334 0
DWIDTH 13 0
BBX 9 31 3 -11
BITMAP
E380
E780
EF80
FC00
F000
F000
E000
E000
E000
E000
E000
E000
E000
E000
E000
E000
E000
E000
E000
E000
0000
0000
E000
E000
E000
E000
2000
2000
6000
C000
8000
ENDCHAR
STARTCHAR 0158
ENCODING 344
SWIDTH 720 0
DWIDTH 28 0
BBX 22 36 4 0
BITMAP
060E00
070C00
039C00
01F800
01F000
00F000
000000
000000
FFFF00
FFFFE0
FFFFF0
E001F0
E000F8
E00078
E00078
E00038
E00038
E00078
E00078
E000F0
E001E0
FFFFC0
FFFF80
FFFFE0
E001F0
E000F0
E00078
E00078
E00078
E00078
E00078
E00078
E00078
E00078
E0003C
E0003C
ENDCHAR
STARTCHAR 0159
ENCODING 345
SWIDTH 334 0
DWIDTH 13 0
BBX 11 28 2 0
BITMAP
E0E0
71C0
3B80
3B80
1F00
0E00
0000
0000
71C0
73C0
77C0
7E00
7800
7800
7000
7000
7000
7000
7000
7000
7000
7000
7000
7000
7000
7000
7000
7000
ENDCHAR
STARTCHAR 015A
ENCODING 346
SWIDTH 668 0
DWIDTH 26 0
BBX 22 36 2 0
BITMAP
000F00
001E00
001C00
003800
007000
006000
000000
000000
01FE00
0FFF80
1FFFE0
3F03F0
3C00F0
780078
700078
700038
780000
780000
7E0000
3FC000
1FFC00
0FFF80
00FFE0
000FF8
0001F8
00007C
00003C
E0003C
F0001C
F0003C
78003C
7C0078
3F01F0
1FFFE0
0FFFC0
01FE00
ENDCHAR
STARTCHAR 015B
ENCODING 347
SWIDTH 488 0
DWIDTH 19 0
BBX 17 28 1 0
BITMAP
007C00
007800
00F000
01E000
01C000
038000
000000
000000
07F000
1FFC00
3FFE00
7C1F00
780F00
700700
700000
7C0000
3F8000
1FF800
07FE00
007F00
000780
000780
F00780
700780
7C0F00
3FFE00
1FFC00
07F000
ENDCHAR
STARTCHAR 015C
ENCODING 348
SWIDTH 668 0
DWIDTH 26 0
BBX 22 36 2 0
BITMAP
007800
00F800
00FC00
01CE00
038600
030700
000000
000000
01FE00
0FFF80
1FFFE0
3F03F0
3C00F0
780078
700078
700038
780000
780000
7E0000
3FC000
1FFC00
0FFF80
00FFE0
000FF8
0001F8
00007C
00003C
E0003C
F0001C
F0003C
78003C
7C0078
3F01F0
1FFFE0
0FFFC0
01FE00
ENDCHAR
STARTCHAR 015D
ENCODING 349
SWIDTH 488 0
DWIDTH 19 0
BBX 17 28 1 0
BITMAP
01E000
03E000
077000
073800
0E1800
1C1C00
000000
000000
07F000
1FFC00
3FFE00
7C1F00
780F00
700700
700000
7C0000
3F8000
1FF800
07FE00
007F00
000780
000780
F00780
700780
7C0F00
3FFE00
1FFC00
07F000
ENDCHAR
STARTCHAR 015E
ENCODING 350
SWIDTH 668 0
DWIDTH 26 0
BBX 22 37 2 -9
BITMAP
01FE00
07FF80
1FFFE0
3F03F0
3C00F0
780078
780078
700038
780038
780000
7C0000
3F0000
3FF000
0FFF00
03FFC0
003FF0
0007F8
0000FC
00003C
E0003C
F0001C
F0001C
F0003C
78003C
7C0078
3F01F8
1FFFF0
0FFFC0
03FF00
006000
007000
007C00
000E00
000E00
071C00
03FC00
006000
ENDCHAR
STARTCHAR 015F
ENCODING 351
SWIDTH 488 0
DWIDTH 19 0
BBX 17 29 1 -9
BITMAP
07F000
1FFC00
3FFE00
7C1F00
780F00
700700
700000
780000
7E0000
3FF000
0FFC00
01FF00
001F00
000780
F00780
F00780
780780
7C0F00
3FFE00
1FFC00
07F000
010000
03E000
03F000
007000
007000
187000
1FE000
030000
ENDCHAR
STARTCHAR 0160
ENCODING 352
SWIDTH 668 0
DWIDTH 26 0
BBX 22 36 2 0
BITMAP
070300
038700
01CE00
01FC00
00FC00
007800
000000
000000
01FE00
0FFF80
1FFFE0
3F03F0
3C00F0
780078
700078
700038
780000
780000
7E0000
3FC000
1FFC00
0FFF80
00FFE0
000FF8
0001F8
00007C
00003C
E0003C
F0001C
F0003C
78003C
7C0078
3F01F0
1FFFE0
0FFFC0
01FE00
ENDCHAR
STARTCHAR 0161
ENCODING 353
SWIDTH 488 0
DWIDTH 19 0
BBX 17 28 1 0
BITMAP
1C1C00
0E3800
073800
077000
03E000
03E000
000000
000000
07F000
1FFC00
3FFE00
7C1F00
780F00
700700
700000
7C0000
3F8000
1FF800
07FE00
007F00
000780
000780
F00780
700780
7C0F00
3FFE00
1FFC00
07F000
ENDCHAR
STARTCHAR 0162
ENCODING 354
SWIDTH 617 0
DWIDTH 24 0
BBX 22 37 1 -9
BITMAP
FFFFFC
FFFFFC
FFFFFC
007800
007800
007800
007800
007800
007800
007800
007800
007800
007800
007800
007800
007800
007800
007800
007800
007800
007800
007800
007800
007800
007800
007800
007800
007800
001000
003000
003C00
007E00
000700
000700
038E00
01FE00
003000
ENDCHAR
STARTCHAR 0163
ENCODING 355
SWIDTH 282 0
DWIDTH 11 0
BBX 9 34 1 -8
BITMAP
3C00
3C00
3C00
3C00
3C00
3C00
FF80
FF80
FF80
3C00
3C00
3C00
3C00
3C00
3C00
3C00
3C00
3C00
3C00
3C00
3C00
3C00
3C00
3F80
1F80
0F80
0800
1F00
1F80
0380
0380
C380
FF00
1800
ENDCHAR
STARTCHAR 0164
ENCODING 356
SWIDTH 617 0
DWIDTH 24 0
BBX 22 36 1 0
BITMAP
030700
038600
01CE00
00FC00
00FC00
007800
000000
000000
FFFFFC
FFFFFC
FFFFFC
007800
007800
007800
007800
007800
007800
007800
007800
007800
007800
007800
007800
007800
007800
007800
007800
007800
007800
007800
007800
007800
007800
007800
007800
007800
ENDCHAR
STARTCHAR 0165
ENCODING 357
SWIDTH 308 0
DWIDTH 12 0
BBX 11 31 1 0
BITMAP
00E0
00E0
00E0
00E0
0020
3C20
3C60
3CE0
3C80
3C00
3C00
FF80
FF80
FF80
3C00
3C00
3C00
3C00
3C00
3C00
3C00
3C00
3C00
3C00
3C00
3C00
3C00
3C00
3F80
1F80
0F80
ENDCHAR
STARTCHAR 0166
ENCODING 358
SWIDTH 617 0
DWIDTH 24 0
BBX 22 28 1 0
BITMAP
FFFFFC
FFFFFC
FFFFFC
007800
007800
007800
007800
007800
007800
007800
1FFFE0
1FFFE0
1FFFE0
007800
007800
007800
007800
007800
007800
007800
007800
007800
007800
007800
007800
007800
007800
007800
ENDCHAR
STARTCHAR 0167
ENCODING 359
SWIDTH 282 0
DWIDTH 11 0
BBX 9 26 1 0
BITMAP
3C00
3C00
3C00
3C00
3C00
3C00
FF80
FF80
FF80
3C00
3C00
3C00
FF00
FF00
3C00
3C00
3C00
3C00
3C00
3C00
3C00
3C00
3C00
3F80
1F80
0F80
ENDCHAR
STARTCHAR 0168
ENCODING 360
SWIDTH 720 0
DWIDTH 28 0
BBX 22 35 3 0
BITMAP
01E380
03FF80
07FF00
060E00
000000
000000
000000
F0003C
F0003C
F0003C
F0003C
F0003C
F0003C
F0003C
F0003C
F0003C
F0003C
F0003C
F0003C
F0003C
F0003C
F0003C
F0003C
F0003C
F0003C
F0003C
F0003C
F0003C
70003C
780078
7C00F8
3F83F0
1FFFE0
07FFC0
01FE00
ENDCHAR
STARTCHAR 0169
ENCODING 361
SWIDTH 565 0
DWIDTH 22 0
BBX 16 28 3 -1
BITMAP
1E1C
3FF8
3FF8
30F0
0000
0000
0000
0000
E007
E007
E007
E007
E007
E007
E007
E007
E007
E007
E007
E007
E00F
E00F
E00F
E01F
F03F
FFFF
7FF7
1FE7
ENDCHAR
STARTCHAR 016A
ENCODING 362
SWIDTH 720 0
DWIDTH 28 0
BBX 22 35 3 0
BITMAP
03FF80
03FF80
03FF80
000000
000000
000000
000000
F0003C
F0003C
F0003C
F0003C
F0003C
F0003C
F0003C
F0003C
F0003C
F0003C
F0003C
F0003C
F0003C
F0003C
F0003C
F0003C
F0003C
F0003C
F0003C
F0003C
F0003C
70003C
780078
7C00F8
3F83F0
1FFFE0
07FFC0
01FE00
ENDCHAR
STARTCHAR 016B
ENCODING 363
SWIDTH 565 0
DWIDTH 22 0
BBX 16 27 3 -1
BITMAP
3FF8
3FF8
3FF8
0000
0000
0000
0000
E007
E007
E007
E007
E007
E007
E007
E007
E007
E007
E007
E007
E00F
E00F
E00F
E01F
F03F
FFFF
7FF7
1FE7
ENDCHAR
STARTCHAR 016C
ENCODING 364
SWIDTH 720 0
DWIDTH 28 0
BBX 22 36 3 0
BITMAP
060180
070380
078700
03FF00
01FE00
007000
000000
000000
F0003C
F0003C
F0003C
F0003C
F0003C
F0003C
F0003C
F0003C
F0003C
F0003C
F0003C
F0003C
F0003C
F0003C
F0003C
F0003C
F0003C
F0003C
F0003C
F0003C
F0003C
70003C
780078
7C00F8
3F83F0
1FFFE0
07FFC0
01FE00
ENDCHAR
STARTCHAR 016D
ENCODING 365
SWIDTH 565 0
DWIDTH 22 0
BBX 16 28 3 -1
BITMAP
301C
3818
1FF8
1FF0
07E0
0000
0000
0000
E007
E007
E007
E007
E007
E007
E007
E007
E007
E007
E007
E007
E00F
E00F
E00F
E01F
F03F
FFFF
7FF7
1FE7
ENDCHAR
STARTCHAR 016E
ENCODING 366
SWIDTH 720 0
DWIDTH 28 0
BBX 22 37 3 0
BITMAP
003000
007C00
00CC00
00C600
00C400
00FC00
007800
000000
000000
F0003C
F0003C
F0003C
F0003C
F0003C
F0003C
F0003C
F0003C
F0003C
F0003C
F0003C
F0003C
F0003C
F0003C
F0003C
F0003C
F0003C
F0003C
F0003C
F0003C
F0003C
70003C
780078
7C00F8
3F83F0
1FFFE0
07FFC0
01FE00
ENDCHAR
STARTCHAR 016F
ENCODING 367
SWIDTH 565 0
DWIDTH 22 0
BBX 16 29 3 -1
BITMAP
0380
07E0
0C60
0C60
0C60
07C0
0380
0000
0000
E007
E007
E007
E007
E007
E007
E007
E007
E007
E007
E007
E007
E00F
E00F
E00F
E01F
F03F
FFFF
7FF7
1FE7
ENDCHAR
STARTCHAR 0170
ENCODING 368
SWIDTH 720 0
DWIDTH 28 0
BBX 22 36 3 0
BITMAP
007CF0
0079E0
00F1C0
01E380
01C300
038600
000000
000000
F0003C
F0003C
F0003C
F0003C
F0003C
F0003C
F0003C
F0003C
F0003C
F0003C
F0003C
F0003C
F0003C
F0003C
F0003C
F0003C
F0003C
F0003C
F0003C
F0003C
F0003C
70003C
780078
7C00F8
3F83F0
1FFFE0
07FFC0
01FE00
ENDCHAR
STARTCHAR 0171
ENCODING 369
SWIDTH 565 0
DWIDTH 22 0
BBX 17 28 3 -1
BITMAP
03C780
078F00
070E00
0E1C00
1C3800
183000
000000
000000
E00700
E00700
E00700
E00700
E00700
E00700
E00700
E00700
E00700
E00700
E00700
E00700
E00F00
E00F00
E00F00
E01F00
F03F00
FFFF00
7FF700
1FE700
ENDCHAR
STARTCHAR 0172
ENCODING 370
SWIDTH 720 0
DWIDTH 28 0
BBX 22 35 3 -7
BITMAP
F0003C
F0003C
F0003C
F0003C
F0003C
F0003C
F0003C
F0003C
F0003C
F0003C
F0003C
F0003C
F0003C
F0003C
F0003C
F0003C
F0003C
F0003C
F0003C
F0003C
F0003C
70003C
78007C
7C00F8
3F83F8
1FFFF0
07FFE0
01FFC0
000380
000700
000E00
000E00
000F00
0007F0
0001F0
ENDCHAR
STARTCHAR 0173
ENCODING 371
SWIDTH 565 0
DWIDTH 22 0
BBX 17 27 3 -7
BITMAP
E00700
E00700
E00700
E00700
E00700
E00700
E00700
E00700
E00700
E00700
E00700
E00F00
E00F00
E00F00
E00F00
E01F00
F03F00
FFF700
7FE700
1F8700
000600
001C00
003800
003800
003800
001F80
000F80
ENDCHAR
STARTCHAR 0174
ENCODING 372
SWIDTH 951 0
DWIDTH 37 0
BBX 35 36 1 0
BITMAP
0001F00000
0003F00000
0003B80000
0007180000
000E1C0000
000C0E0000
0000000000
0000000000
F001F001E0
F001F001E0
F001F001C0
7801F003C0
7803F803C0
7803B803C0
3803B80380
3C07BC0780
3C073C0780
3C071C0780
1C071C0700
1E0F1E0F00
1E0E0E0F00
1E0E0E0F00
0E1E0F0E00
0F1E0F0E00
0F1C071E00
0F1C071E00
073C079C00
0738039C00
07B803BC00
07B803FC00
03F803F800
03F001F800
03F001F800
03F001F800
01F000F000
01E000F000
ENDCHAR
STARTCHAR 0175
ENCODING 373
SWIDTH 720 0
DWIDTH 28 0
BBX 27 28 0 0
BITMAP
000F0000
001F8000
003B8000
0039C000
0070E000
00E06000
00000000
00000000
F00F00E0
701F01E0
701F01E0
781F81C0
381F81C0
383B83C0
3C3BC3C0
3C39C380
1C39C380
1C71C780
1E71E700
0E70E700
0E70E700
0EE0EE00
0FE0FE00
07E07E00
07E07E00
07C07C00
03C07C00
03C03C00
ENDCHAR
STARTCHAR 0176
ENCODING 374
SWIDTH 668 0
DWIDTH 26 0
BBX 24 36 1 0
BITMAP
003E00
007E00
007700
00E380
00C180
0181C0
000000
000000
F0000F
F8000F
7C001E
3C003E
3E003C
1E0078
0F0078
0F80F0
0781E0
03C1E0
03C3C0
01E3C0
00F780
00FF00
007F00
007E00
003C00
003C00
003C00
003C00
003C00
003C00
003C00
003C00
003C00
003C00
003C00
003C00
ENDCHAR
STARTCHAR 0177
ENCODING 375
SWIDTH 488 0
DWIDTH 19 0
BBX 17 36 1 -8
BITMAP
01E000
03F000
077000
063800
0E1C00
1C0C00
000000
000000
E00380
F00380
700780
700700
780F00
380F00
380E00
3C1E00
1C1C00
1C1C00
1E3C00
0E3800
0E3800
0F7000
077000
07F000
07E000
03E000
03E000
03C000
03C000
038000
038000
078000
070000
7F0000
7E0000
7C0000
ENDCHAR
STARTCHAR 0178
ENCODING 376
SWIDTH 668 0
DWIDTH 26 0
BBX 24 35 1 0
BITMAP
01E780
01E780
01E780
01E780
000000
000000
000000
F0000F
F8000F
7C001E
3C003E
3E003C
1E0078
0F0078
0F80F0
0781E0
03C1E0
03C3C0
01E3C0
00F780
00FF00
007F00
007E00
003C00
003C00
003C00
003C00
003C00
003C00
003C00
003C00
003C00
003C00
003C00
003C00
ENDCHAR
STARTCHAR 0179
ENCODING 377
SWIDTH 617 0
DWIDTH 24 0
BBX 22 36 1 0
BITMAP
000F00
001E00
001C00
003800
007000
006000
000000
000000
7FFFFC
7FFFFC
7FFFFC
000078
0000F8
0001F0
0001E0
0003C0
000780
000F80
001F00
001E00
003C00
007C00
00F800
01F000
01E000
03C000
07C000
0F8000
1F0000
1E0000
3C0000
7C0000
F80000
FFFFFC
FFFFFC
FFFFFC
ENDCHAR
STARTCHAR 017A
ENCODING 378
SWIDTH 488 0
DWIDTH 19 0
BBX 17 28 1 0
BITMAP
007C00
007800
00F000
01E000
018000
030000
000000
000000
7FFF00
7FFF00
7FFF00
000F00
001E00
003C00
007800
00F000
00E000
01E000
03C000
078000
0F0000
1E0000
3C0000
3C0000
780000
FFFF80
FFFF80
FFFF80
ENDCHAR
STARTCHAR 017B
ENCODING 379
SWIDTH 617 0
DWIDTH 24 0
BBX 22 35 1 0
BITMAP
007800
007800
007800
007800
000000
000000
000000
7FFFFC
7FFFFC
7FFFFC
000078
0000F8
0001F0
0001E0
0003C0
000780
000F80
001F00
001E00
003C00
007C00
00F800
01F000
01E000
03C000
07C000
0F8000
1F0000
1E0000
3C0000
7C0000
F80000
FFFFFC
FFFFFC
FFFFFC
ENDCHAR
STARTCHAR 017C
ENCODING 380
SWIDTH 488 0
DWIDTH 19 0
BBX 17 28 1 0
BITMAP
01E000
01E000
01E000
01E000
000000
000000
000000
000000
7FFF00
7FFF00
7FFF00
000F00
001E00
003C00
007800
00F000
00E000
01E000
03C000
078000
0F0000
1E0000
3C0000
3C0000
780000
FFFF80
FFFF80
FFFF80
ENDCHAR
STARTCHAR 017D
ENCODING 381
SWIDTH 617 0
DWIDTH 24 0
BBX 22 36 1 0
BITMAP
038380
01C700
00EE00
00FE00
007C00
007800
000000
000000
7FFFFC
7FFFFC
7FFFFC
000078
0000F8
0001F0
0001E0
0003C0
000780
000F80
001F00
001E00
003C00
007C00
00F800
01F000
01E000
03C000
07C000
0F8000
1F0000
1E0000
3C0000
7C0000
F80000
FFFFFC
FFFFFC
FFFFFC
ENDCHAR
STARTCHAR 017E
ENCODING 382
SWIDTH 488 0
DWIDTH 19 0
BBX 17 28 1 0
BITMAP
1C1C00
0E1800
073800
03F000
03E000
01E000
000000
000000
7FFF00
7FFF00
7FFF00
000F00
001E00
003C00
007800
00F000
00E000
01E000
03C000
078000
0F0000
1E0000
3C0000
3C0000
780000
FFFF80
FFFF80
FFFF80
ENDCHAR
STARTCHAR 017F
ENCODING 383
SWIDTH 231 0
DWIDTH 9 0
BBX 9 28 0 0
BITMAP
0780
1F80
1F80
3C00
3C00
3C00
3C00
3C00
FC00
FC00
FC00
3C00
3C00
3C00
3C00
3C00
3C00
3C00
3C00
3C00
3C00
3C00
3C00
3C00
3C00
3C00
3C00
3C00
ENDCHAR
STARTCHAR 0192
ENCODING 402
SWIDTH 565 0
DWIDTH 22 0
BBX 21 36 0 -8
BITMAP
0000F8
0003F8
0007F0
000F90
000E00
001E00
001E00
001C00
001C00
003C00
07FFC0
07FFC0
07FFC0
003800
003800
007800
007800
007000
007000
007000
00F000
00F000
00E000
00E000
00E000
01E000
01E000
01C000
01C000
01C000
03C000
038000
078000
7F0000
7E0000
F80000
ENDCHAR
STARTCHAR 01FA
ENCODING 506
SWIDTH 668 0
DWIDTH 26 0
BBX 24 41 1 0
BITMAP
007C00
007000
00E000
01C000
019800
007E00
006600
004200
006600
007E00
003C00
000000
000000
003E00
007E00
007E00
00FF00
00FF00
00F700
01E780
01E780
01C380
03C3C0
03C3C0
0381E0
0781E0
0781E0
0700F0
0F00F0
0F00F0
1FFFF8
1FFFF8
1FFFF8
3C003C
3C003C
3C003C
78001E
78001E
70001F
F0000F
F0000F
ENDCHAR
STARTCHAR 01FB
ENCODING 507
SWIDTH 565 0
DWIDTH 22 0
BBX 19 34 2 0
BITMAP
01E000
03C000
078000
070000
0E0000
00C000
03E000
033000
063000
061000
033000
03E000
00C000
000000
07F800
1FFE00
3FFF00
7C0F00
700700
700700
000700
000700
007F00
1FFF00
7FE700
F80700
F00700
E00700
E00700
E00F00
F03F80
7FFFE0
7FE3E0
1F83E0
ENDCHAR
STARTCHAR 01FC
ENCODING 508
SWIDTH 1002 0
DWIDTH 39 0
BBX 36 36 1 0
BITMAP
000003E000
0000038000
0000070000
00000E0000
00000C0000
0000180000
0000000000
0000000000
001FFFFFE0
003FFFFFE0
003FFFFFE0
0038780000
0078780000
0070780000
00F0780000
00F0780000
00E0780000
01E0780000
01C0780000
03C0780000
03C07FFFE0
07807FFFE0
07807FFFE0
0700780000
0F00780000
0FFFF80000
1FFFF80000
1FFFF80000
1E00780000
3C00780000
3C00780000
7800780000
7800780000
F0007FFFF0
F0007FFFF0
F0007FFFF0
ENDCHAR
STARTCHAR 01FD
ENCODING 509
SWIDTH 900 0
DWIDTH 35 0
BBX 32 28 1 0
BITMAP
00007800
0000F000
0000E000
0001C000
00038000
00030000
00000000
00000000
03F80FC0
0FFE3FF0
1FFF7FF8
3C0FF07C
7803E01E
7803C00E
0003800F
0007800F
007FFFFF
0FFFFFFF
3FFBFFFF
7E038000
78038000
F003800E
F007C00E
F00FE01E
781CF03C
7FF8FFF8
3FF03FF0
0FC00FC0
ENDCHAR
STARTCHAR 01FE
ENCODING 510
SWIDTH 771 0
DWIDTH 30 0
BBX 28 36 1 0
BITMAP
0003C000
00078000
00070000
000E0000
001C0000
00180000
00000000
00000000
003FC070
00FFF860
03FFFCC0
07E0FF80
0F801F80
1E000780
3C000FC0
3C001FC0
780039E0
780071E0
7000E0E0
7001C0F0
F00380F0
F00700F0
F00E00F0
F01C00F0
703800F0
707000E0
78E001E0
79C001E0
3F8003C0
3F0003C0
1E000780
1F801F80
3FF07F00
73FFFC00
E1FFF800
403FC000
ENDCHAR
STARTCHAR 01FF
ENCODING 511
SWIDTH 617 0
DWIDTH 24 0
BBX 19 28 1 0
BITMAP
003C00
007800
00F000
00E000
01C000
000000
000000
000000
03F820
0FFE60
1FFFC0
3E0F80
3C03C0
7807C0
700DC0
7019E0
7031E0
F061E0
F0C1E0
F181E0
7301E0
7601C0
7C03C0
3C03C0
3E0F80
7FFF00
EFFE00
C3F800
ENDCHAR
STARTCHAR 0218
ENCODING 536
SWIDTH 668 0
DWIDTH 26 0
BBX 22 38 2 -10
BITMAP
01FE00
0FFF80
1FFFE0
3F03F0
3C00F0
780078
700078
700038
780000
780000
7E0000
3FC000
1FFC00
0FFF80
00FFE0
000FF8
0001F8
00007C
00003C
E0003C
F0001C
F0003C
78003C
7C0078
3F01F0
1FFFE0
0FFFC0
01FE00
000000
007800
007800
007800
007800
001800
001800
001800
007000
006000
ENDCHAR
STARTCHAR 0219
ENCODING 537
SWIDTH 488 0
DWIDTH 19 0
BBX 17 30 1 -10
BITMAP
07F000
1FFC00
3FFE00
7C1F00
780F00
700700
700000
7C0000
3F8000
1FF800
07FE00
007F00
000780
000780
F00780
700780
7C0F00
3FFE00
1FFC00
07F000
000000
01E000
01E000
01E000
01E000
006000
004000
00C000
01C000
010000
ENDCHAR
STARTCHAR 021A
ENCODING 538
SWIDTH 617 0
DWIDTH 24 0
BBX 22 39 1 -11
BITMAP
FFFFFC
FFFFFC
FFFFFC
007800
007800
007800
007800
007800
007800
007800
007800
007800
007800
007800
007800
007800
007800
007800
007800
007800
007800
007800
007800
007800
007800
007800
007800
007800
000000
000000
007800
007800
007800
007800
001800
001800
001800
007000
006000
ENDCHAR
STARTCHAR 021B
ENCODING 539
SWIDTH 282 0
DWIDTH 11 0
BBX 9 36 1 -10
BITMAP
3C00
3C00
3C00
3C00
3C00
3C00
FF80
FF80
FF80
3C00
3C00
3C00
3C00
3C00
3C00
3C00
3C00
3C00
3C00
3C00
3C00
3C00
3C00
3F80
1F80
0F80
0000
1E00
1E00
1E00
1E00
0600
0600
0600
1C00
1800
ENDCHAR
STARTCHAR 02C6
ENCODING 710
SWIDTH 334 0
DWIDTH 13 0
BBX 11 6 1 22
BITMAP
1F00
1F00
3B80
7380
61C0
E0E0
ENDCHAR
STARTCHAR 02C7
ENCODING 711
SWIDTH 334 0
DWIDTH 13 0
BBX 11 6 1 22
BITMAP
E0E0
61C0
7380
3B80
1F00
1E00
ENDCHAR
STARTCHAR 02C9
ENCODING 713
SWIDTH 334 0
DWIDTH 13 0
BBX 11 3 1 24
BITMAP
FFE0
FFE0
FFE0
ENDCHAR
STARTCHAR 02D8
ENCODING 728
SWIDTH 334 0
DWIDTH 13 0
BBX 11 5 1 23
BITMAP
C060
E0E0
FFE0
7FC0
1F00
ENDCHAR
STARTCHAR 02D9
ENCODING 729
SWIDTH 334 0
DWIDTH 13 0
BBX 5 4 4 24
BITMAP
F8
F8
F8
F8
ENDCHAR
STARTCHAR 02DA
ENCODING 730
SWIDTH 334 0
DWIDTH 13 0
BBX 7 7 3 22
BITMAP
38
7C
C6
C6
C6
7C
38
ENDCHAR
STARTCHAR 02DB
ENCODING 731
SWIDTH 334 0
DWIDTH 13 0
BBX 8 8 2 -8
BITMAP
1C
30
60
E0
E0
F0
7F
1F
ENDCHAR
STARTCHAR 02DC
ENCODING 732
SWIDTH 334 0
DWIDTH 13 0
BBX 12 4 0 24
BITMAP
3C30
7FF0
7FF0
E1E0
ENDCHAR
STARTCHAR 02DD
ENCODING 733
SWIDTH 334 0
DWIDTH 13 0
BBX 14 6 -1 22
BITMAP
1E3C
3C78
3870
70E0
E1C0
C180
ENDCHAR
STARTCHAR 0384
ENCODING 900
SWIDTH 334 0
DWIDTH 13 0
BBX 3 7 5 23
BITMAP
E0
E0
E0
E0
E0
E0
40
ENDCHAR
STARTCHAR 0385
ENCODING 901
SWIDTH 334 0
DWIDTH 13 0
BBX 11 10 1 24
BITMAP
0E00
0E00
0E00
0E00
0E00
0E00
F5E0
F5E0
F1E0
F1E0
ENDCHAR
STARTCHAR 0386
ENCODING 902
SWIDTH 668 0
DWIDTH 26 0
BBX 24 28 1 0
BITMAP
703E00
707E00
707E00
70FF00
70FF00
30F700
31E780
21E780
01C380
03C3C0
03C3C0
0381E0
0781E0
0781E0
0700F0
0F00F0
0F00F0
1FFFF8
1FFFF8
1FFFF8
3C003C
3C003C
3C003C
78001E
78001E
70001F
F0000F
F0000F
ENDCHAR
STARTCHAR 0387
ENCODING 903
SWIDTH 282 0
DWIDTH 11 0
BBX 4 4 4 9
BITMAP
F0
F0
F0
F0
ENDCHAR
STARTCHAR 0388
ENCODING 904
SWIDTH 771 0
DWIDTH 30 0
BBX 26 28 1 0
BITMAP
E7FFFF80
E7FFFF80
E7FFFF80
E7800000
E7800000
67800000
47800000
07800000
07800000
07800000
07800000
07800000
07FFFF00
07FFFF00
07FFFF00
07800000
07800000
07800000
07800000
07800000
07800000
07800000
07800000
07800000
07800000
07FFFFC0
07FFFFC0
07FFFFC0
ENDCHAR
STARTCHAR 0389
ENCODING 905
SWIDTH 848 0
DWIDTH 33 0
BBX 27 28 1 0
BITMAP
E78001E0
E78001E0
E78001E0
E78001E0
E78001E0
C78001E0
478001E0
078001E0
078001E0
078001E0
078001E0
078001E0
07FFFFE0
07FFFFE0
07FFFFE0
078001E0
078001E0
078001E0
078001E0
078001E0
078001E0
078001E0
078001E0
078001E0
078001E0
078001E0
078001E0
078001E0
ENDCHAR
STARTCHAR 038A
ENCODING 906
SWIDTH 385 0
DWIDTH 15 0
BBX 9 28 1 0
BITMAP
E780
E780
E780
E780
E780
E780
4780
4780
0780
0780
0780
0780
0780
0780
0780
0780
0780
0780
0780
0780
0780
0780
0780
0780
0780
0780
0780
0780
ENDCHAR
STARTCHAR 038C
ENCODING 908
SWIDTH 771 0
DWIDTH 30 0
BBX 30 28 -1 0
BITMAP
E00FF000
E03FFE00
E0FFFF00
E1F81FC0
E3E007E0
678001E0
6F0000F0
4F0000F0
1E000078
1E000078
1C000038
1C00003C
3C00003C
3C00003C
3C00003C
3C00003C
1C00003C
1C000038
1E000078
1E000078
0F0000F0
0F8000F0
078001E0
03E007C0
01FC1F80
00FFFF00
007FFE00
000FF000
ENDCHAR
STARTCHAR 038E
ENCODING 910
SWIDTH 848 0
DWIDTH 33 0
BBX 30 28 1 0
BITMAP
E780007C
E3C00078
E3E000F0
E1E001F0
60F001E0
60F003C0
607803C0
407C0780
003C0F80
001E0F00
001F1E00
000F1E00
0007BC00
0007B800
0003F800
0001F000
0001F000
0000E000
0000E000
0000E000
0000E000
0000E000
0000E000
0000E000
0000E000
0000E000
0000E000
0000E000
ENDCHAR
STARTCHAR 038F
ENCODING 911
SWIDTH 745 0
DWIDTH 29 0
BBX 29 28 -1 0
BITMAP
E00FE000
E07FFC00
E0FFFF00
E1F83F80
E3E007C0
678003E0
6F0001E0
4F0000F0
1E0000F0
1E0000F0
1E000070
1C000070
1C000070
1C000070
1C000070
1E000070
1E000070
1E0000F0
0E0000F0
0F0001E0
070001E0
078003C0
03C00780
01E00F00
00783C00
3FF83FF8
3FF83FF8
3FF83FF8
ENDCHAR
STARTCHAR 0390
ENCODING 912
SWIDTH 231 0
DWIDTH 9 0
BBX 10 34 -1 0
BITMAP
0E00
0E00
0E00
0E00
0E00
0C00
FDC0
F5C0
F1C0
F1C0
0000
0000
0000
0000
0E00
0E00
0E00
0E00
0E00
0E00
0E00
0E00
0E00
0E00
0E00
0E00
0E00
0E00
0E00
0E00
0E00
0E00
0E00
0E00
ENDCHAR
STARTCHAR 0391
ENCODING 913
SWIDTH 668 0
DWIDTH 26 0
BBX 24 28 1 0
BITMAP
003E00
007E00
007E00
00FF00
00FF00
00F700
01E780
01E780
01C380
03C3C0
03C3C0
0381E0
0781E0
0781E0
0700F0
0F00F0
0F00F0
1FFFF8
1FFFF8
1FFFF8
3C003C
3C003C
3C003C
78001E
78001E
70001F
F0000F
F0000F
ENDCHAR
STARTCHAR 0392
ENCODING 914
SWIDTH 668 0
DWIDTH 26 0
BBX 21 28 3 0
BITMAP
FFFE00
FFFF80
FFFFC0
F007E0
F001F0
F000F0
F000F0
F000F0
F000F0
F000F0
F001E0
F003C0
FFFF80
FFFF80
FFFFE0
F003F0
F000F0
F00078
F00078
F00038
F00038
F00078
F00078
F000F0
F001F0
FFFFE0
FFFFC0
FFFF00
ENDCHAR
STARTCHAR 0393
ENCODING 915
SWIDTH 540 0
DWIDTH 21 0
BBX 18 28 3 0
BITMAP
FFFFC0
FFFFC0
FFFFC0
F00000
F00000
F00000
F00000
F00000
F00000
F00000
F00000
F00000
F00000
F00000
F00000
F00000
F00000
F00000
F00000
F00000
F00000
F00000
F00000
F00000
F00000
F00000
F00000
F00000
ENDCHAR
STARTCHAR 0394
ENCODING 916
SWIDTH 668 0
DWIDTH 26 0
BBX 26 28 0 0
BITMAP
001E0000
003E0000
003F0000
003F0000
007F8000
00778000
00F3C000
00F3C000
01E1C000
01E1E000
01C1E000
03C0F000
03C0F000
07807000
07807800
07007800
0F003C00
0F003C00
1E001E00
1E001E00
1C001E00
3C000F00
3C000F00
78000780
78000780
7FFFFF80
FFFFFFC0
FFFFFFC0
ENDCHAR
STARTCHAR 0395
ENCODING 917
SWIDTH 668 0
DWIDTH 26 0
BBX 20 28 4 0
BITMAP
FFFFE0
FFFFE0
FFFFE0
E00000
E00000
E00000
E00000
E00000
E00000
E00000
E00000
E00000
FFFFE0
FFFFE0
FFFFE0
E00000
E00000
E00000
E00000
E00000
E00000
E00000
E00000
E00000
E00000
FFFFF0
FFFFF0
FFFFF0
ENDCHAR
STARTCHAR 0396
ENCODING 918
SWIDTH 617 0
DWIDTH 24 0
BBX 22 28 1 0
BITMAP
7FFFFC
7FFFFC
7FFFFC
000078
0000F8
0001F0
0001E0
0003C0
000780
000F80
001F00
001E00
003C00
007C00
00F800
01F000
01E000
03C000
07C000
0F8000
1F0000
1E0000
3C0000
7C0000
F80000
FFFFFC
FFFFFC
FFFFFC
ENDCHAR
STARTCHAR 0397
ENCODING 919
SWIDTH 720 0
DWIDTH 28 0
BBX 22 28 3 0
BITMAP
F0003C
F0003C
F0003C
F0003C
F0003C
F0003C
F0003C
F0003C
F0003C
F0003C
F0003C
F0003C
FFFFFC
FFFFFC
FFFFFC
F0003C
F0003C
F0003C
F0003C
F0003C
F0003C
F0003C
F0003C
F0003C
F0003C
F0003C
F0003C
F0003C
ENDCHAR
STARTCHAR 0398
ENCODING 920
SWIDTH 771 0
DWIDTH 30 0
BBX 28 28 1 0
BITMAP
003FC000
00FFF800
03FFFE00
07E07F00
0F801F80
1E000780
3C0003C0
3C0001E0
780001E0
780000E0
700000F0
700000F0
70FFF0F0
F0FFF0F0
F0FFF0F0
700000F0
700000F0
780000E0
780001E0
780001E0
3C0003C0
3E0003C0
1F000780
0F801F00
07F07F00
03FFFC00
01FFF800
003FC000
ENDCHAR
STARTCHAR 0399
ENCODING 921
SWIDTH 282 0
DWIDTH 11 0
BBX 4 28 4 0
BITMAP
F0
F0
F0
F0
F0
F0
F0
F0
F0
F0
F0
F0
F0
F0
F0
F0
F0
F0
F0
F0
F0
F0
F0
F0
F0
F0
F0
F0
ENDCHAR
STARTCHAR 039A
ENCODING 922
SWIDTH 668 0
DWIDTH 26 0
BBX 22 28 3 0
BITMAP
F0007C
F000F8
F001F0
F003E0
F007C0
F00F80
F01F00
F03E00
F07C00
F0F800
F1F000
F3E000
F7F000
FFF000
FE7800
FC3C00
F83E00
F01E00
F00F00
F00F80
F00780
F003C0
F003E0
F001E0
F000F0
F00078
F0007C
F0003C
ENDCHAR
STARTCHAR 039B
ENCODING 923
SWIDTH 668 0
DWIDTH 26 0
BBX 24 28 1 0
BITMAP
007E00
007E00
007E00
00FF00
00FF00
00E700
01E780
01E780
01C380
03C3C0
03C3C0
0781C0
0781E0
0781E0
0F00F0
0F00F0
0F00F0
1E0078
1E0078
1E0078
3C003C
3C003C
3C003C
78001E
78001E
78001E
F0000F
F0000F
ENDCHAR
STARTCHAR 039C
ENCODING 924
SWIDTH 822 0
DWIDTH 32 0
BBX 27 28 3 0
BITMAP
F80007E0
F80007E0
FC0007E0
FC000FE0
FC000FE0
EE000FE0
EE001FE0
EF001DE0
E7001DE0
E70039E0
E78039E0
E38039E0
E38071E0
E3C071E0
E1C071E0
E1C0E1E0
E1E0E1E0
E0E0E1E0
E0E1C1E0
E0F1C1E0
E071C1E0
E07381E0
E07B81E0
E03B81E0
E03F01E0
E01F01E0
E01F01E0
E01E01E0
ENDCHAR
STARTCHAR 039D
ENCODING 925
SWIDTH 720 0
DWIDTH 28 0
BBX 22 28 3 0
BITMAP
F0001C
F8001C
FC001C
FC001C
FE001C
FE001C
EF001C
E7801C
E7801C
E3C01C
E1E01C
E1E01C
E0F01C
E0781C
E0781C
E03C1C
E01E1C
E01E1C
E00F1C
E0079C
E0079C
E003DC
E003DC
E001FC
E000FC
E000FC
E0007C
E0003C
ENDCHAR
STARTCHAR 039E
ENCODING 926
SWIDTH 642 0
DWIDTH 25 0
BBX 21 28 2 0
BITMAP
7FFFF8
7FFFF8
7FFFF8
000000
000000
000000
000000
000000
000000
000000
000000
000000
3FFFF0
3FFFF0
3FFFF0
000000
000000
000000
000000
000000
000000
000000
000000
000000
000000
FFFFF8
FFFFF8
FFFFF8
ENDCHAR
STARTCHAR 039F
ENCODING 927
SWIDTH 771 0
DWIDTH 30 0
BBX 28 28 1 0
BITMAP
003FC000
00FFF800
03FFFE00
07F07F00
0F801F80
1F000780
3E0003C0
3C0003E0
780001E0
780001E0
780000F0
700000F0
700000F0
F00000F0
F00000F0
700000F0
700000F0
780000F0
780000E0
780001E0
3C0001C0
3E0003C0
1F000780
0F801F80
07F07F00
03FFFC00
01FFF800
003FC000
ENDCHAR
STARTCHAR 03A0
ENCODING 928
SWIDTH 720 0
DWIDTH 28 0
BBX 22 28 3 0
BITMAP
FFFFFC
FFFFFC
FFFFFC
F0003C
F0003C
F0003C
F0003C
F0003C
F0003C
F0003C
F0003C
F0003C
F0003C
F0003C
F0003C
F0003C
F0003C
F0003C
F0003C
F0003C
F0003C
F0003C
F0003C
F0003C
F0003C
F0003C
F0003C
F0003C
ENDCHAR
STARTCHAR 03A1
ENCODING 929
SWIDTH 668 0
DWIDTH 26 0
BBX 20 28 4 0
BITMAP
FFFE00
FFFF80
FFFFC0
E007E0
E001E0
E000F0
E000F0
E000F0
E000F0
E000F0
E000F0
E001E0
E007E0
FFFFC0
FFFF80
FFFE00
E00000
E00000
E00000
E00000
E00000
E00000
E00000
E00000
E00000
E00000
E00000
E00000
ENDCHAR
STARTCHAR 03A3
ENCODING 931
SWIDTH 617 0
DWIDTH 24 0
BBX 20 28 2 0
BITMAP
FFFFF0
FFFFF0
FFFFF0
F80000
7C0000
3E0000
1F0000
0F8000
07C000
03E000
01F000
00F800
007C00
003E00
003E00
007C00
00F800
01F000
03E000
07C000
0F8000
1F0000
3E0000
7C0000
F80000
FFFFF0
FFFFF0
FFFFF0
ENDCHAR
STARTCHAR 03A4
ENCODING 932
SWIDTH 617 0
DWIDTH 24 0
BBX 22 28 1 0
BITMAP
FFFFFC
FFFFFC
FFFFFC
007800
007800
007800
007800
007800
007800
007800
007800
007800
007800
007800
007800
007800
007800
007800
007800
007800
007800
007800
007800
007800
007800
007800
007800
007800
ENDCHAR
STARTCHAR 03A5
ENCODING 933
SWIDTH 668 0
DWIDTH 26 0
BBX 24 28 1 0
BITMAP
F0000F
F8000F
7C001E
3C003E
3E003C
1E0078
0F0078
0F80F0
0781E0
03C1E0
03C3C0
01E3C0
00F780
00FF00
007F00
007E00
003C00
003C00
003C00
003C00
003C00
003C00
003C00
003C00
003C00
003C00
003C00
003C00
ENDCHAR
STARTCHAR 03A6
ENCODING 934
SWIDTH 797 0
DWIDTH 31 0
BBX 25 28 3 0
BITMAP
001C0000
001C0000
001C0000
003E0000
03FFE000
0FFFF800
1FDDFC00
3E1C3E00
7C1C1F00
781C0F00
701C0780
F01C0780
F01C0780
F01C0780
F01C0780
F01C0780
F01C0780
701C0780
781C0F00
7C1C1F00
3E1C3E00
1FDDFC00
0FFFF800
03FFE000
003E0000
001C0000
001C0000
001C0000
ENDCHAR
STARTCHAR 03A7
ENCODING 935
SWIDTH 668 0
DWIDTH 26 0
BBX 24 28 1 0
BITMAP
78001E
7C003E
3E003C
1E0078
0F00F8
0F80F0
0781E0
03C3E0
03E3C0
01E780
00FF00
00FF00
007E00
003C00
007E00
007F00
00FF00
01E780
03E7C0
03C3C0
0781E0
0F81F0
0F00F0
1E0078
3E007C
3C003E
78001E
F8001F
ENDCHAR
STARTCHAR 03A8
ENCODING 936
SWIDTH 822 0
DWIDTH 32 0
BBX 27 28 3 0
BITMAP
E01E01E0
E01E01E0
E01E01E0
E01E01E0
E01E01E0
E01E01E0
E01E01E0
E01E01E0
E01E01E0
E01E01E0
E01E01E0
E01E01E0
E01E01E0
E01E01E0
F01E01E0
F01E01C0
F01E03C0
781E07C0
3E1E0F80
3FFEFF00
0FFFFE00
07FFF800
007F8000
001E0000
001E0000
001E0000
001E0000
001E0000
ENDCHAR
STARTCHAR 03A9
ENCODING 937
SWIDTH 745 0
DWIDTH 29 0
BBX 27 28 1 0
BITMAP
003F8000
01FFF000
03FFFC00
0FE0FE00
0F001F00
1E000F00
3C000780
3C0003C0
780003C0
780003C0
780001C0
700001C0
700001C0
700001C0
700001C0
780001C0
780003C0
780003C0
380003C0
3C000780
1C000780
1E000F00
0F001E00
07803C00
01E0F000
FFE0FFE0
FFE0FFE0
FFE0FFE0
ENDCHAR
STARTCHAR 03AA
ENCODING 938
SWIDTH 282 0
DWIDTH 11 0
BBX 11 35 0 0
BITMAP
F1E0
F1E0
F1E0
F1E0
0000
0000
0000
0F00
0F00
0F00
0F00
0F00
0F00
0F00
0F00
0F00
0F00
0F00
0F00
0F00
0F00
0F00
0F00
0F00
0F00
0F00
0F00
0F00
0F00
0F00
0F00
0F00
0F00
0F00
0F00
ENDCHAR
STARTCHAR 03AB
ENCODING 939
SWIDTH 668 0
DWIDTH 26 0
BBX 24 35 1 0
BITMAP
01E780
01E780
01E780
01E780
000000
000000
000000
F0000F
F8000F
7C001E
3C003E
3E003C
1E0078
0F0078
0F80F0
0781E0
03C1E0
03C3C0
01E3C0
00F780
00FF00
007F00
007E00
003C00
003C00
003C00
003C00
003C00
003C00
003C00
003C00
003C00
003C00
003C00
003C00
ENDCHAR
STARTCHAR 03AC
ENCODING 940
SWIDTH 565 0
DWIDTH 22 0
BBX 23 29 0 0
BITMAP
00E000
00E000
00E000
00E000
00E000
00C000
004000
000000
000000
03F01E
0FFC1C
1FFE3C
3E0F38
3C07B8
7803F8
7003F0
7001F0
F001F0
F000E0
F001E0
F001F0
F001F0
7003F8
7807B8
3C0738
3E1E3C
1FFE1C
0FFC1E
03F01E
ENDCHAR
STARTCHAR 03AD
ENCODING 941
SWIDTH 437 0
DWIDTH 17 0
BBX 16 29 1 0
BITMAP
0380
0380
0380
0380
0380
0180
0100
0000
0000
07E0
1FF8
7FFC
781E
F00E
F00F
7000
7800
3FC0
1FC0
7FC0
7800
E000
E007
E007
F00F
F81E
7FFC
3FF8
0FE0
ENDCHAR
STARTCHAR 03AE
ENCODING 942
SWIDTH 565 0
DWIDTH 22 0
BBX 16 38 3 -8
BITMAP
01C0
01C0
01C0
01C0
01C0
01C0
0080
0080
0000
0000
E3F0
EFFC
FFFE
FC1F
F00F
F007
E007
E007
E007
E007
E007
E007
E007
E007
E007
E007
E007
E007
E007
E007
0007
0007
0007
0007
0007
0007
0007
0007
ENDCHAR
STARTCHAR 03AF
ENCODING 943
SWIDTH 231 0
DWIDTH 9 0
BBX 3 30 3 0
BITMAP
E0
E0
E0
E0
E0
C0
C0
40
00
00
E0
E0
E0
E0
E0
E0
E0
E0
E0
E0
E0
E0
E0
E0
E0
E0
E0
E0
E0
E0
ENDCHAR
STARTCHAR 03B0
ENCODING 944
SWIDTH 540 0
DWIDTH 21 0
BBX 16 34 3 0
BITMAP
0380
0380
0380
0380
0380
0380
3DF8
3D78
3C78
3C78
0000
0000
0000
0000
E00F
E00F
E00F
E00F
E00F
E00F
E00F
E00F
E00F
E00F
E00F
E00F
E00F
E00F
E00F
F00E
F83E
7FFC
3FF8
0FE0
ENDCHAR
STARTCHAR 03B1
ENCODING 945
SWIDTH 565 0
DWIDTH 22 0
BBX 22 20 1 0
BITMAP
03E03C
0FF838
1FFC38
3E1E78
380F70
780770
7007E0
7003E0
F003E0
F001C0
F001C0
F003E0
F003E0
700770
780F70
780E70
3E3E78
1FFC38
0FF83C
03E03C
ENDCHAR
STARTCHAR 03B2
ENCODING 946
SWIDTH 565 0
DWIDTH 22 0
BBX 17 36 3 -8
BITMAP
07E000
1FF800
3FFC00
783E00
700E00
F00F00
E00F00
E00F00
E00F00
E00E00
E03E00
E1F800
E1F800
E1FE00
E00F00
E00780
E00780
E00380
E00380
E00380
E00380
E00380
E00780
F00F00
F81F00
FFFE00
EFFC00
E7F000
E00000
E00000
E00000
E00000
E00000
E00000
E00000
E00000
ENDCHAR
STARTCHAR 03B3
ENCODING 947
SWIDTH 488 0
DWIDTH 19 0
BBX 18 29 1 -9
BITMAP
E003C0
F00380
F00780
700780
780700
380F00
3C0F00
3C0E00
1C1E00
1E1C00
0E1C00
0E3C00
0F3800
077800
07F000
03F000
03F000
03E000
01E000
01E000
01E000
01E000
01E000
01E000
01E000
01E000
01E000
01E000
01E000
ENDCHAR
STARTCHAR 03B4
ENCODING 948
SWIDTH 565 0
DWIDTH 22 0
BBX 18 28 2 0
BITMAP
3FFF00
3FFF00
3FFF00
1E0000
0F8000
07C000
01E000
01F800
0FFC00
1FFE00
3C1F00
780780
700780
F003C0
E003C0
E001C0
E001C0
E001C0
E001C0
E001C0
E003C0
F003C0
F00380
780780
3C1F00
3FFE00
0FFC00
03F000
ENDCHAR
STARTCHAR 03B5
ENCODING 949
SWIDTH 437 0
DWIDTH 17 0
BBX 16 20 1 0
BITMAP
07E0
1FF8
7FFC
781E
F00E
F00F
7000
7800
3FC0
1FC0
7FC0
7800
E000
E007
E007
F00F
F81E
7FFC
3FF8
0FE0
ENDCHAR
STARTCHAR 03B6
ENCODING 950
SWIDTH 437 0
DWIDTH 17 0
BBX 16 37 2 -9
BITMAP
7FFE
7FFE
7FFE
007C
00F0
01E0
03C0
0780
0F00
1E00
1C00
3C00
7800
7000
7000
F000
E000
E000
E000
E000
E000
E000
E000
F000
F800
7FC0
3FFC
0FFE
003F
000F
000F
000E
000E
000E
001E
001C
001C
ENDCHAR
STARTCHAR 03B7
ENCODING 951
SWIDTH 565 0
DWIDTH 22 0
BBX 16 28 3 -7
BITMAP
E3F0
EFFC
FFFE
FC1F
F00F
F007
E007
E007
E007
E007
E007
E007
E007
E007
E007
E007
E007
E007
E007
E007
0007
0007
0007
0007
0007
0007
0007
0007
ENDCHAR
STARTCHAR 03B8
ENCODING 952
SWIDTH 565 0
DWIDTH 22 0
BBX 18 30 2 0
BITMAP
03F000
0FFC00
1FFE00
3E1F00
380F00
780780
700380
F00380
F00380
E003C0
E003C0
E003C0
E001C0
FFFFC0
FFFFC0
FFFFC0
E003C0
E003C0
E003C0
E003C0
E003C0
F00380
F00380
700380
780780
780700
3E1F00
1FFE00
0FFC00
03F000
ENDCHAR
STARTCHAR 03B9
ENCODING 953
SWIDTH 231 0
DWIDTH 9 0
BBX 3 20 3 0
BITMAP
E0
E0
E0
E0
E0
E0
E0
E0
E0
E0
E0
E0
E0
E0
E0
E0
E0
E0
E0
E0
ENDCHAR
STARTCHAR 03BA
ENCODING 954
SWIDTH 488 0
DWIDTH 19 0
BBX 17 20 2 0
BITMAP
E00F00
E01E00
E03C00
E07800
E1F000
E3E000
E7C000
EFC000
FFC000
FFE000
F9E000
F0F000
E07800
E07800
E03C00
E01E00
E01E00
E00F00
E00780
E00780
ENDCHAR
STARTCHAR 03BB
ENCODING 955
SWIDTH 488 0
DWIDTH 19 0
BBX 17 28 1 0
BITMAP
0E0000
0F0000
070000
078000
078000
038000
03C000
01C000
01C000
01E000
03E000
03F000
07F000
077000
077800
0F7800
0E3800
0E3C00
1E1C00
1C1E00
1C1E00
3C0E00
380F00
780F00
780700
700780
F00380
F00380
ENDCHAR
STARTCHAR 03BC
ENCODING 956
SWIDTH 565 0
DWIDTH 22 0
BBX 16 27 3 -7
BITMAP
E007
E007
E007
E007
E007
E007
E007
E007
E007
E007
E007
E007
E007
E007
F00F
F01F
F83F
FFF7
FFE7
EFC0
E000
E000
E000
E000
E000
E000
E000
ENDCHAR
STARTCHAR 03BD
ENCODING 957
SWIDTH 488 0
DWIDTH 19 0
BBX 18 20 1 0
BITMAP
E003C0
F00380
F00780
700780
780700
780F00
380E00
3C0E00
3C1E00
1C1C00
1E3C00
0E3800
0E3800
0F7800
077000
077000
07F000
03E000
03E000
03C000
ENDCHAR
STARTCHAR 03BE
ENCODING 958
SWIDTH 437 0
DWIDTH 17 0
BBX 17 37 1 -9
BITMAP
7FFE00
7FFE00
7FFE00
0F0000
1C0000
3C0000
380000
380000
380000
3C0000
3E0000
1F8000
0FFC00
03FC00
0FFC00
3E0000
780000
700000
F00000
F00000
F00000
F00000
F00000
780000
7C0000
3FF000
1FFF00
0FFF80
001F80
000780
000380
000380
000780
000700
000700
000F00
000E00
ENDCHAR
STARTCHAR 03BF
ENCODING 959
SWIDTH 565 0
DWIDTH 22 0
BBX 18 20 2 0
BITMAP
03F000
0FFC00
3FFE00
7C1F00
780780
F00380
F003C0
E003C0
E001C0
E001C0
E001C0
E001C0
E003C0
F003C0
F00380
780780
7C1F00
3FFE00
1FFC00
07F000
ENDCHAR
STARTCHAR 03C0
ENCODING 960
SWIDTH 694 0
DWIDTH 27 0
BBX 21 20 3 0
BITMAP
FFFFF8
FFFFF8
FFFFF8
3C01C0
3C01C0
3C01C0
3C01C0
3C01C0
3C01C0
3C01C0
3C01C0
3C01C0
3C01C0
3C01C0
3C01C0
3C01C0
3C01C0
3C01C0
3C01C0
3C01C0
ENDCHAR
STARTCHAR 03C1
ENCODING 961
SWIDTH 565 0
DWIDTH 22 0
BBX 19 28 2 -8
BITMAP
01F800
0FFE00
1FFF00
3E0F80
7C0780
7803C0
7001C0
7001C0
F001C0
F001E0
F001E0
F001C0
F001C0
F001C0
F803C0
FC0780
FE0F80
FFFF00
F7FE00
F1F800
F00000
F00000
F00000
F00000
F00000
F00000
F00000
F00000
ENDCHAR
STARTCHAR 03C2
ENCODING 962
SWIDTH 488 0
DWIDTH 19 0
BBX 18 29 1 -9
BITMAP
03F800
0FFE00
1FFF00
3E0F80
3C0780
7803C0
7003C0
F003C0
F00000
E00000
E00000
F00000
F00000
700000
780000
7C0000
3E0000
1FC000
0FF000
03FE00
007F00
000F80
000780
000380
000380
000780
000700
000700
000F00
ENDCHAR
STARTCHAR 03C3
ENCODING 963
SWIDTH 617 0
DWIDTH 24 0
BBX 21 20 2 0
BITMAP
03FFF8
0FFFF8
1FFFF8
3E0F80
3C0780
7803C0
7001C0
7001E0
F001E0
F001E0
F001E0
F001E0
7001E0
7001C0
7803C0
3C03C0
3E0F80
1FFF00
0FFE00
03F800
ENDCHAR
STARTCHAR 03C4
ENCODING 964
SWIDTH 385 0
DWIDTH 15 0
BBX 17 20 -1 0
BITMAP
FFFF80
FFFF80
FFFF80
01C000
01C000
01C000
01C000
01C000
01C000
01C000
01C000
01C000
01C000
01C000
01C000
01C000
01C000
01C000
01C000
01C000
ENDCHAR
STARTCHAR 03C5
ENCODING 965
SWIDTH 540 0
DWIDTH 21 0
BBX 16 20 3 0
BITMAP
E00F
E00F
E00F
E00F
E00F
E00F
E00F
E00F
E00F
E00F
E00F
E00F
E00F
E00F
E00F
F00E
F83E
7FFC
3FF8
0FE0
ENDCHAR
STARTCHAR 03C6
ENCODING 966
SWIDTH 642 0
DWIDTH 25 0
BBX 23 29 1 -9
BITMAP
003E00
063FC0
0E3FE0
1E39F0
3C3878
783838
78383C
70381C
F0381C
F0381E
F0381E
F0381E
F0381E
F0381C
70383C
78383C
783838
3C3878
1F39F0
0FFFE0
07FFC0
00FE00
003800
003800
003800
003800
003800
003800
003800
ENDCHAR
STARTCHAR 03C7
ENCODING 967
SWIDTH 514 0
DWIDTH 20 0
BBX 18 29 1 -9
BITMAP
700380
780780
380700
3C0F00
1C0E00
1E1E00
0E1C00
0F3C00
073C00
07B800
03F800
03F000
01F000
01E000
01E000
01F000
03F000
03F800
07B800
073C00
0F1C00
0E1E00
1E1E00
1C0F00
3C0F00
380780
780780
7003C0
F003C0
ENDCHAR
STARTCHAR 03C8
ENCODING 968
SWIDTH 720 0
DWIDTH 28 0
BBX 21 28 4 -8
BITMAP
E07038
E07038
E07038
E07038
E07038
E07038
E07038
E07038
E07038
E07038
E07038
E07038
E07038
E07078
E07078
F07070
F870F0
7E73E0
3FFFC0
0FFF80
01F800
007000
007000
007000
007000
007000
007000
007000
ENDCHAR
STARTCHAR 03C9
ENCODING 969
SWIDTH 771 0
DWIDTH 30 0
BBX 24 20 3 0
BITMAP
0F00F0
1E0078
1C003C
3C001C
38001E
781C0E
701C0E
701C0F
701C0F
F01C07
F01C07
F01C07
701C0F
701C0F
703C0E
783C1E
3C7E1E
3FF7FC
1FE7F8
0781F0
ENDCHAR
STARTCHAR 03CA
ENCODING 970
SWIDTH 231 0
DWIDTH 9 0
BBX 10 28 -1 0
BITMAP
F3C0
F3C0
F3C0
F3C0
0000
0000
0000
0000
0E00
0E00
0E00
0E00
0E00
0E00
0E00
0E00
0E00
0E00
0E00
0E00
0E00
0E00
0E00
0E00
0E00
0E00
0E00
0E00
ENDCHAR
STARTCHAR 03CB
ENCODING 971
SWIDTH 540 0
DWIDTH 21 0
BBX 16 28 3 0
BITMAP
3E78
3E78
3E78
3E78
0000
0000
0000
0000
E00F
E00F
E00F
E00F
E00F
E00F
E00F
E00F
E00F
E00F
E00F
E00F
E00F
E00F
E00F
F00E
F83E
7FFC
3FF8
0FE0
ENDCHAR
STARTCHAR 03CC
ENCODING 972
SWIDTH 565 0
DWIDTH 22 0
BBX 18 29 2 0
BITMAP
01C000
01C000
01C000
01C000
00C000
00C000
00C000
000000
000000
03F000
0FFC00
3FFE00
7C1F00
780780
F00380
F003C0
E003C0
E001C0
E001C0
E001C0
E001C0
E003C0
F003C0
F00380
780780
7C1F00
3FFE00
1FFC00
07F000
ENDCHAR
STARTCHAR 03CD
ENCODING 973
SWIDTH 540 0
DWIDTH 21 0
BBX 16 30 3 0
BITMAP
0380
0380
0380
0380
0380
0180
0180
0100
0000
0000
E00F
E00F
E00F
E00F
E00F
E00F
E00F
E00F
E00F
E00F
E00F
E00F
E00F
E00F
E00F
F00E
F83E
7FFC
3FF8
0FE0
ENDCHAR
STARTCHAR 03CE
ENCODING 974
SWIDTH 771 0
DWIDTH 30 0
BBX 24 30 3 0
BITMAP
001C00
001C00
001C00
001C00
001C00
001800
001800
000800
000000
000000
0F00F0
1E0078
1C003C
3C001C
38001E
781C0E
701C0E
701C0F
701C0F
F01C07
F01C07
F01C07
701C0F
701C0F
703C0E
783C1E
3C7E1E
3FF7FC
1FE7F8
0781F0
ENDCHAR
STARTCHAR 03D1
ENCODING 977
SWIDTH 540 0
DWIDTH 21 0
BBX 21 30 0 0
BITMAP
00F000
03FC00
07FF00
0F0F80
1E0780
1C03C0
1C01C0
1C01C0
1C01E0
1E00E0
0F00E0
0F80E0
07E0E0
03FFF8
00FFF8
000FF8
0000E0
F800E0
F800E0
F800E0
3800E0
3801E0
3801C0
3801C0
1C03C0
1E0380
1F0F80
0FFF00
07FE00
01F800
ENDCHAR
STARTCHAR 03D5
ENCODING 981
SWIDTH 565 0
DWIDTH 22 0
BBX 20 34 1 -8
BITMAP
00E000
00E000
00E000
00E000
00E000
03FC00
0FFF00
1FFF80
3CE7C0
78E1E0
70E0E0
F0E0F0
E0E0F0
E0E070
E0E070
E0E070
E0E070
E0E070
E0E070
E0E0F0
F0E0F0
70E0E0
78E1E0
3EE7C0
1FFF80
0FFF00
03FC00
00E000
00E000
00E000
00E000
00E000
00E000
00E000
ENDCHAR
STARTCHAR 03D6
ENCODING 982
SWIDTH 771 0
DWIDTH 30 0
BBX 24 20 3 0
BITMAP
FFFE00
FFFFC0
FFFFF0
1E00F8
3C007C
78001E
70001E
70000F
F03C0F
F03C0F
E03C07
E03C07
F03C07
F03C0F
703C0E
783E0E
787E1E
3FFFFC
1FE7F8
0781E0
ENDCHAR
STARTCHAR 0400
ENCODING 1024
SWIDTH 668 0
DWIDTH 26 0
BBX 20 36 4 0
BITMAP
078000
03C000
01E000
00E000
007000
003800
000000
000000
FFFFE0
FFFFE0
FFFFE0
E00000
E00000
E00000
E00000
E00000
E00000
E00000
E00000
E00000
FFFFE0
FFFFE0
FFFFE0
E00000
E00000
E00000
E00000
E00000
E00000
E00000
E00000
E00000
E00000
FFFFF0
FFFFF0
FFFFF0
ENDCHAR
STARTCHAR 0401
ENCODING 1025
SWIDTH 668 0
DWIDTH 26 0
BBX 21 35 3 0
BITMAP
079E00
079E00
079E00
079E00
000000
000000
000000
FFFFF0
FFFFF0
FFFFF0
F00000
F00000
F00000
F00000
F00000
F00000
F00000
F00000
F00000
FFFFE0
FFFFE0
FFFFE0
F00000
F00000
F00000
F00000
F00000
F00000
F00000
F00000
F00000
F00000
FFFFF8
FFFFF8
FFFFF8
ENDCHAR
STARTCHAR 0402
ENCODING 1026
SWIDTH 874 0
DWIDTH 34 0
BBX 29 28 1 0
BITMAP
FFFFE000
FFFFE000
FFFFE000
00780000
00780000
00780000
00780000
00780000
00780000
0078FF80
007BFFE0
007FFFF0
007F81F0
007C0078
00780078
00780078
00780078
00780078
00780078
00780078
00780078
00780078
00780078
00780078
007800F8
00783FF0
00783FE0
00783FC0
ENDCHAR
STARTCHAR 0403
ENCODING 1027
SWIDTH 540 0
DWIDTH 21 0
BBX 18 36 3 0
BITMAP
00F800
00E000
01C000
038000
030000
060000
000000
000000
FFFFC0
FFFFC0
FFFFC0
F00000
F00000
F00000
F00000
F00000
F00000
F00000
F00000
F00000
F00000
F00000
F00000
F00000
F00000
F00000
F00000
F00000
F00000
F00000
F00000
F00000
F00000
F00000
F00000
F00000
ENDCHAR
STARTCHAR 0404
ENCODING 1028
SWIDTH 720 0
DWIDTH 28 0
BBX 26 28 1 0
BITMAP
007F8000
01FFF000
07FFFC00
0FE0FE00
1F001F00
3E000F80
7C000780
780003C0
70000200
F0000000
F0000000
E0000000
FFFE0000
FFFE0000
FFFE0000
E0000000
F0000000
F0000000
F00001C0
700003C0
780003C0
7C000780
3E000F00
1F003F00
0FE0FE00
07FFF800
01FFF000
007F8000
ENDCHAR
STARTCHAR 0405
ENCODING 1029
SWIDTH 668 0
DWIDTH 26 0
BBX 22 28 2 0
BITMAP
01FE00
0FFF80
1FFFE0
3F03F0
3C00F0
780078
700078
700038
780000
780000
7E0000
3FC000
1FFC00
0FFF80
00FFE0
000FF8
0001F8
00007C
00003C
E0003C
F0001C
F0003C
78003C
7C0078
3F01F0
1FFFE0
0FFFC0
01FE00
ENDCHAR
STARTCHAR 0406
ENCODING 1030
SWIDTH 282 0
DWIDTH 11 0
BBX 3 28 4 0
BITMAP
E0
E0
E0
E0
E0
E0
E0
E0
E0
E0
E0
E0
E0
E0
E0
E0
E0
E0
E0
E0
E0
E0
E0
E0
E0
E0
E0
E0
ENDCHAR
STARTCHAR 0407
ENCODING 1031
SWIDTH 282 0
DWIDTH 11 0
BBX 11 35 0 0
BITMAP
F1E0
F1E0
F1E0
F1E0
0000
0000
0000
0E00
0E00
0E00
0E00
0E00
0E00
0E00
0E00
0E00
0E00
0E00
0E00
0E00
0E00
0E00
0E00
0E00
0E00
0E00
0E00
0E00
0E00
0E00
0E00
0E00
0E00
0E00
0E00
ENDCHAR
STARTCHAR 0408
ENCODING 1032
SWIDTH 488 0
DWIDTH 19 0
BBX 15 28 1 0
BITMAP
000E
000E
000E
000E
000E
000E
000E
000E
000E
000E
000E
000E
000E
000E
000E
000E
000E
000E
E00E
E00E
E00E
E00E
F01E
F01E
7C3C
7FFC
3FF8
0FE0
ENDCHAR
STARTCHAR 0409
ENCODING 1033
SWIDTH 1054 0
DWIDTH 41 0
BBX 39 28 1 0
BITMAP
07FFFE0000
07FFFE0000
07FFFE0000
07001E0000
07001E0000
07001E0000
07001E0000
07001E0000
07001E0000
07001E0000
07001E0000
07001E0000
07001FFFE0
07001FFFF0
07001FFFF8
07001E007C
07001E003E
07001E001E
07001E001E
07001E001E
0F001E001E
0F001E001E
0F001E001E
1E001E003C
7E001E00FC
FC001FFFF8
F8001FFFF0
E0001FFFC0
ENDCHAR
STARTCHAR 040A
ENCODING 1034
SWIDTH 1002 0
DWIDTH 39 0
BBX 36 28 2 0
BITMAP
F001E00000
F001E00000
F001E00000
F001E00000
F001E00000
F001E00000
F001E00000
F001E00000
F001E00000
F001E00000
F001E00000
F001E00000
FFFFFFFF00
FFFFFFFF80
FFFFFFFFE0
F001E003E0
F001E001F0
F001E000F0
F001E00070
F001E00070
F001E00070
F001E000F0
F001E000F0
F001E001F0
F001E007E0
F001FFFFC0
F001FFFF80
F001FFFE00
ENDCHAR
STARTCHAR 040B
ENCODING 1035
SWIDTH 848 0
DWIDTH 33 0
BBX 28 28 1 0
BITMAP
FFFFF800
FFFFF800
FFFFF800
00700000
00700000
00700000
00700000
00700000
00700000
0070FF00
0073FFC0
0077FFE0
007F03E0
007C00F0
007800F0
007800F0
007800F0
007000F0
007000F0
007000F0
007000F0
007000F0
007000F0
007000F0
007000F0
007000F0
007000F0
007000F0
ENDCHAR
STARTCHAR 040C
ENCODING 1036
SWIDTH 591 0
DWIDTH 23 0
BBX 19 36 2 0
BITMAP
003C00
007800
00F000
00E000
01C000
038000
000000
000000
F00780
F00780
F00F00
F01E00
F01E00
F03C00
F03C00
F07800
F0F000
F0F000
F1E000
F1E000
FFC000
FFC000
FFC000
F1E000
F0F000
F0F000
F07800
F03C00
F03C00
F01E00
F00F00
F00F00
F00780
F003C0
F003C0
F001E0
ENDCHAR
STARTCHAR 040D
ENCODING 1037
SWIDTH 720 0
DWIDTH 28 0
BBX 22 36 3 0
BITMAP
01E000
00F000
007000
003800
001C00
000C00
000000
000000
F0003C
F0003C
F0003C
F0003C
F0007C
F000FC
F001FC
F003FC
F003FC
F007BC
F00F3C
F01E3C
F03E3C
F07C3C
F0F83C
F1F03C
F3E03C
F3C03C
F7803C
FF003C
FE003C
FE003C
FC003C
F8003C
F0003C
F0003C
F0003C
F0003C
ENDCHAR
STARTCHAR 040E
ENCODING 1038
SWIDTH 642 0
DWIDTH 25 0
BBX 23 36 1 0
BITMAP
070180
030180
038380
03FF00
01FE00
003800
000000
000000
F0001E
F8001E
78003C
7C003C
3C0078
3E0078
1E00F8
1E00F0
0F00F0
0F01E0
0781E0
0783C0
03C3C0
03C380
01C780
01E780
01EF00
00FF00
00FE00
007E00
007C00
003C00
003800
007800
00F800
07F000
07E000
07C000
ENDCHAR
STARTCHAR 040F
ENCODING 1039
SWIDTH 720 0
DWIDTH 28 0
BBX 22 34 3 -6
BITMAP
F0003C
F0003C
F0003C
F0003C
F0003C
F0003C
F0003C
F0003C
F0003C
F0003C
F0003C
F0003C
F0003C
F0003C
F0003C
F0003C
F0003C
F0003C
F0003C
F0003C
F0003C
F0003C
F0003C
F0003C
F0003C
FFFFFC
FFFFFC
FFFFFC
007800
007800
007800
007800
007800
007800
ENDCHAR
STARTCHAR 0410
ENCODING 1040
SWIDTH 668 0
DWIDTH 26 0
BBX 24 28 1 0
BITMAP
003E00
007E00
007E00
00FF00
00FF00
00E700
01E780
01E780
01C380
03C3C0
03C3C0
0381C0
0781E0
0781E0
0F00F0
0F00F0
0F00F0
1FFFF8
1FFFF8
1FFFF8
3C003C
3C003C
3C003C
78001E
78001E
70001E
F0000F
F0000F
ENDCHAR
STARTCHAR 0411
ENCODING 1041
SWIDTH 668 0
DWIDTH 26 0
BBX 21 28 3 0
BITMAP
FFFFE0
FFFFE0
FFFFE0
F00000
F00000
F00000
F00000
F00000
F00000
F00000
F00000
F00000
FFFF80
FFFFC0
FFFFE0
F001F0
F000F8
F00078
F00078
F00078
F00078
F00078
F00078
F000F0
F003F0
FFFFE0
FFFFC0
FFFF00
ENDCHAR
STARTCHAR 0412
ENCODING 1042
SWIDTH 668 0
DWIDTH 26 0
BBX 21 28 3 0
BITMAP
FFFE00
FFFF80
FFFFC0
F007E0
F001F0
F000F0
F000F0
F000F0
F000F0
F000F0
F001E0
F003C0
FFFF80
FFFF80
FFFFE0
F003F0
F000F8
F00078
F00038
F00038
F00038
F00038
F00078
F000F8
F001F0
FFFFE0
FFFFC0
FFFF00
ENDCHAR
STARTCHAR 0413
ENCODING 1043
SWIDTH 540 0
DWIDTH 21 0
BBX 18 28 3 0
BITMAP
FFFFC0
FFFFC0
FFFFC0
F00000
F00000
F00000
F00000
F00000
F00000
F00000
F00000
F00000
F00000
F00000
F00000
F00000
F00000
F00000
F00000
F00000
F00000
F00000
F00000
F00000
F00000
F00000
F00000
F00000
ENDCHAR
STARTCHAR 0414
ENCODING 1044
SWIDTH 668 0
DWIDTH 26 0
BBX 26 34 0 -6
BITMAP
01FFFF00
01FFFF00
01FFFF00
01E00F00
01E00F00
01E00F00
01E00F00
01E00F00
01E00F00
01E00F00
01E00F00
01E00F00
01E00F00
01E00F00
01E00F00
01E00F00
01E00F00
01E00F00
01C00F00
01C00F00
03C00F00
03800F00
07800F00
0F000F00
3E000F00
FFFFFFC0
FFFFFFC0
FFFFFFC0
F00003C0
F00003C0
F00003C0
F00003C0
F00003C0
F00003C0
ENDCHAR
STARTCHAR 0415
ENCODING 1045
SWIDTH 668 0
DWIDTH 26 0
BBX 21 28 3 0
BITMAP
FFFFF0
FFFFF0
FFFFF0
F00000
F00000
F00000
F00000
F00000
F00000
F00000
F00000
F00000
FFFFE0
FFFFE0
FFFFE0
F00000
F00000
F00000
F00000
F00000
F00000
F00000
F00000
F00000
F00000
FFFFF8
FFFFF8
FFFFF8
ENDCHAR
STARTCHAR 0416
ENCODING 1046
SWIDTH 925 0
DWIDTH 36 0
BBX 36 28 0 0
BITMAP
3C00F003C0
3C00F003C0
1E00F00780
1E00F00F00
0F00F00F00
0F80F01E00
0780F01E00
03C0F03C00
03C0F07C00
01E0F07800
01F0F0F000
00F0F0F000
007FFFE000
007FFFE000
007FFFE000
00F0F0F000
01E0F07800
01E0F07800
03C0F03C00
0780F01E00
0780F01E00
0F00F00F00
1E00F00780
1E00F00780
3C00F003C0
7800F001E0
7800F001E0
F000F000F0
ENDCHAR
STARTCHAR 0417
ENCODING 1047
SWIDTH 591 0
DWIDTH 23 0
BBX 19 28 2 0
BITMAP
01F800
07FE00
1FFF00
1F0F80
3C07C0
3803C0
7801C0
7801C0
7801C0
0003C0
000780
000F80
00FF00
00FE00
00FF80
0007C0
0003E0
0001E0
0001E0
F001E0
F001E0
F001E0
7801E0
7C03C0
3F0FC0
1FFF80
0FFE00
03F800
ENDCHAR
STARTCHAR 0418
ENCODING 1048
SWIDTH 720 0
DWIDTH 28 0
BBX 22 28 3 0
BITMAP
F0003C
F0003C
F0003C
F0003C
F0007C
F000FC
F001FC
F003FC
F003FC
F007BC
F00F3C
F01E3C
F03E3C
F07C3C
F0F83C
F1F03C
F3E03C
F3C03C
F7803C
FF003C
FE003C
FE003C
FC003C
F8003C
F0003C
F0003C
F0003C
F0003C
ENDCHAR
STARTCHAR 0419
ENCODING 1049
SWIDTH 720 0
DWIDTH 28 0
BBX 22 36 3 0
BITMAP
060380
070380
078700
03FF00
01FE00
007000
000000
000000
F0003C
F0003C
F0003C
F0003C
F0007C
F000FC
F001FC
F003FC
F003FC
F007BC
F00F3C
F01E3C
F03E3C
F07C3C
F0F83C
F1F03C
F3E03C
F3C03C
F7803C
FF003C
FE003C
FE003C
FC003C
F8003C
F0003C
F0003C
F0003C
F0003C
ENDCHAR
STARTCHAR 041A
ENCODING 1050
SWIDTH 591 0
DWIDTH 23 0
BBX 19 28 2 0
BITMAP
F00780
F00780
F00F00
F01F00
F01E00
F03C00
F03C00
F07800
F07800
F0F000
F1E000
F1E000
FFC000
FFC000
FFC000
F1E000
F0F000
F0F000
F07800
F03C00
F03C00
F01E00
F00F00
F00F00
F00780
F003C0
F003C0
F001E0
ENDCHAR
STARTCHAR 041B
ENCODING 1051
SWIDTH 668 0
DWIDTH 26 0
BBX 24 28 0 0
BITMAP
07FFFF
07FFFF
07FFFF
07000F
07000F
07000F
07000F
07000F
07000F
07000F
07000F
07000F
07000F
07000F
07000F
07000F
07000F
07000F
07000F
07000F
07000F
0F000F
0F000F
1E000F
3E000F
FC000F
F8000F
E0000F
ENDCHAR
STARTCHAR 041C
ENCODING 1052
SWIDTH 822 0
DWIDTH 32 0
BBX 27 28 3 0
BITMAP
F80007E0
F80007E0
FC0007E0
FC000FE0
FC000FE0
EE000FE0
EE001DE0
EE001DE0
E7001DE0
E70039E0
E78039E0
E38039E0
E38071E0
E3C071E0
E1C071E0
E1C0E1E0
E1E0E1E0
E0E0E1E0
E0E1C1E0
E0F1C1E0
E071C1E0
E07381E0
E07B81E0
E03B81E0
E03F01E0
E03F01E0
E01F01E0
E01E01E0
ENDCHAR
STARTCHAR 041D
ENCODING 1053
SWIDTH 720 0
DWIDTH 28 0
BBX 22 28 3 0
BITMAP
F0003C
F0003C
F0003C
F0003C
F0003C
F0003C
F0003C
F0003C
F0003C
F0003C
F0003C
F0003C
FFFFFC
FFFFFC
FFFFFC
F0003C
F0003C
F0003C
F0003C
F0003C
F0003C
F0003C
F0003C
F0003C
F0003C
F0003C
F0003C
F0003C
ENDCHAR
STARTCHAR 041E
ENCODING 1054
SWIDTH 771 0
DWIDTH 30 0
BBX 28 28 1 0
BITMAP
003FC000
00FFF800
03FFFE00
07E07F00
0F801F80
1E000780
3E0003C0
3C0003E0
780001E0
780001E0
700000E0
700000F0
700000F0
F00000F0
F00000F0
700000F0
700000F0
780000E0
780001E0
780001E0
3C0001C0
3E0003C0
1F000780
0F801F80
07F07F00
03FFFC00
01FFF800
003FC000
ENDCHAR
STARTCHAR 041F
ENCODING 1055
SWIDTH 720 0
DWIDTH 28 0
BBX 22 28 3 0
BITMAP
FFFFFC
FFFFFC
FFFFFC
F0003C
F0003C
F0003C
F0003C
F0003C
F0003C
F0003C
F0003C
F0003C
F0003C
F0003C
F0003C
F0003C
F0003C
F0003C
F0003C
F0003C
F0003C
F0003C
F0003C
F0003C
F0003C
F0003C
F0003C
F0003C
ENDCHAR
STARTCHAR 0420
ENCODING 1056
SWIDTH 668 0
DWIDTH 26 0
BBX 20 28 4 0
BITMAP
FFFE00
FFFF80
FFFFC0
E007E0
E001E0
E000F0
E000F0
E000F0
E000F0
E000F0
E000F0
E001F0
E003E0
FFFFC0
FFFF80
FFFF00
E00000
E00000
E00000
E00000
E00000
E00000
E00000
E00000
E00000
E00000
E00000
E00000
ENDCHAR
STARTCHAR 0421
ENCODING 1057
SWIDTH 720 0
DWIDTH 28 0
BBX 25 28 2 0
BITMAP
007F8000
01FFE000
07FFF800
0FC1FC00
1F003E00
3C001E00
78000F00
78000F00
70000F00
F0000000
F0000000
E0000000
E0000000
E0000000
E0000000
E0000000
F0000000
F0000000
F0000780
70000F00
78000F00
7C000F00
3C001E00
1F003C00
0FC1FC00
07FFF000
03FFE000
007F0000
ENDCHAR
STARTCHAR 0422
ENCODING 1058
SWIDTH 617 0
DWIDTH 24 0
BBX 22 28 1 0
BITMAP
FFFFFC
FFFFFC
FFFFFC
007800
007800
007800
007800
007800
007800
007800
007800
007800
007800
007800
007800
007800
007800
007800
007800
007800
007800
007800
007800
007800
007800
007800
007800
007800
ENDCHAR
STARTCHAR 0423
ENCODING 1059
SWIDTH 642 0
DWIDTH 25 0
BBX 23 28 1 0
BITMAP
F0001E
F8001E
78003C
7C003C
3C0078
3E0078
1E00F8
1E00F0
0F00F0
0F01E0
0781E0
0783C0
03C3C0
03C380
01C780
01E780
01EF00
00FF00
00FE00
007E00
007C00
003C00
003800
007800
00F800
07F000
07E000
07C000
ENDCHAR
STARTCHAR 0424
ENCODING 1060
SWIDTH 771 0
DWIDTH 30 0
BBX 27 28 1 0
BITMAP
000F0000
000F0000
000F0000
001F0000
01FFF800
07FFFE00
1FFFFF00
3F0F0F80
3C0F07C0
780F03E0
780F01E0
F00F01E0
F00F00E0
F00F00E0
F00F00E0
F00F00E0
F00F01E0
780F01E0
780F03E0
3C0F07C0
3F0F0F80
1FFFFF00
07FFFE00
01FFF800
001F0000
000F0000
000F0000
000F0000
ENDCHAR
STARTCHAR 0425
ENCODING 1061
SWIDTH 668 0
DWIDTH 26 0
BBX 24 28 1 0
BITMAP
78001E
7C003E
3C003C
1E0078
1F00F8
0F00F0
0781E0
03C3C0
03C3C0
01E780
00FF00
00FF00
007E00
003C00
007E00
007E00
00FF00
01E780
03C7C0
03C3C0
0781E0
0F01F0
0F00F0
1E0078
3C007C
3C003C
78001E
F8001F
ENDCHAR
STARTCHAR 0426
ENCODING 1062
SWIDTH 745 0
DWIDTH 29 0
BBX 24 34 3 -6
BITMAP
F0003C
F0003C
F0003C
F0003C
F0003C
F0003C
F0003C
F0003C
F0003C
F0003C
F0003C
F0003C
F0003C
F0003C
F0003C
F0003C
F0003C
F0003C
F0003C
F0003C
F0003C
F0003C
F0003C
F0003C
F0003C
FFFFFF
FFFFFF
FFFFFF
000007
000007
000007
000007
000007
000007
ENDCHAR
STARTCHAR 0427
ENCODING 1063
SWIDTH 668 0
DWIDTH 26 0
BBX 21 28 2 0
BITMAP
E00038
E00038
E00038
E00038
E00038
E00038
E00038
E00038
E00038
E00038
E00038
F00038
F00038
F80038
7E01F8
7FFFF8
1FFFF8
07FF38
000038
000038
000038
000038
000038
000038
000038
000038
000038
000038
ENDCHAR
STARTCHAR 0428
ENCODING 1064
SWIDTH 925 0
DWIDTH 36 0
BBX 32 28 2 0
BITMAP
F003C00F
F003C00F
F003C00F
F003C00F
F003C00F
F003C00F
F003C00F
F003C00F
F003C00F
F003C00F
F003C00F
F003C00F
F003C00F
F003C00F
F003C00F
F003C00F
F003C00F
F003C00F
F003C00F
F003C00F
F003C00F
F003C00F
F003C00F
F003C00F
F003C00F
FFFFFFFF
FFFFFFFF
FFFFFFFF
ENDCHAR
STARTCHAR 0429
ENCODING 1065
SWIDTH 925 0
DWIDTH 36 0
BBX 34 35 2 -7
BITMAP
F003C00700
F003C00700
F003C00700
F003C00700
F003C00700
F003C00700
F003C00700
F003C00700
F003C00700
F003C00700
F003C00700
F003C00700
F003C00700
F003C00700
F003C00700
F003C00700
F003C00700
F003C00700
F003C00700
F003C00700
F003C00700
F003C00700
F003C00700
F003C00700
F003C00700
FFFFFFFFC0
FFFFFFFFC0
FFFFFFFFC0
00000001C0
00000001C0
00000001C0
00000001C0
00000001C0
00000001C0
00000001C0
ENDCHAR
STARTCHAR 042A
ENCODING 1066
SWIDTH 797 0
DWIDTH 31 0
BBX 31 28 -1 0
BITMAP
FFFC0000
FFFC0000
FFFC0000
003C0000
003C0000
003C0000
003C0000
003C0000
003C0000
003C0000
003C0000
003C0000
003FFFC0
003FFFF0
003FFFF8
003C00FC
003C003C
003C003C
003C001E
003C001E
003C001E
003C001E
003C003C
003C003C
003C00F8
003FFFF8
003FFFF0
003FFF80
ENDCHAR
STARTCHAR 042B
ENCODING 1067
SWIDTH 874 0
DWIDTH 34 0
BBX 28 28 3 0
BITMAP
F00000F0
F00000F0
F00000F0
F00000F0
F00000F0
F00000F0
F00000F0
F00000F0
F00000F0
F00000F0
F00000F0
F00000F0
FFFF80F0
FFFFE0F0
FFFFF0F0
F001F0F0
F00078F0
F00078F0
F00038F0
F00038F0
F00038F0
F00038F0
F00078F0
F000F8F0
F001F0F0
FFFFF0F0
FFFFC0F0
FFFF00F0
ENDCHAR
STARTCHAR 042C
ENCODING 1068
SWIDTH 668 0
DWIDTH 26 0
BBX 21 28 3 0
BITMAP
F00000
F00000
F00000
F00000
F00000
F00000
F00000
F00000
F00000
F00000
F00000
F00000
FFFF80
FFFFC0
FFFFE0
F001F0
F000F8
F00078
F00078
F00038
F00038
F00078
F00078
F000F8
F003F0
FFFFE0
FFFFC0
FFFF00
ENDCHAR
STARTCHAR 042D
ENCODING 1069
SWIDTH 720 0
DWIDTH 28 0
BBX 26 28 1 0
BITMAP
007F8000
03FFE000
0FFFF800
1FC1FC00
3E003E00
3C001F00
78000F80
F0000780
300003C0
000003C0
000003C0
000001C0
003FFFC0
003FFFC0
003FFFC0
000001C0
000001C0
000003C0
E00003C0
F0000380
F0000780
78000F80
3C001F00
3F003E00
1FC1FC00
0FFFF800
03FFE000
007F8000
ENDCHAR
STARTCHAR 042E
ENCODING 1070
SWIDTH 1002 0
DWIDTH 39 0
BBX 35 28 3 0
BITMAP
E0001FC000
E000FFF000
E003FFFC00
E007F07E00
E00F801F00
E00F000F80
E01E000780
E01C0003C0
E03C0003C0
E0380003C0
E0380001C0
E0780001E0
FFF80001E0
FFF80001E0
FFF80001E0
E0780001E0
E0780001E0
E0380001C0
E03C0003C0
E03C0003C0
E03E000380
E01E000780
E00F000F00
E00F801F00
E007F07E00
E003FFFC00
E000FFF000
E0003FC000
ENDCHAR
STARTCHAR 042F
ENCODING 1071
SWIDTH 720 0
DWIDTH 28 0
BBX 23 28 2 0
BITMAP
03FFFE
0FFFFE
1FFFFE
3F001E
3C001E
78001E
78001E
78001E
78001E
78001E
38001E
3C001E
1F001E
0FFFFE
07FFFE
1FFFFE
3E001E
3C001E
38001E
38001E
38001E
38001E
38001E
38001E
38001E
78001E
78001E
F0001E
ENDCHAR
STARTCHAR 0430
ENCODING 1072
SWIDTH 565 0
DWIDTH 22 0
BBX 19 20 2 0
BITMAP
07F800
1FFE00
3FFF00
7C1F00
700700
700700
000700
000700
00FF00
1FFF00
7FE700
F80700
F00700
E00700
E00700
E00F00
F03F80
7FFFE0
7FE7E0
1F83E0
ENDCHAR
STARTCHAR 0431
ENCODING 1073
SWIDTH 565 0
DWIDTH 22 0
BBX 18 30 2 0
BITMAP
000E00
000E00
000E00
001E00
003C00
03FC00
0FF800
1FE000
3E0000
380000
71F000
77FC00
7FFF00
FE0F00
F80780
F003C0
F003C0
F001C0
E001C0
E001C0
E001C0
E001C0
F001C0
F003C0
7003C0
780780
3E0F80
1FFF00
0FFE00
03F000
ENDCHAR
STARTCHAR 0432
ENCODING 1074
SWIDTH 540 0
DWIDTH 21 0
BBX 18 20 2 0
BITMAP
FFF800
FFFE00
FFFF00
F00700
F00780
F00780
F00780
F00F00
FFFE00
FFFE00
FFFF00
F00780
F00380
F003C0
F003C0
F00380
F00780
FFFF80
FFFF00
FFFC00
ENDCHAR
STARTCHAR 0433
ENCODING 1075
SWIDTH 360 0
DWIDTH 14 0
BBX 13 20 2 0
BITMAP
FFF8
FFF8
FFF8
F000
F000
F000
F000
F000
F000
F000
F000
F000
F000
F000
F000
F000
F000
F000
F000
F000
ENDCHAR
STARTCHAR 0434
ENCODING 1076
SWIDTH 591 0
DWIDTH 23 0
BBX 20 24 1 -4
BITMAP
03FFE0
03FFE0
03FFE0
0381E0
0381E0
0781E0
0781E0
0781E0
0701E0
0701E0
0701E0
0F01E0
0E01E0
1E01E0
1E01E0
3C01E0
7801E0
FFFFF0
FFFFF0
FFFFF0
E00070
E00070
E00070
E00070
ENDCHAR
STARTCHAR 0435
ENCODING 1077
SWIDTH 565 0
DWIDTH 22 0
BBX 18 20 2 0
BITMAP
03F000
0FFC00
1FFF00
3C1F00
780780
700380
F003C0
E003C0
FFFFC0
FFFFC0
FFFFC0
E00000
E00000
E00000
F00380
780780
7E0F00
3FFE00
1FFC00
03F000
ENDCHAR
STARTCHAR 0436
ENCODING 1078
SWIDTH 668 0
DWIDTH 26 0
BBX 26 20 0 0
BITMAP
781E0780
3C1E0F00
3C1E0F00
1E1E1E00
1E1E1E00
0F1E3C00
0F1E3C00
079E7800
07FFF800
03FFF000
07FFF800
079E7800
0F1E3C00
1E1E1E00
1E1E1E00
3C1E0F00
381E0700
781E0780
F01E03C0
F01E01C0
ENDCHAR
STARTCHAR 0437
ENCODING 1079
SWIDTH 462 0
DWIDTH 18 0
BBX 14 20 2 0
BITMAP
0FC0
1FF0
7FF8
7878
F03C
F03C
E03C
0078
07F0
07E0
07F8
0078
003C
E01C
E01C
E03C
F878
7FF8
3FF0
0FC0
ENDCHAR
STARTCHAR 0438
ENCODING 1080
SWIDTH 565 0
DWIDTH 22 0
BBX 16 20 3 0
BITMAP
E00F
E00F
E00F
E01F
E03F
E07F
E07F
E0EF
E1EF
E3CF
E38F
E70F
EF0F
FE0F
FC0F
F80F
F80F
F00F
E00F
E00F
ENDCHAR
STARTCHAR 0439
ENCODING 1081
SWIDTH 565 0
DWIDTH 22 0
BBX 16 28 3 0
BITMAP
301C
3818
1FF8
1FF0
07E0
0000
0000
0000
E00F
E00F
E00F
E01F
E03F
E07F
E07F
E0EF
E1EF
E3CF
E38F
E70F
EF0F
FE0F
FC0F
F80F
F80F
F00F
E00F
E00F
ENDCHAR
STARTCHAR 043A
ENCODING 1082
SWIDTH 437 0
DWIDTH 17 0
BBX 17 20 1 0
BITMAP
F00E00
F01E00
F01C00
F03C00
F07800
F07800
F0F000
F0F000
FFE000
FFE000
FFE000
F0F000
F07800
F07800
F03C00
F01E00
F01E00
F00F00
F00700
F00780
ENDCHAR
STARTCHAR 043B
ENCODING 1083
SWIDTH 591 0
DWIDTH 23 0
BBX 18 20 1 0
BITMAP
1FFFC0
1FFFC0
1FFFC0
1E01C0
1E01C0
1E01C0
1E01C0
1E01C0
1E01C0
1E01C0
1E01C0
1E01C0
1E01C0
1E01C0
1C01C0
3C01C0
3C01C0
F801C0
F001C0
C001C0
ENDCHAR
STARTCHAR 043C
ENCODING 1084
SWIDTH 694 0
DWIDTH 27 0
BBX 23 20 2 0
BITMAP
F8003E
F8007E
FC007E
FC007E
EC00EE
EE00EE
EE01CE
E701CE
E701CE
E3038E
E3838E
E3870E
E1C70E
E1C70E
E0CE0E
E0EE0E
E0FC0E
E07C0E
E07C0E
E0780E
ENDCHAR
STARTCHAR 043D
ENCODING 1085
SWIDTH 540 0
DWIDTH 21 0
BBX 16 20 3 0
BITMAP
E00F
E00F
E00F
E00F
E00F
E00F
E00F
E00F
FFFF
FFFF
FFFF
E00F
E00F
E00F
E00F
E00F
E00F
E00F
E00F
E00F
ENDCHAR
STARTCHAR 043E
ENCODING 1086
SWIDTH 565 0
DWIDTH 22 0
BBX 18 20 2 0
BITMAP
03F000
0FFC00
3FFE00
7C1F00
780780
F00380
F003C0
E003C0
E001C0
E001C0
E001C0
E001C0
E003C0
F003C0
F00380
780780
7C1F00
3FFE00
1FFC00
07F000
ENDCHAR
STARTCHAR 043F
ENCODING 1087
SWIDTH 540 0
DWIDTH 21 0
BBX 15 20 3 0
BITMAP
FFFE
FFFE
FFFE
E00E
E00E
E00E
E00E
E00E
E00E
E00E
E00E
E00E
E00E
E00E
E00E
E00E
E00E
E00E
E00E
E00E
ENDCHAR
STARTCHAR 0440
ENCODING 1088
SWIDTH 565 0
DWIDTH 22 0
BBX 18 28 2 -8
BITMAP
E1F800
E7FE00
EFFF00
FE1F80
F80780
F803C0
F003C0
F001C0
F001C0
F001C0
F001C0
F001C0
F001C0
F003C0
F803C0
FC0780
FE0F80
EFFF00
E7FE00
E1F800
E00000
E00000
E00000
E00000
E00000
E00000
E00000
E00000
ENDCHAR
STARTCHAR 0441
ENCODING 1089
SWIDTH 488 0
DWIDTH 19 0
BBX 17 20 1 0
BITMAP
03F000
0FFC00
1FFF00
3E0F00
380780
780380
700380
F00000
F00000
F00000
F00000
F00000
F00000
700380
780380
780780
3E0F00
1FFE00
0FFC00
03F000
ENDCHAR
STARTCHAR 0442
ENCODING 1090
SWIDTH 462 0
DWIDTH 18 0
BBX 15 20 1 0
BITMAP
FFFE
FFFE
FFFE
03C0
03C0
03C0
03C0
03C0
03C0
03C0
03C0
03C0
03C0
03C0
03C0
03C0
03C0
03C0
03C0
03C0
ENDCHAR
STARTCHAR 0443
ENCODING 1091
SWIDTH 488 0
DWIDTH 19 0
BBX 17 28 1 -8
BITMAP
E00380
F00380
700780
780700
780700
380F00
3C0E00
3C1E00
1C1C00
1E1C00
1E3C00
0E3800
0F3800
0F7800
077000
07F000
03E000
03E000
03E000
01C000
01C000
03C000
038000
078000
070000
7F0000
7E0000
7C0000
ENDCHAR
STARTCHAR 0444
ENCODING 1092
SWIDTH 822 0
DWIDTH 32 0
BBX 26 34 3 -8
BITMAP
001E0000
001E0000
001E0000
001E0000
001E0000
00FFC000
07FFF800
0FFFFC00
1F9E7F00
3C1E0F00
781E0780
701E03C0
F01E03C0
E01E01C0
E01E01C0
E01E01C0
E01E01C0
E01E01C0
F01E01C0
F01E03C0
701E0380
781E0780
3C1E0F00
1F9E7E00
0FFFFC00
07FFF800
007F8000
001E0000
001E0000
001E0000
001E0000
001E0000
001E0000
001E0000
ENDCHAR
STARTCHAR 0445
ENCODING 1093
SWIDTH 488 0
DWIDTH 19 0
BBX 17 20 1 0
BITMAP
F00780
780700
3C0F00
3C1E00
1E1C00
0F3C00
077800
07F000
03E000
01E000
03E000
03F000
07F000
0F7800
0E3C00
1E1C00
3C1E00
380F00
780700
F00780
ENDCHAR
STARTCHAR 0446
ENCODING 1094
SWIDTH 565 0
DWIDTH 22 0
BBX 17 26 3 -6
BITMAP
F00E00
F00E00
F00E00
F00E00
F00E00
F00E00
F00E00
F00E00
F00E00
F00E00
F00E00
F00E00
F00E00
F00E00
F00E00
F00E00
F00E00
FFFF80
FFFF80
FFFF80
000380
000380
000380
000380
000380
000380
ENDCHAR
STARTCHAR 0447
ENCODING 1095
SWIDTH 514 0
DWIDTH 20 0
BBX 15 20 2 0
BITMAP
E00E
E00E
E00E
E00E
E00E
E00E
E00E
E00E
F00E
F00E
F81E
7FFE
3FFE
0FCE
000E
000E
000E
000E
000E
000E
ENDCHAR
STARTCHAR 0448
ENCODING 1096
SWIDTH 797 0
DWIDTH 31 0
BBX 27 20 2 0
BITMAP
F00E01E0
F00E01E0
F00E01E0
F00E01E0
F00E01E0
F00E01E0
F00E01E0
F00E01E0
F00E01E0
F00E01E0
F00E01E0
F00E01E0
F00E01E0
F00E01E0
F00E01E0
F00E01E0
F00E01E0
FFFFFFE0
FFFFFFE0
FFFFFFE0
ENDCHAR
STARTCHAR 0449
ENCODING 1097
SWIDTH 822 0
DWIDTH 32 0
BBX 28 26 3 -6
BITMAP
E01C01C0
E01C01C0
E01C01C0
E01C01C0
E01C01C0
E01C01C0
E01C01C0
E01C01C0
E01C01C0
E01C01C0
E01C01C0
E01C01C0
E01C01C0
E01C01C0
E01C01C0
E01C01C0
E01C01C0
FFFFFFF0
FFFFFFF0
FFFFFFF0
000000F0
000000F0
000000F0
000000F0
000000F0
000000F0
ENDCHAR
STARTCHAR 044A
ENCODING 1098
SWIDTH 617 0
DWIDTH 24 0
BBX 25 20 -1 0
BITMAP
FFF00000
FFF00000
FFF00000
00F00000
00F00000
00F00000
00F00000
00F00000
00FFF800
00FFFE00
00FFFF00
00F00F00
00F00700
00F00780
00F00780
00F00700
00F00F00
00FFFF00
00FFFE00
00FFF800
ENDCHAR
STARTCHAR 044B
ENCODING 1099
SWIDTH 720 0
DWIDTH 28 0
BBX 22 20 3 0
BITMAP
E0001C
E0001C
E0001C
E0001C
E0001C
E0001C
E0001C
E0001C
FFF81C
FFFC1C
FFFE1C
E00F1C
E0071C
E0071C
E0071C
E0071C
E00F1C
FFFE1C
FFFE1C
FFF81C
ENDCHAR
STARTCHAR 044C
ENCODING 1100
SWIDTH 514 0
DWIDTH 20 0
BBX 16 20 3 0
BITMAP
E000
E000
E000
E000
E000
E000
E000
E000
FFF0
FFFC
FFFE
E01E
E00F
E007
E007
E00F
E00F
FFFE
FFFC
FFF0
ENDCHAR
STARTCHAR 044D
ENCODING 1101
SWIDTH 514 0
DWIDTH 20 0
BBX 18 20 1 0
BITMAP
03F000
1FFC00
3FFE00
7C1F00
780780
F00380
2003C0
0003C0
01FFC0
01FFC0
01FFC0
0001C0
2003C0
F003C0
F00380
780780
7C1F00
3FFE00
1FFC00
07F000
ENDCHAR
STARTCHAR 044E
ENCODING 1102
SWIDTH 745 0
DWIDTH 29 0
BBX 26 20 2 0
BITMAP
E003F000
E00FFC00
E01FFF00
E03E0F80
E0780780
E07003C0
E0F003C0
E0F001C0
FFE001C0
FFE001C0
FFE001C0
E0E001C0
E0F001C0
E0F003C0
E07003C0
E0780780
E03E0F80
E03FFF00
E00FFC00
E003F000
ENDCHAR
STARTCHAR 044F
ENCODING 1103
SWIDTH 540 0
DWIDTH 21 0
BBX 16 20 2 0
BITMAP
0FFF
3FFF
7FFF
F007
E007
E007
E007
F007
F007
7FFF
3FFF
1FFF
3C07
7807
7007
7007
7007
7007
7007
7007
ENDCHAR
STARTCHAR 0450
ENCODING 1104
SWIDTH 565 0
DWIDTH 22 0
BBX 18 28 2 0
BITMAP
0F0000
078000
038000
01C000
00E000
006000
000000
000000
03F000
0FFC00
3FFE00
3C1F00
780780
F00380
E003C0
E003C0
FFFFC0
FFFFC0
FFFFC0
E00000
E00000
E00000
F00380
780780
7C0F00
3FFE00
1FFC00
07F000
ENDCHAR
STARTCHAR 0451
ENCODING 1105
SWIDTH 565 0
DWIDTH 22 0
BBX 18 28 2 0
BITMAP
0F3C00
0F3C00
0F3C00
0F3C00
000000
000000
000000
000000
03F000
0FFC00
1FFF00
3C1F00
780780
700380
F003C0
E003C0
FFFFC0
FFFFC0
FFFFC0
E00000
E00000
E00000
F00380
780780
7E0F00
3FFF00
0FFC00
03F000
ENDCHAR
STARTCHAR 0452
ENCODING 1106
SWIDTH 565 0
DWIDTH 22 0
BBX 20 33 -1 -5
BITMAP
0E0000
0E0000
0E0000
FFF000
FFF000
FFF000
0E0000
0E0000
0E1F80
0E3FC0
0EFFE0
0FE1F0
0FC0F0
0F0070
0F0070
0E0070
0E0070
0E0070
0E0070
0E0070
0E0070
0E0070
0E0070
0E0070
0E0070
0E0070
0E0070
0E0070
0000F0
0001E0
00FFC0
00FF80
00FE00
ENDCHAR
STARTCHAR 0453
ENCODING 1107
SWIDTH 360 0
DWIDTH 14 0
BBX 13 28 2 0
BITMAP
01E0
03C0
0780
0700
0E00
1C00
0000
0000
FFF8
FFF8
FFF8
F000
F000
F000
F000
F000
F000
F000
F000
F000
F000
F000
F000
F000
F000
F000
F000
F000
ENDCHAR
STARTCHAR 0454
ENCODING 1108
SWIDTH 514 0
DWIDTH 20 0
BBX 18 20 1 0
BITMAP
03F000
0FFC00
1FFF00
3C1F80
780780
7003C0
F00300
E00000
FFE000
FFE000
FFE000
E00000
F00100
F003C0
7003C0
780780
3E0F00
1FFF00
0FFC00
03F000
ENDCHAR
STARTCHAR 0455
ENCODING 1109
SWIDTH 488 0
DWIDTH 19 0
BBX 17 20 1 0
BITMAP
07F000
1FFC00
3FFE00
7C1F00
780F00
700700
700000
7C0000
3F8000
1FF800
07FE00
007F00
000780
000780
F00780
700780
7C0F00
3FFE00
1FFC00
07F000
ENDCHAR
STARTCHAR 0456
ENCODING 1110
SWIDTH 231 0
DWIDTH 9 0
BBX 3 28 3 0
BITMAP
E0
E0
E0
E0
00
00
00
00
E0
E0
E0
E0
E0
E0
E0
E0
E0
E0
E0
E0
E0
E0
E0
E0
E0
E0
E0
E0
ENDCHAR
STARTCHAR 0457
ENCODING 1111
SWIDTH 282 0
DWIDTH 11 0
BBX 11 28 0 0
BITMAP
F1E0
F1E0
F1E0
F1E0
0000
0000
0000
0000
0E00
0E00
0E00
0E00
0E00
0E00
0E00
0E00
0E00
0E00
0E00
0E00
0E00
0E00
0E00
0E00
0E00
0E00
0E00
0E00
ENDCHAR
STARTCHAR 0458
ENCODING 1112
SWIDTH 231 0
DWIDTH 9 0
BBX 7 37 -1 -9
BITMAP
0E
0E
0E
0E
00
00
00
00
0E
0E
0E
0E
0E
0E
0E
0E
0E
0E
0E
0E
0E
0E
0E
0E
0E
0E
0E
0E
0E
0E
0E
0E
0E
1E
FE
FC
F0
ENDCHAR
STARTCHAR 0459
ENCODING 1113
SWIDTH 900 0
DWIDTH 35 0
BBX 32 20 1 0
BITMAP
1FFFE000
1FFFE000
1FFFE000
1E00E000
1E00E000
1E00E000
1E00E000
1E00E000
1E00FFF0
1E00FFFC
1E00FFFE
1E00E01E
1E00E00F
1E00E00F
1C00E00F
3C00E00F
3C00E01E
F800FFFE
F000FFFC
C000FFF0
ENDCHAR
STARTCHAR 045A
ENCODING 1114
SWIDTH 822 0
DWIDTH 32 0
BBX 29 20 2 0
BITMAP
E0070000
E0070000
E0070000
E0070000
E0070000
E0070000
E0070000
E0070000
FFFFFF80
FFFFFFE0
FFFFFFF0
E00700F0
E0070078
E0070038
E0070038
E0070078
E00700F8
E007FFF0
E007FFE0
E007FF80
ENDCHAR
STARTCHAR 045B
ENCODING 1115
SWIDTH 565 0
DWIDTH 22 0
BBX 20 28 -1 0
BITMAP
0E0000
0E0000
0E0000
FFF000
FFF000
FFF000
0E0000
0E0000
0E1F80
0E3FC0
0EFFE0
0FE1F0
0FC0F0
0F0070
0F0070
0E0070
0E0070
0E0070
0E0070
0E0070
0E0070
0E0070
0E0070
0E0070
0E0070
0E0070
0E0070
0E0070
ENDCHAR
STARTCHAR 045C
ENCODING 1116
SWIDTH 437 0
DWIDTH 17 0
BBX 17 28 1 0
BITMAP
00F000
01E000
01C000
038000
070000
060000
000000
000000
F00E00
F01E00
F01C00
F03C00
F07800
F07800
F0F000
F0F000
FFE000
FFE000
FFE000
F0F000
F07800
F07800
F03C00
F01E00
F01E00
F00F00
F00700
F00780
ENDCHAR
STARTCHAR 045D
ENCODING 1117
SWIDTH 565 0
DWIDTH 22 0
BBX 16 28 3 0
BITMAP
3C00
1E00
0F00
0700
0380
01C0
0000
0000
E00F
E00F
E00F
E01F
E03F
E07F
E07F
E0EF
E1EF
E3CF
E38F
E70F
EF0F
FE0F
FC0F
F80F
F80F
F00F
E00F
E00F
ENDCHAR
STARTCHAR 045E
ENCODING 1118
SWIDTH 488 0
DWIDTH 19 0
BBX 17 36 1 -8
BITMAP
180E00
1C0C00
1FFC00
0FF800
03E000
000000
000000
000000
E00380
F00380
700780
780700
780700
380F00
3C0E00
3C1E00
1C1C00
1E1C00
1E3C00
0E3800
0F3800
0F7800
077000
07F000
03E000
03E000
03E000
01C000
01C000
03C000
038000
078000
070000
7F0000
7E0000
7C0000
ENDCHAR
STARTCHAR 045F
ENCODING 1119
SWIDTH 540 0
DWIDTH 21 0
BBX 15 26 3 -6
BITMAP
E00E
E00E
E00E
E00E
E00E
E00E
E00E
E00E
E00E
E00E
E00E
E00E
E00E
E00E
E00E
E00E
E00E
FFFE
FFFE
FFFE
0380
0380
0380
0380
0380
0380
ENDCHAR
STARTCHAR 0462
ENCODING 1122
SWIDTH 771 0
DWIDTH 30 0
BBX 28 28 0 0
BITMAP
01E00000
01E00000
01E00000
FFFFC000
FFFFC000
FFFFC000
01E00000
01E00000
01E00000
01E00000
01E00000
01E00000
01FFFF00
01FFFFC0
01FFFFE0
01E003E0
01E000F0
01E000F0
01E00070
01E00070
01E00070
01E00070
01E000F0
01E001F0
01E003E0
01FFFFE0
01FFFF80
01FFFE00
ENDCHAR
STARTCHAR 0463
ENCODING 1123
SWIDTH 617 0
DWIDTH 24 0
BBX 19 26 2 0
BITMAP
1C0000
1C0000
1C0000
1C0000
1C0000
1C0000
FF8000
FF8000
FF8000
1C0000
1C0000
1C0000
1C0000
1C0000
1FFF00
1FFF80
1FFFC0
1C01E0
1C01E0
1C00E0
1C00E0
1C00E0
1C01E0
1FFFC0
1FFF80
1FFE00
ENDCHAR
STARTCHAR 0472
ENCODING 1138
SWIDTH 771 0
DWIDTH 30 0
BBX 28 28 1 0
BITMAP
003FC000
00FFF800
03FFFE00
07F07F00
0F801F80
1E000780
3C0003C0
3C0001E0
780001E0
780000E0
700000F0
71F800F0
7FFE00F0
FFFF07F0
FC0FFFF0
7003FFF0
7001F0F0
780000E0
780001E0
780001E0
3C0003C0
3E0003C0
1F000780
0F801F80
07F07F00
03FFFC00
00FFF800
003FC000
ENDCHAR
STARTCHAR 0473
ENCODING 1139
SWIDTH 565 0
DWIDTH 22 0
BBX 18 20 2 0
BITMAP
03F000
0FFC00
3FFE00
3E1F00
780780
F00780
F003C0
E003C0
E783C0
FFC7C0
FFFFC0
F0FFC0
E073C0
E003C0
F00380
780780
7C1F00
3FFF00
1FFC00
07F000
ENDCHAR
STARTCHAR 0474
ENCODING 1140
SWIDTH 797 0
DWIDTH 31 0
BBX 26 28 3 0
BITMAP
F00007C0
78000FC0
78001FC0
38001FC0
3C003C00
3C003C00
1C003800
1E007800
1E007800
0E007000
0F007000
0F00F000
0700E000
0780E000
0381E000
03C1C000
03C1C000
01C1C000
01E38000
01E38000
00E38000
00F70000
00F70000
00770000
007E0000
003E0000
003E0000
003E0000
ENDCHAR
STARTCHAR 0475
ENCODING 1141
SWIDTH 642 0
DWIDTH 25 0
BBX 19 20 3 0
BITMAP
F001E0
7007E0
7807E0
780F00
380E00
3C0E00
3C0E00
1C1C00
1C1C00
1E1C00
0E1C00
0E3800
073800
073800
073000
03F000
03F000
03E000
01E000
01E000
ENDCHAR
STARTCHAR 0490
ENCODING 1168
SWIDTH 488 0
DWIDTH 19 0
BBX 23 34 2 0
BITMAP
00003E
00003C
000078
000070
0000E0
0001C0
FFFF80
FFFF80
FFFF80
F00000
F00000
F00000
F00000
F00000
F00000
F00000
F00000
F00000
F00000
F00000
F00000
F00000
F00000
F00000
F00000
F00000
F00000
F00000
F00000
F00000
F00000
F00000
F00000
F00000
ENDCHAR
STARTCHAR 0491
ENCODING 1169
SWIDTH 411 0
DWIDTH 16 0
BBX 18 26 3 0
BITMAP
0003C0
000780
000700
000E00
001C00
001800
FFF800
FFF800
FFF800
F00000
F00000
F00000
F00000
F00000
F00000
F00000
F00000
F00000
F00000
F00000
F00000
F00000
F00000
F00000
F00000
F00000
ENDCHAR
STARTCHAR 0492
ENCODING 1170
SWIDTH 540 0
DWIDTH 21 0
BBX 20 28 1 0
BITMAP
3FFFF0
3FFFF0
3FFFF0
3C0000
3C0000
3C0000
3C0000
3C0000
3C0000
3C0000
3C0000
3C0000
FFFF00
FFFF00
FFFF00
3C0000
3C0000
3C0000
3C0000
3C0000
3C0000
3C0000
3C0000
3C0000
3C0000
3C0000
3C0000
3C0000
ENDCHAR
STARTCHAR 0493
ENCODING 1171
SWIDTH 385 0
DWIDTH 15 0
BBX 14 20 1 0
BITMAP
3FFC
3FFC
3FFC
3800
3800
3800
3800
3800
FFE0
FFE0
FFE0
3800
3800
3800
3800
3800
3800
3800
3800
3800
ENDCHAR
STARTCHAR 0496
ENCODING 1174
SWIDTH 1028 0
DWIDTH 40 0
BBX 40 34 0 -6
BITMAP
3C007800F0
1E007801E0
1E007801E0
0F007803C0
0F807807C0
0780780780
03C0780F00
03C0780F00
01E0781E00
01E0783E00
00F0783C00
0078787800
007FFFF800
003FFFF000
007FFFF800
00F0783C00
00F0783C00
01E0781E00
03C0780F00
03C0780F00
0780780780
0F007803C0
0F007803C0
1E007801E0
3C007800F0
3C007800FF
780078007F
F00078003F
000000000F
000000000F
000000000F
000000000F
000000000F
000000000F
ENDCHAR
STARTCHAR 0497
ENCODING 1175
SWIDTH 822 0
DWIDTH 32 0
BBX 32 26 0 -6
BITMAP
3C038078
3C0380F0
1E0380F0
0E0381E0
0F0381E0
070383C0
07838380
03838780
03FFFF00
01FFFF00
03FFFF80
07838780
078383C0
0F0381E0
1E0381E0
1E0380F0
3C0380F8
3803807F
7803803F
F003803F
00000007
00000007
00000007
00000007
00000007
00000007
ENDCHAR
STARTCHAR 0498
ENCODING 1176
SWIDTH 591 0
DWIDTH 23 0
BBX 19 37 2 -9
BITMAP
01F800
07FE00
0FFF00
1F0F80
3C07C0
3C03C0
7801C0
7801C0
7801C0
0001C0
0003C0
000780
00FF80
00FE00
00FF00
00FFC0
0003C0
0001E0
0001E0
0000E0
F000E0
F000E0
7001E0
7801E0
7C03C0
3E07C0
1FFF80
0FFF00
03FC00
00C000
00E000
01F800
003C00
001C00
0C3800
0FF000
00C000
ENDCHAR
STARTCHAR 0499
ENCODING 1177
SWIDTH 462 0
DWIDTH 18 0
BBX 14 29 2 -9
BITMAP
0FC0
1FF0
7FF8
7878
F03C
F03C
E03C
0038
0078
07F0
07E0
07F8
0078
003C
E01C
E01C
E03C
F878
7FF8
3FF0
0FC0
0200
07C0
07E0
00E0
00E0
30E0
3FC0
0600
ENDCHAR
STARTCHAR 049A
ENCODING 1178
SWIDTH 668 0
DWIDTH 26 0
BBX 21 34 3 -6
BITMAP
F00780
F00780
F00F00
F01E00
F01E00
F03C00
F03C00
F07800
F07800
F0F000
F1E000
F1E000
FFC000
FFC000
FFC000
F1E000
F0F000
F0F000
F07800
F03C00
F03C00
F01E00
F00F00
F00F00
F00780
F003F8
F003F8
F001F8
000038
000038
000038
000038
000038
000038
ENDCHAR
STARTCHAR 049B
ENCODING 1179
SWIDTH 540 0
DWIDTH 21 0
BBX 18 26 3 -6
BITMAP
E01E00
E03C00
E03C00
E07800
E07800
E0F000
E0F000
E1E000
FFE000
FFC000
FFE000
E1E000
E0F000
E07800
E07800
E03C00
E01E00
E01FC0
E00FC0
E00FC0
0001C0
0001C0
0001C0
0001C0
0001C0
0001C0
ENDCHAR
STARTCHAR 049C
ENCODING 1180
SWIDTH 617 0
DWIDTH 24 0
BBX 21 28 3 0
BITMAP
F001E0
F003C0
F003C0
F00780
F00F00
F30F00
F31E00
F31E00
F33C00
F37C00
F37800
F3F000
FFF000
FFE000
FFF000
F37800
F37800
F33C00
F31E00
F31E00
F30F00
F30780
F00780
F003C0
F001E0
F001E0
F000F0
F00078
ENDCHAR
STARTCHAR 049D
ENCODING 1181
SWIDTH 514 0
DWIDTH 20 0
BBX 16 20 3 0
BITMAP
E01E
E03C
E03C
E678
E678
E6F0
E6F0
E7E0
FFE0
FFC0
FFE0
E7E0
E6F0
E678
E678
E63C
E01C
E01E
E00F
E00F
ENDCHAR
STARTCHAR 04A0
ENCODING 1184
SWIDTH 591 0
DWIDTH 23 0
BBX 29 28 -8 0
BITMAP
FFFC01E0
FFFC01E0
FFFC03C0
003C07C0
003C0780
003C0F00
003C0F00
003C1E00
003C1E00
003C3C00
003C7800
003C7800
003FF000
003FF000
003FF000
003C7800
003C3C00
003C3C00
003C1E00
003C0F00
003C0F00
003C0780
003C03C0
003C03C0
003C01E0
003C00F0
003C00F0
003C0078
ENDCHAR
STARTCHAR 04A1
ENCODING 1185
SWIDTH 437 0
DWIDTH 17 0
BBX 25 20 -7 0
BITMAP
FFF00E00
FFF01E00
FFF01C00
00F03C00
00F07800
00F07800
00F0F000
00F0F000
00FFE000
00FFE000
00FFE000
00F0F000
00F07800
00F07800
00F03C00
00F01E00
00F01E00
00F00F00
00F00700
00F00780
ENDCHAR
STARTCHAR 04A2
ENCODING 1186
SWIDTH 720 0
DWIDTH 28 0
BBX 24 35 3 -7
BITMAP
F0003C
F0003C
F0003C
F0003C
F0003C
F0003C
F0003C
F0003C
F0003C
F0003C
F0003C
F0003C
FFFFFC
FFFFFC
FFFFFC
F0003C
F0003C
F0003C
F0003C
F0003C
F0003C
F0003C
F0003C
F0003C
F0003C
F0003F
F0003F
F0003F
00000F
00000F
00000F
00000F
00000F
00000F
00000F
ENDCHAR
STARTCHAR 04A3
ENCODING 1187
SWIDTH 540 0
DWIDTH 21 0
BBX 17 26 3 -6
BITMAP
E00F00
E00F00
E00F00
E00F00
E00F00
E00F00
E00F00
E00F00
FFFF00
FFFF00
FFFF00
E00F00
E00F00
E00F00
E00F00
E00F00
E00F00
E00F80
E00F80
E00F80
000380
000380
000380
000380
000380
000380
ENDCHAR
STARTCHAR 04AA
ENCODING 1194
SWIDTH 720 0
DWIDTH 28 0
BBX 24 37 2 -9
BITMAP
007F80
03FFE0
07FFF0
0FC3F8
1F007C
3E001E
3C001E
78000E
78000F
700000
F00000
F00000
F00000
F00000
E00000
F00000
F00000
F00000
F00007
F0000F
78000F
78000F
3C001E
3E001E
1F003C
0FC0FC
07FFF8
03FFE0
00FF80
001800
001C00
001F00
000380
000380
00C700
00FF00
001800
ENDCHAR
STARTCHAR 04AB
ENCODING 1195
SWIDTH 488 0
DWIDTH 19 0
BBX 18 29 1 -9
BITMAP
03F000
0FFC00
1FFF00
3E0F00
3C0780
780380
700380
700000
F00000
F00000
F00000
F00000
F00000
F003C0
700380
780380
7C0780
3E0F00
1FFF00
0FFC00
03F000
00C000
00F000
01F800
003800
001800
0C3800
0FF000
00C000
ENDCHAR
STARTCHAR 04AE
ENCODING 1198
SWIDTH 668 0
DWIDTH 26 0
BBX 24 28 1 0
BITMAP
F0000F
F8000F
7C001E
3C003E
3E003C
1E0078
0F0078
0F80F0
0781E0
03C1E0
03C3C0
01E3C0
01F780
00FF00
007F00
007E00
003C00
003C00
003C00
003C00
003C00
003C00
003C00
003C00
003C00
003C00
003C00
003C00
ENDCHAR
STARTCHAR 04AF
ENCODING 1199
SWIDTH 488 0
DWIDTH 19 0
BBX 17 28 1 -8
BITMAP
E00380
F00380
700780
780700
780700
380F00
3C0E00
1C0E00
1C1E00
1E1C00
0E1C00
0E3800
0F3800
077800
077000
07F000
03F000
03E000
01E000
01E000
01C000
01C000
01C000
01C000
01C000
01C000
01C000
01C000
ENDCHAR
STARTCHAR 04B0
ENCODING 1200
SWIDTH 668 0
DWIDTH 26 0
BBX 24 28 1 0
BITMAP
F0000F
F8000F
78001E
3C003E
3E003C
1E0078
0F0078
0F00F0
0781E0
07C1E0
03C3C0
01E3C0
01F780
00FF00
007F00
007E00
003E00
003C00
003C00
003C00
0FFFF0
0FFFF0
0FFFF0
003C00
003C00
003C00
003C00
003C00
ENDCHAR
STARTCHAR 04B1
ENCODING 1201
SWIDTH 488 0
DWIDTH 19 0
BBX 17 28 1 -8
BITMAP
E00380
F00380
700780
780700
780700
380F00
3C0E00
1C0E00
1C1E00
1E1C00
0E1C00
0E3800
0F3800
077800
077000
07F000
03F000
03E000
01E000
01E000
3FFE00
3FFE00
01C000
01C000
01C000
01C000
01C000
01C000
ENDCHAR
STARTCHAR 04B2
ENCODING 1202
SWIDTH 720 0
DWIDTH 28 0
BBX 26 34 1 -6
BITMAP
78001E00
7C003E00
3C003C00
1E007800
1F00F800
0F00F000
0781E000
03C3C000
03C3C000
01E78000
00FF0000
00FF0000
007E0000
003C0000
007E0000
007E0000
00FF0000
01E78000
03C7C000
03C3C000
0781E000
0F01F000
0F00F000
1E007800
3C007C00
3C003FC0
78001FC0
F8001FC0
000003C0
000003C0
000003C0
000003C0
000003C0
000003C0
ENDCHAR
STARTCHAR 04B3
ENCODING 1203
SWIDTH 540 0
DWIDTH 21 0
BBX 19 26 1 -6
BITMAP
F00780
780700
380F00
3C1E00
1E3C00
0E3800
0F7800
07F000
03E000
01E000
03E000
03F000
077000
0F7800
0E3C00
1C1C00
3C1E00
380FE0
7007E0
F007E0
0001E0
0001E0
0001E0
0001E0
0001E0
0001E0
ENDCHAR
STARTCHAR 04B6
ENCODING 1206
SWIDTH 694 0
DWIDTH 27 0
BBX 24 35 2 -7
BITMAP
F0003C
F0003C
F0003C
F0003C
F0003C
F0003C
F0003C
F0003C
F0003C
F0003C
F0003C
F0003C
F0003C
78003C
7E00FC
3FFFFC
1FFFFC
07FF3C
00003C
00003C
00003C
00003C
00003C
00003C
00003C
00003F
00003F
00003F
00000F
00000F
00000F
00000F
00000F
00000F
00000F
ENDCHAR
STARTCHAR 04B7
ENCODING 1207
SWIDTH 514 0
DWIDTH 20 0
BBX 16 26 2 -6
BITMAP
E00E
E00E
E00E
E00E
E00E
E00E
E00E
E00E
E00E
F00E
F81E
7FFE
3FFE
1FCE
000E
000E
000E
000F
000F
000F
0007
0007
0007
0007
0007
0007
ENDCHAR
STARTCHAR 04B8
ENCODING 1208
SWIDTH 694 0
DWIDTH 27 0
BBX 22 28 2 0
BITMAP
F0003C
F0003C
F0003C
F0003C
F0003C
F0003C
F0003C
F0303C
F0303C
F0303C
F0303C
F0303C
F0303C
78303C
7C307C
3FFFFC
1FFFFC
07FFFC
00303C
00303C
00303C
00303C
00303C
00303C
00003C
00003C
00003C
00003C
ENDCHAR
STARTCHAR 04B9
ENCODING 1209
SWIDTH 514 0
DWIDTH 20 0
BBX 15 20 2 0
BITMAP
E00E
E00E
E00E
E00E
E00E
E00E
E18E
E18E
F18E
F18E
7FFE
7FFE
3FFE
018E
018E
018E
018E
000E
000E
000E
ENDCHAR
STARTCHAR 04BA
ENCODING 1210
SWIDTH 694 0
DWIDTH 27 0
BBX 22 28 2 0
BITMAP
F00000
F00000
F00000
F00000
F00000
F00000
F00000
F00000
F00000
F00000
F3FF80
FFFFE0
FFFFF0
FC01F8
F0007C
F0003C
F0003C
F0003C
F0003C
F0003C
F0003C
F0003C
F0003C
F0003C
F0003C
F0003C
F0003C
F0003C
ENDCHAR
STARTCHAR 04BB
ENCODING 1211
SWIDTH 565 0
DWIDTH 22 0
BBX 16 28 3 0
BITMAP
E000
E000
E000
E000
E000
E000
E000
E000
E0F8
E3FC
E7FE
EE1F
FC07
F807
F007
E007
E007
E007
E007
E007
E007
E007
E007
E007
E007
E007
E007
E007
ENDCHAR
STARTCHAR 04C0
ENCODING 1216
SWIDTH 282 0
DWIDTH 11 0
BBX 3 28 4 0
BITMAP
E0
E0
E0
E0
E0
E0
E0
E0
E0
E0
E0
E0
E0
E0
E0
E0
E0
E0
E0
E0
E0
E0
E0
E0
E0
E0
E0
E0
ENDCHAR
STARTCHAR 04CB
ENCODING 1227
SWIDTH 668 0
DWIDTH 26 0
BBX 21 35 2 -7
BITMAP
E00038
E00038
E00038
E00038
E00038
E00038
E00038
E00038
E00038
E00038
E00038
F00038
F00038
F80038
7E01F8
7FFFF8
1FFFF8
07FF38
000038
000038
000038
000038
000038
000038
000038
0000F8
0000F8
0000F8
0000E0
0000E0
0000E0
0000E0
0000E0
0000E0
0000E0
ENDCHAR
STARTCHAR 04CC
ENCODING 1228
SWIDTH 514 0
DWIDTH 20 0
BBX 15 26 2 -6
BITMAP
E00E
E00E
E00E
E00E
E00E
E00E
E00E
F00E
F00E
F81E
7FFE
3FFE
0FCE
000E
000E
000E
000E
003E
003E
003E
0038
0038
0038
0038
0038
0038
ENDCHAR
STARTCHAR 04CF
ENCODING 1231
SWIDTH 282 0
DWIDTH 11 0
BBX 3 28 4 0
BITMAP
E0
E0
E0
E0
E0
E0
E0
E0
E0
E0
E0
E0
E0
E0
E0
E0
E0
E0
E0
E0
E0
E0
E0
E0
E0
E0
E0
E0
ENDCHAR
STARTCHAR 04D8
ENCODING 1240
SWIDTH 771 0
DWIDTH 30 0
BBX 28 28 1 0
BITMAP
003FC000
00FFF800
03FFFE00
07E07F00
0F801F80
1E0007C0
3C0003C0
3C0001E0
000001E0
000000E0
000000F0
000000F0
FFFFFFF0
FFFFFFF0
FFFFFFF0
700000F0
700000F0
780000E0
780001E0
780001E0
3C0003C0
3E0003C0
1F000780
0F801F80
07F07F00
03FFFC00
00FFF800
003FC000
ENDCHAR
STARTCHAR 04D9
ENCODING 1241
SWIDTH 565 0
DWIDTH 22 0
BBX 18 20 2 0
BITMAP
07F000
1FFC00
3FFE00
7C1F00
700780
F00380
E003C0
0003C0
0001C0
FFFFC0
FFFFC0
FFFFC0
E003C0
E00380
F00380
780780
7C1F00
3FFE00
1FFC00
03F000
ENDCHAR
STARTCHAR 04E2
ENCODING 1250
SWIDTH 720 0
DWIDTH 28 0
BBX 22 32 3 0
BITMAP
03FF80
03FF80
03FF80
000000
F0003C
F0003C
F0003C
F0003C
F0007C
F000FC
F001FC
F003FC
F003FC
F007BC
F00F3C
F01E3C
F03E3C
F07C3C
F0F83C
F1F03C
F3E03C
F3C03C
F7803C
FF003C
FE003C
FE003C
FC003C
F8003C
F0003C
F0003C
F0003C
F0003C
ENDCHAR
STARTCHAR 04E3
ENCODING 1251
SWIDTH 565 0
DWIDTH 22 0
BBX 16 25 3 0
BITMAP
3FF8
3FF8
3FF8
0000
0000
E00F
E00F
E00F
E01F
E03F
E07F
E07F
E0EF
E1EF
E3CF
E38F
E70F
EF0F
FE0F
FC0F
F80F
F80F
F00F
E00F
E00F
ENDCHAR
STARTCHAR 04E8
ENCODING 1256
SWIDTH 771 0
DWIDTH 30 0
BBX 28 28 1 0
BITMAP
003FC000
01FFF800
03FFFE00
07F07F00
0F801F80
1E0007C0
3C0003C0
3C0001E0
780001E0
780000E0
700000F0
700000F0
7FFFFFF0
FFFFFFF0
FFFFFFF0
700000F0
700000F0
780000E0
780001E0
780001E0
3C0003C0
3E0003C0
1F000780
0F801F00
07F07F00
03FFFC00
01FFF800
003FC000
ENDCHAR
STARTCHAR 04E9
ENCODING 1257
SWIDTH 565 0
DWIDTH 22 0
BBX 18 20 2 0
BITMAP
03F000
0FFC00
3FFE00
3C1F00
780780
F00780
F003C0
E003C0
E003C0
FFFFC0
FFFFC0
FFFFC0
E003C0
E003C0
F00380
780780
7C1F00
3FFE00
1FFC00
07F000
ENDCHAR
STARTCHAR 04EE
ENCODING 1262
SWIDTH 642 0
DWIDTH 25 0
BBX 23 34 1 0
BITMAP
01FF80
01FF80
01FF80
000000
000000
000000
F0001E
F8001E
78003C
7C003C
3C0078
3E0078
1E00F8
1E00F0
0F00F0
0F01E0
0781E0
0783C0
03C3C0
03C380
01C780
01E780
01EF00
00FF00
00FE00
007E00
007C00
003C00
003800
007800
00F800
07F000
07E000
07C000
ENDCHAR
STARTCHAR 04EF
ENCODING 1263
SWIDTH 488 0
DWIDTH 19 0
BBX 17 33 1 -8
BITMAP
1FFC00
1FFC00
1FFC00
000000
000000
E00380
F00380
700780
780700
780700
380F00
3C0E00
3C1E00
1C1C00
1E1C00
1E3C00
0E3800
0F3800
0F7800
077000
07F000
03E000
03E000
03E000
01C000
01C000
03C000
038000
078000
070000
7F0000
7E0000
7C0000
ENDCHAR
STARTCHAR 1E80
ENCODING 7808
SWIDTH 951 0
DWIDTH 37 0
BBX 35 36 1 0
BITMAP
0007800000
0003C00000
0001E00000
0000E00000
0000700000
0000380000
0000000000
0000000000
F001F001E0
F001F001E0
F001F001C0
7801F003C0
7803F803C0
7803B803C0
3803B80380
3C07BC0780
3C073C0780
3C071C0780
1C071C0700
1E0F1E0F00
1E0E0E0F00
1E0E0E0F00
0E1E0F0E00
0F1E0F0E00
0F1C071E00
0F1C071E00
073C079C00
0738039C00
07B803BC00
07B803FC00
03F803F800
03F001F800
03F001F800
03F001F800
01F000F000
01E000F000
ENDCHAR
STARTCHAR 1E81
ENCODING 7809
SWIDTH 720 0
DWIDTH 28 0
BBX 27 28 0 0
BITMAP
00780000
003C0000
001E0000
000E0000
00070000
00038000
00000000
00000000
F00F00E0
701F01E0
701F01E0
781F81C0
381F81C0
383B83C0
3C3BC3C0
3C39C380
1C39C380
1C71C780
1E71E700
0E70E700
0E70E700
0EE0EE00
0FE0FE00
07E07E00
07E07E00
07C07C00
03C07C00
03C03C00
ENDCHAR
STARTCHAR 1E82
ENCODING 7810
SWIDTH 951 0
DWIDTH 37 0
BBX 35 36 1 0
BITMAP
00000F0000
00001E0000
00001C0000
0000380000
0000700000
0000600000
0000000000
0000000000
F001F001E0
F001F001E0
F001F001C0
7801F003C0
7803F803C0
7803B803C0
3803B80380
3C07BC0780
3C073C0780
3C071C0780
1C071C0700
1E0F1E0F00
1E0E0E0F00
1E0E0E0F00
0E1E0F0E00
0F1E0F0E00
0F1C071E00
0F1C071E00
073C079C00
0738039C00
07B803BC00
07B803FC00
03F803F800
03F001F800
03F001F800
03F001F800
01F000F000
01E000F000
ENDCHAR
STARTCHAR 1E83
ENCODING 7811
SWIDTH 720 0
DWIDTH 28 0
BBX 27 28 0 0
BITMAP
0003C000
00078000
00070000
000E0000
001C0000
00180000
00000000
00000000
F00F00E0
701F01E0
701F01E0
781F81C0
381F81C0
383B83C0
3C3BC3C0
3C39C380
1C39C380
1C71C780
1E71E700
0E70E700
0E70E700
0EE0EE00
0FE0FE00
07E07E00
07E07E00
07C07C00
03C07C00
03C03C00
ENDCHAR
STARTCHAR 1E84
ENCODING 7812
SWIDTH 951 0
DWIDTH 37 0
BBX 35 35 1 0
BITMAP
000F3E0000
000F3E0000
000F3E0000
000F3E0000
0000000000
0000000000
0000000000
F001F001E0
F001F001E0
F001F001C0
7801F003C0
7803F803C0
7803B803C0
3803B80380
3C07BC0780
3C073C0780
3C071C0780
1C071C0700
1E0F1E0F00
1E0E0E0F00
1E0E0E0F00
0E1E0F0E00
0F1E0F0E00
0F1C071E00
0F1C071E00
073C079C00
0738039C00
07B803BC00
07B803FC00
03F803F800
03F001F800
03F001F800
03F001F800
01F000F000
01E000F000
ENDCHAR
STARTCHAR 1E85
ENCODING 7813
SWIDTH 720 0
DWIDTH 28 0
BBX 27 28 0 0
BITMAP
00F1E000
00F1E000
00F1E000
00F1E000
00000000
00000000
00000000
00000000
F00F00E0
701F01E0
701F01E0
781F81C0
381F81C0
383B83C0
3C3BC3C0
3C39C380
1C39C380
1C71C780
1E71E700
0E70E700
0E70E700
0EE0EE00
0FE0FE00
07E07E00
07E07E00
07C07C00
03C07C00
03C03C00
ENDCHAR
STARTCHAR 1EF2
ENCODING 7922
SWIDTH 668 0
DWIDTH 26 0
BBX 24 36 1 0
BITMAP
01E000
00F000
007000
003800
001C00
000C00
000000
000000
F0000F
F8000F
7C001E
3C003E
3E003C
1E0078
0F0078
0F80F0
0781E0
03C1E0
03C3C0
01E3C0
00F780
00FF00
007F00
007E00
003C00
003C00
003C00
003C00
003C00
003C00
003C00
003C00
003C00
003C00
003C00
003C00
ENDCHAR
STARTCHAR 1EF3
ENCODING 7923
SWIDTH 488 0
DWIDTH 19 0
BBX 17 36 1 -8
BITMAP
1F0000
0F0000
078000
01C000
00C000
006000
000000
000000
E00380
F00380
700780
700700
780F00
380F00
380E00
3C1E00
1C1C00
1C1C00
1E3C00
0E3800
0E3800
0F7000
077000
07F000
07E000
03E000
03E000
03C000
03C000
038000
038000
078000
070000
7F0000
7E0000
7C0000
ENDCHAR
STARTCHAR 2002
ENCODING 8194
SWIDTH 488 0
DWIDTH 19 0
BBX 0 0 0 0
BITMAP
ENDCHAR
STARTCHAR 2013
ENCODING 8211
SWIDTH 565 0
DWIDTH 22 0
BBX 22 3 0 9
BITMAP
FFFFFC
FFFFFC
FFFFFC
ENDCHAR
STARTCHAR 2014
ENCODING 8212
SWIDTH 1002 0
DWIDTH 39 0
BBX 39 3 0 9
BITMAP
FFFFFFFFFE
FFFFFFFFFE
FFFFFFFFFE
ENDCHAR
STARTCHAR 2015
ENCODING 8213
SWIDTH 1002 0
DWIDTH 39 0
BBX 39 3 0 9
BITMAP
FFFFFFFFFE
FFFFFFFFFE
FFFFFFFFFE
ENDCHAR
STARTCHAR 2017
ENCODING 8215
SWIDTH 540 0
DWIDTH 21 0
BBX 23 6 -1 -9
BITMAP
FFFFFE
FFFFFE
000000
000000
FFFFFE
FFFFFE
ENDCHAR
STARTCHAR 2018
ENCODING 8216
SWIDTH 231 0
DWIDTH 9 0
BBX 3 9 3 19
BITMAP
20
E0
C0
80
80
E0
E0
E0
E0
ENDCHAR
STARTCHAR 2019
ENCODING 8217
SWIDTH 231 0
DWIDTH 9 0
BBX 3 9 3 19
BITMAP
E0
E0
E0
E0
60
60
60
C0
80
ENDCHAR
STARTCHAR 201A
ENCODING 8218
SWIDTH 231 0
DWIDTH 9 0
BBX 4 9 2 -5
BITMAP
70
70
70
70
30
30
30
60
C0
ENDCHAR
STARTCHAR 201B
ENCODING 8219
SWIDTH 231 0
DWIDTH 9 0
BBX 3 9 3 19
BITMAP
E0
E0
E0
E0
80
80
C0
E0
60
ENDCHAR
STARTCHAR 201C
ENCODING 8220
SWIDTH 334 0
DWIDTH 13 0
BBX 10 9 2 19
BITMAP
20C0
61C0
C300
C300
C300
E3C0
E3C0
E3C0
E3C0
ENDCHAR
STARTCHAR 201D
ENCODING 8221
SWIDTH 334 0
DWIDTH 13 0
BBX 10 9 2 19
BITMAP
F3C0
F3C0
F3C0
F3C0
30C0
20C0
6080
E380
C300
ENDCHAR
STARTCHAR 201E
ENCODING 8222
SWIDTH 334 0
DWIDTH 13 0
BBX 10 9 2 -5
BITMAP
E3C0
E3C0
E3C0
E3C0
20C0
20C0
6080
E380
8300
ENDCHAR
STARTCHAR 2020
ENCODING 8224
SWIDTH 565 0
DWIDTH 22 0
BBX 19 34 1 -7
BITMAP
00E000
00E000
00E000
00E000
00E000
00E000
00E000
00E000
FFFFE0
FFFFE0
FFFFE0
00E000
00E000
00E000
00E000
00E000
00E000
00E000
00E000
00E000
00E000
00E000
00E000
00E000
00E000
00E000
00E000
00E000
00E000
00E000
00E000
00E000
00E000
00E000
ENDCHAR
STARTCHAR 2021
ENCODING 8225
SWIDTH 565 0
DWIDTH 22 0
BBX 19 34 1 -7
BITMAP
00E000
00E000
00E000
00E000
00E000
00E000
00E000
00E000
FFFFE0
FFFFE0
FFFFE0
00E000
00E000
00E000
00E000
00E000
00E000
00E000
00E000
00E000
00E000
00E000
00E000
FFFFE0
FFFFE0
FFFFE0
00E000
00E000
00E000
00E000
00E000
00E000
00E000
00E000
ENDCHAR
STARTCHAR 2022
ENCODING 8226
SWIDTH 360 0
DWIDTH 14 0
BBX 10 10 2 8
BITMAP
1E00
7F00
7F80
FF80
FFC0
FFC0
FF80
7F80
3F00
0C00
ENDCHAR
STARTCHAR 2026
ENCODING 8230
SWIDTH 1002 0
DWIDTH 39 0
BBX 30 4 4 0
BITMAP
F807803C
F807803C
F807803C
F807803C
ENDCHAR
STARTCHAR 2030
ENCODING 8240
SWIDTH 1002 0
DWIDTH 39 0
BBX 39 28 0 0
BITMAP
0F80180000
3FC0380000
79E0300000
6070700000
6070600000
E030E00000
E030C00000
6071C00000
70E3800000
3FC3000000
1F87000000
0006000000
000E000000
000C000000
001C000000
0018000000
0038000000
0070FC03F0
0071FE07F8
00E3870E1C
00C7031C0C
01C603980E
018603980E
0387031C0C
0307071C1C
0703CF0F3C
0601FE07F8
0E00F803E0
ENDCHAR
STARTCHAR 2032
ENCODING 8242
SWIDTH 180 0
DWIDTH 7 0
BBX 5 10 1 16
BITMAP
38
38
38
30
70
70
60
60
60
E0
ENDCHAR
STARTCHAR 2033
ENCODING 8243
SWIDTH 360 0
DWIDTH 14 0
BBX 10 10 2 16
BITMAP
39C0
31C0
7180
7380
7380
6380
6300
E300
E700
C600
ENDCHAR
STARTCHAR 2039
ENCODING 8249
SWIDTH 334 0
DWIDTH 13 0
BBX 5 12 4 4
BITMAP
08
08
38
78
F0
E0
80
E0
F0
78
38
08
ENDCHAR
STARTCHAR 203A
ENCODING 8250
SWIDTH 334 0
DWIDTH 13 0
BBX 6 13 3 4
BITMAP
80
C0
F0
78
3C
1C
0C
1C
3C
78
E0
C0
80
ENDCHAR
STARTCHAR 203C
ENCODING 8252
SWIDTH 488 0
DWIDTH 19 0
BBX 13 28 4 0
BITMAP
F038
F038
F038
F038
F038
F038
F038
F038
F038
F038
F038
F038
F038
F038
E038
6038
6038
6038
6018
6018
6018
6010
0000
0000
F038
F038
F038
F038
ENDCHAR
STARTCHAR 203E
ENCODING 8254
SWIDTH 334 0
DWIDTH 13 0
BBX 23 2 -5 33
BITMAP
FFFFFE
FFFFFE
ENDCHAR
STARTCHAR 2044
ENCODING 8260
SWIDTH 282 0
DWIDTH 11 0
BBX 19 28 -4 0
BITMAP
0000E0
0000C0
000180
000180
000300
000700
000600
000C00
001C00
001800
003000
003000
006000
00E000
00C000
018000
038000
030000
070000
060000
0C0000
1C0000
180000
300000
300000
600000
E00000
C00000
ENDCHAR
STARTCHAR 2070
ENCODING 8304
SWIDTH 334 0
DWIDTH 13 0
BBX 11 17 1 11
BITMAP
1F00
3F80
71C0
E0C0
E0E0
C060
C060
C060
C060
C060
C060
C060
E0E0
E0C0
71C0
3F80
1F00
ENDCHAR
STARTCHAR 2074
ENCODING 8308
SWIDTH 334 0
DWIDTH 13 0
BBX 13 17 0 11
BITMAP
00C0
01C0
01C0
03C0
07C0
0FC0
1DC0
19C0
31C0
71C0
E1C0
FFF8
FFF8
01C0
01C0
01C0
01C0
ENDCHAR
STARTCHAR 2075
ENCODING 8309
SWIDTH 334 0
DWIDTH 13 0
BBX 12 17 0 11
BITMAP
3FE0
3FE0
3000
3000
3000
7000
7F80
7FE0
70F0
0070
0030
0030
E030
6070
70E0
3FE0
1F80
ENDCHAR
STARTCHAR 2076
ENCODING 8310
SWIDTH 334 0
DWIDTH 13 0
BBX 11 17 1 11
BITMAP
0F00
3FC0
71C0
60E0
E000
C000
CF00
FFC0
F1E0
E0E0
C060
C060
C060
E0E0
71C0
7FC0
1F00
ENDCHAR
STARTCHAR 2077
ENCODING 8311
SWIDTH 334 0
DWIDTH 13 0
BBX 12 17 1 11
BITMAP
FFF0
FFF0
0060
00C0
01C0
0180
0300
0700
0600
0E00
0C00
0C00
1C00
1800
3800
3800
3000
ENDCHAR
STARTCHAR 2078
ENCODING 8312
SWIDTH 334 0
DWIDTH 13 0
BBX 12 18 0 10
BITMAP
0F80
3FC0
38E0
7070
7070
7070
7070
38E0
1FC0
3FE0
70F0
6030
E030
E030
6030
78F0
3FE0
0F80
ENDCHAR
STARTCHAR 2079
ENCODING 8313
SWIDTH 334 0
DWIDTH 13 0
BBX 12 17 0 11
BITMAP
0F80
3FC0
78E0
7070
6070
E030
6030
6070
70F0
3FF0
1F30
0030
0070
7060
70E0
3FC0
1F00
ENDCHAR
STARTCHAR 207F
ENCODING 8319
SWIDTH 360 0
DWIDTH 14 0
BBX 10 13 2 10
BITMAP
0600
DF80
F1C0
E0C0
C0C0
C0C0
C0C0
C0C0
C0C0
C0C0
C0C0
C0C0
C0C0
ENDCHAR
STARTCHAR 20A3
ENCODING 8355
SWIDTH 565 0
DWIDTH 22 0
BBX 19 28 2 0
BITMAP
FFFFE0
FFFFE0
FFFFE0
E00000
E00000
E00000
E00000
E00000
E038E0
E039E0
E03BE0
E03E00
FFBC00
FFBC00
FFB800
E03800
E03800
E03800
E03800
E03800
E03800
E03800
E03800
E03800
E03800
E03800
E03800
E03800
ENDCHAR
STARTCHAR 20A4
ENCODING 8356
SWIDTH 565 0
DWIDTH 22 0
BBX 20 28 1 0
BITMAP
01FC00
07FF00
0FFF80
1F07C0
3C03C0
3801E0
7801E0
7801E0
7801E0
780000
3C0000
3C0000
1E0000
FFF800
FFF800
0F0000
070000
FFF800
FFF800
070000
070000
0E0000
1C0000
3BE000
7FFFE0
7FFFF0
307FE0
000F80
ENDCHAR
STARTCHAR 20A7
ENCODING 8359
SWIDTH 1105 0
DWIDTH 43 0
BBX 35 28 4 0
BITMAP
FF80000000
FFE0000000
FFF0000000
F1F8000000
F07C000000
F03C000000
F03C000000
F03C000000
F03C000000
F03C000000
F03C000000
F07C000000
F1F8000000
FFF0E00000
FFE0E00000
FF80E00F00
F001F83FC0
F001F870C0
F000E060E0
F000E06000
F000E07800
F000E03F80
F000E003E0
F000E000E0
F000E06060
F000E070E0
F000F87FC0
F000781F00
ENDCHAR
STARTCHAR 20AC
ENCODING 8364
SWIDTH 565 0
DWIDTH 22 0
BBX 21 28 0 0
BITMAP
003F80
00FFE0
01FFF8
03E0F8
03C030
078010
070000
0F0000
0F0000
0E0000
1E0000
7FFFC0
FFFF80
1E0000
1E0000
7FFF00
FFFE00
1E0000
0E0000
0E0000
0F0000
0F0000
078000
07C030
03E0F0
01FFF0
00FFE0
003F80
ENDCHAR
STARTCHAR 20AF
ENCODING 8367
SWIDTH 925 0
DWIDTH 36 0
BBX 31 32 2 -7
BITMAP
01FE0000
0FFF0000
1FC78000
39C3C000
71C1C000
6181E000
6180E000
E180E0F8
E380E1FC
8380E39E
0380E70E
0300E60E
0300EE0E
0300EE0E
0700EC0E
0701CC0E
0701DC0E
06039C0E
06039C0C
0E07181C
0C0F1818
0C1E1838
187C3C70
7FF03FE0
FFC03780
00003000
00003000
00007000
00007000
00007000
00006000
00006000
ENDCHAR
STARTCHAR 20DD
ENCODING 8413
SWIDTH 1002 0
DWIDTH 39 0
BBX 28 28 5 0
BITMAP
001FC000
00FFF800
01F07C00
07800F00
0E000780
1C000380
180001C0
380000E0
30000060
70000070
60000030
60000030
60000030
E0000030
E0000030
60000030
60000030
60000030
70000070
30000060
380000E0
180001C0
1C000180
0F000780
07800F00
03F07C00
00FFF800
001FC000
ENDCHAR
STARTCHAR 2105
ENCODING 8453
SWIDTH 874 0
DWIDTH 34 0
BBX 30 29 2 0
BITMAP
0F800000
3FE00700
3FE00E00
70700C00
E0701C00
E0001800
E0003800
E0003000
E0007000
E0006000
E030E000
E070C000
7071C000
7FE387C0
3FE31FF0
0F873FF8
00063838
000E781C
000C701C
001C701C
0018701C
0038701C
0030701C
0070701C
00E0781C
00E03838
01C03FF8
01801FF0
038007C0
ENDCHAR
STARTCHAR 210F
ENCODING 8463
SWIDTH 565 0
DWIDTH 22 0
BBX 18 28 2 0
BITMAP
006000
07E000
01E000
01E100
01C700
01CE00
03F800
03E000
038000
0F8380
3F0FC0
671FC0
0F31C0
0F61C0
0EC3C0
0E8380
1F0380
1E0380
1E0780
3C0700
3C0700
380F00
780E00
700E00
701E40
F01F80
F01F00
000E00
ENDCHAR
STARTCHAR 2111
ENCODING 8465
SWIDTH 720 0
DWIDTH 28 0
BBX 22 30 3 -3
BITMAP
03F000
0FF800
3EFC00
703E00
601F08
C00F08
C00F08
C00798
C007F0
C003E0
C00000
C00000
6001F0
3003F8
1C071C
06070C
000F04
000F00
000F80
000780
E007C0
F803C0
3C03C0
1E03E0
1E01E0
0F01C0
0F8380
07FF00
03FE00
00F800
ENDCHAR
STARTCHAR 2112
ENCODING 8466
SWIDTH 822 0
DWIDTH 32 0
BBX 29 30 2 0
BITMAP
003807C0
01E00E60
03801830
06003810
0C007018
0C007018
08007010
0800E030
0800E020
0C00E060
0400E0C0
0600E180
0300E300
0181EC00
0079F000
000FE000
0001E000
0001E000
0001C000
0001C000
0001C000
00038000
00038000
00038000
7E070030
C3C60020
807C0060
803C00C0
60F78380
3F807E00
ENDCHAR
STARTCHAR 2113
ENCODING 8467
SWIDTH 334 0
DWIDTH 13 0
BBX 14 28 -1 0
BITMAP
0078
00F8
00CC
018C
038C
0308
0308
0718
0710
0630
0E20
0E60
0EC0
0F80
1F00
1E00
1C00
3C00
7C00
DC00
B800
3800
3800
3880
3980
3900
3F00
1C00
ENDCHAR
STARTCHAR 2116
ENCODING 8470
SWIDTH 1080 0
DWIDTH 42 0
BBX 38 28 2 0
BITMAP
F000E01F00
F000E07FC0
F800E0FFE0
F800E1F1F0
FC00E1C078
FC00E3C038
FE00E3803C
EE00E3801C
E700E7001C
E700E7001C
E380E7001C
E3C0E7001C
E1C0E7001C
E1E0E3801C
E0E0E3803C
E0F0E3C038
E070E1E078
E038E1F1F0
E038E0FFE0
E01CE07FC0
E01EE01F00
E00EE00000
E00FE00000
E007E00000
E007E00000
E003E3FFFC
E003E3FFFC
E001E3FFFC
ENDCHAR
STARTCHAR 2118
ENCODING 8472
SWIDTH 642 0
DWIDTH 25 0
BBX 20 22 3 -6
BITMAP
008000
030000
0407C0
0818E0
182060
304070
308070
310070
720070
7400E0
7860E0
38E0C0
38C180
3C8300
5C8600
9C7800
8E0000
8E0000
860000
840000
8C0000
780000
ENDCHAR
STARTCHAR 211C
ENCODING 8476
SWIDTH 771 0
DWIDTH 30 0
BBX 24 24 3 0
BITMAP
030000
1FC7F0
3FEFFC
61F87C
40F03E
C0701E
C0781E
C0781C
C0783C
E07870
F87BC0
7E7FE0
1E79E0
0E78F0
0678F0
0478F0
0078F0
007078
007078
00F078
3EE07D
3FE03E
7FC03C
070018
ENDCHAR
STARTCHAR 211E
ENCODING 8478
SWIDTH 771 0
DWIDTH 30 0
BBX 20 26 6 0
BITMAP
FFFC00
FFFF00
FFFF80
E007C0
E003C0
E001E0
E001E0
E001E0
E001E0
E001E0
E001C0
E007C0
FFFF80
FFFF00
FFFC00
E078F0
E038E0
E03DC0
E01FC0
E00F80
E00F00
E00F80
E01F80
E01FC0
E03DE0
E078E0
ENDCHAR
STARTCHAR 2120
ENCODING 8480
SWIDTH 617 0
DWIDTH 24 0
BBX 21 12 1 15
BITMAP
1C3C38
7F3C38
633478
C13478
E03458
7C3658
0F3658
01B2D8
C1B298
C1B398
7F3398
3E3398
ENDCHAR
STARTCHAR 2122
ENCODING 8482
SWIDTH 1002 0
DWIDTH 39 0
BBX 34 17 2 11
BITMAP
FFFE7801C0
FFFE7803C0
03807C03C0
03807C03C0
03807C07C0
03807E06C0
03807606C0
0380760EC0
0380770CC0
0380731CC0
03807398C0
03807398C0
038071B8C0
038071F0C0
038071F0C0
038070F0C0
038070E0C0
ENDCHAR
STARTCHAR 2126
ENCODING 8486
SWIDTH 771 0
DWIDTH 30 0
BBX 28 28 1 0
BITMAP
003FC000
00FFF000
03FFFC00
07E0FE00
0F801F00
1F000F80
3E0007C0
3C0003C0
780001E0
780001E0
700001E0
700000E0
F00000E0
F00000E0
700000E0
700000E0
700000E0
780001E0
380001C0
3C0003C0
1C000380
0E000700
07000E00
03801C00
01E07000
FFF0FFF0
FFF0FFF0
FFF0FFF0
ENDCHAR
STARTCHAR 2128
ENCODING 8488
SWIDTH 617 0
DWIDTH 24 0
BBX 23 35 0 -8
BITMAP
001F00
007FC0
01C1F0
030070
000078
000038
00003C
00003C
00003C
00403C
00E038
00E038
00E070
00E0E0
007BC0
001F00
003F80
00FFE0
01C1F0
030078
06003C
00003C
00001E
00001E
00001E
3C000E
6E001E
C3801C
83C01C
83C01C
C3C038
01E070
0070E0
003FC0
000200
ENDCHAR
STARTCHAR 212D
ENCODING 8493
SWIDTH 668 0
DWIDTH 26 0
BBX 24 30 2 -3
BITMAP
01E070
07F9FE
0E0FFE
1C043C
180810
381800
301800
701800
701800
701C00
701E00
F00F00
F00F80
F007C0
F003C0
F081E0
F081E0
F080E0
7880E0
78C0C0
7841C0
3C7F81
3C1F02
1E0006
1F000C
0FC01C
07F8F8
03FFF0
01FFC0
003F00
ENDCHAR
STARTCHAR 212E
ENCODING 8494
SWIDTH 591 0
DWIDTH 23 0
BBX 19 20 2 0
BITMAP
03F800
0FFE00
1E1F00
3C0780
380380
7001C0
7001C0
F001C0
F001E0
FFFFE0
FFFFE0
F00000
F00000
F00000
7000C0
780180
380380
1E0F00
0FFE00
03F800
ENDCHAR
STARTCHAR 212F
ENCODING 8495
SWIDTH 488 0
DWIDTH 19 0
BBX 16 19 2 0
BITMAP
003C
01CE
0387
0707
0E0E
1E0E
3C1C
3C38
78F0
7F80
7800
7000
F000
F000
F004
7818
7C30
3FC0
1F00
ENDCHAR
STARTCHAR 2135
ENCODING 8501
SWIDTH 488 0
DWIDTH 19 0
BBX 17 24 1 0
BITMAP
004000
C06000
C07F80
E07F80
707F80
787F80
3C3F80
1C0400
0E0C00
1F0800
178800
33D800
31D000
70F000
787800
783800
7C3C00
7E1C00
3E0E00
3F0700
1F0380
3F0380
7F0180
7E0080
ENDCHAR
STARTCHAR 2136
ENCODING 8502
SWIDTH 437 0
DWIDTH 17 0
BBX 15 20 2 0
BITMAP
8000
C000
FFF0
FFF8
FFFC
7FFC
001E
0006
0006
0006
0006
0006
0004
0004
0004
0004
7FFE
FFFE
FFFC
FFFC
ENDCHAR
STARTCHAR 2137
ENCODING 8503
SWIDTH 334 0
DWIDTH 13 0
BBX 10 20 2 0
BITMAP
2000
3C00
3F80
3F80
1F80
0F80
0180
0080
0080
0080
0080
0080
0080
00C0
01C0
01C0
7EC0
7EC0
7C40
FC00
ENDCHAR
STARTCHAR 215B
ENCODING 8539
SWIDTH 822 0
DWIDTH 32 0
BBX 29 28 2 0
BITMAP
04000600
0C000C00
1C001C00
FC001800
FC003000
0C007000
0C006000
0C00C000
0C00C000
0C018000
0C038000
0C0307C0
0C060FE0
0C0E1870
0C0C1830
0C183830
00181830
00301C70
00700FC0
00600FE0
00C01830
01C03018
01803018
03003018
03003018
06001830
0E001FF0
0C0007C0
ENDCHAR
STARTCHAR 215C
ENCODING 8540
SWIDTH 822 0
DWIDTH 32 0
BBX 30 28 1 0
BITMAP
0F800180
3FE00300
70E00700
60700600
60700E00
60700C00
00E01800
07C03800
07E03000
00706000
0030E000
0030C3E0
E03187F0
60718C18
70F30C18
3FE70C18
1F860C18
000C0E38
001C07F0
001807F0
00300C18
0030180C
0060180C
00E0180C
00C0180C
01800C18
03800FF8
030003E0
ENDCHAR
STARTCHAR 215D
ENCODING 8541
SWIDTH 822 0
DWIDTH 32 0
BBX 29 28 2 0
BITMAP
7FC00300
7FC00600
60000600
60000C00
40001C00
DE001800
FF803000
E1C07000
C0C06000
00E0C000
00E0C000
00E183C0
C0C38FE0
C0C31C70
E1861830
7F8E1830
1E0C1830
00181C30
00380FE0
00300FE0
00601830
00603018
00C03018
01C03018
01803018
03001830
07001FF0
060007C0
ENDCHAR
STARTCHAR 215E
ENCODING 8542
SWIDTH 822 0
DWIDTH 32 0
BBX 29 28 2 0
BITMAP
FFE01C00
FFE01800
00603000
00C03000
01806000
0180E000
0300C000
06018000
06038000
0C030000
0C060000
0C0E0780
180C1FE0
18181870
18183030
38303030
00703830
00601870
00C00FC0
01C01FE0
01803870
03003038
03003018
06003018
0E003030
0C003870
18001FE0
380007C0
ENDCHAR
STARTCHAR 2190
ENCODING 8592
SWIDTH 1002 0
DWIDTH 39 0
BBX 33 13 3 6
BITMAP
0080000000
0180000000
0380000000
0700000000
0F00000000
3E00000000
FFFFFFFF80
7FFFFFFF80
3E00000000
0F00000000
0700000000
0380000000
0180000000
ENDCHAR
STARTCHAR 2191
ENCODING 8593
SWIDTH 488 0
DWIDTH 19 0
BBX 13 32 3 -4
BITMAP
0200
0700
0F00
0F80
1FC0
3FC0
7FE0
E778
8718
0700
0700
0700
0700
0700
0700
0700
0700
0700
0700
0700
0700
0700
0700
0700
0700
0700
0700
0700
0700
0700
0700
0700
ENDCHAR
STARTCHAR 2192
ENCODING 8594
SWIDTH 1002 0
DWIDTH 39 0
BBX 32 13 3 6
BITMAP
00000080
000000C0
000000E0
00000070
00000078
0000003E
FFFFFFFF
FFFFFFFF
0000003C
00000078
00000060
000000C0
00000080
ENDCHAR
STARTCHAR 2193
ENCODING 8595
SWIDTH 488 0
DWIDTH 19 0
BBX 13 32 3 -4
BITMAP
0700
0700
0700
0700
0700
0700
0700
0700
0700
0700
0700
0700
0700
0700
0700
0700
0700
0700
0700
0700
0700
0700
0700
8708
E778
7FF0
3FE0
1FC0
0F80
0F00
0700
0200
ENDCHAR
STARTCHAR 2194
ENCODING 8596
SWIDTH 1002 0
DWIDTH 39 0
BBX 29 13 5 6
BITMAP
01000400
03000E00
03000700
0F000780
1E0003C0
7C0001F0
FFFFFFF8
FFFFFFF8
3E0003E0
0E000380
07000700
03000600
01800C00
ENDCHAR
STARTCHAR 2195
ENCODING 8597
SWIDTH 488 0
DWIDTH 19 0
BBX 13 29 3 -1
BITMAP
0200
0300
0780
0F80
0FC0
1FE0
3FF0
7778
C718
0700
0700
0700
0700
0700
0700
0700
0700
0700
0700
0700
0700
E738
7F70
3FE0
1FC0
0FC0
0780
0700
0300
ENDCHAR
STARTCHAR 2196
ENCODING 8598
SWIDTH 720 0
DWIDTH 28 0
BBX 28 27 0 -1
BITMAP
78000000
FE000000
FF800000
FDF00000
7E780000
7F080000
37800000
33C00000
19E00000
18F00000
0C780000
0C3C0000
081E0000
000F0000
00078000
0003C000
0001E000
0000F000
00007800
00003C00
00001E00
00000F00
00000780
000003C0
000001E0
000000F0
00000060
ENDCHAR
STARTCHAR 2197
ENCODING 8599
SWIDTH 720 0
DWIDTH 28 0
BBX 28 28 0 -2
BITMAP
00000040
000001E0
00000FF0
00003FE0
0000FBE0
0003C7C0
00010EC0
00001DC0
00003980
00007180
0000E300
0001C300
00038600
00070200
000E0000
001C0000
00380000
00700000
00E00000
01C00000
03800000
07000000
0E000000
1C000000
38000000
70000000
E0000000
40000000
ENDCHAR
STARTCHAR 2198
ENCODING 8600
SWIDTH 720 0
DWIDTH 28 0
BBX 28 28 0 -2
BITMAP
40000000
E0000000
F0000000
78000000
3C000000
1E000000
0F000000
07800000
03C00000
01E00000
00F00000
00780000
003C0000
001E0000
000F0000
00078600
0003C300
0001E300
0000F380
00007980
00003D80
00001EC0
00038FC0
0001F3E0
00007DE0
00000FF0
000003E0
000000C0
ENDCHAR
STARTCHAR 2199
ENCODING 8601
SWIDTH 720 0
DWIDTH 28 0
BBX 27 27 0 -1
BITMAP
00000060
000000E0
000001C0
00000380
00000700
00000E00
00001C00
00003800
00007000
0000E000
0001C000
00038000
00070000
000E0000
0C1C0000
0C380000
18700000
18E00000
39C00000
33800000
37080000
6E380000
7CF80000
FFC00000
FF000000
F8000000
60000000
ENDCHAR
STARTCHAR 21A8
ENCODING 8616
SWIDTH 488 0
DWIDTH 19 0
BBX 13 35 3 -4
BITMAP
0200
0300
0780
0F80
0FC0
1FE0
3FF0
7778
C718
0700
0700
0700
0700
0700
0700
0700
0700
0700
0700
0700
0700
E738
7F70
3FE0
1FC0
0FC0
0F80
0700
0300
0000
0000
0000
0000
3FF0
3FF0
ENDCHAR
STARTCHAR 21B5
ENCODING 8629
SWIDTH 1002 0
DWIDTH 39 0
BBX 28 14 6 6
BITMAP
00000030
00100030
00700030
03F00030
0F800030
3E000030
F0000030
FFFFFFF0
FFFFFFF0
78000000
1F000000
07E00000
00F00000
00300000
ENDCHAR
STARTCHAR 21C4
ENCODING 8644
SWIDTH 1002 0
DWIDTH 39 0
BBX 29 24 5 2
BITMAP
00000C00
00000E00
00000700
00000380
000003C0
000001F0
FFFFFFF8
FFFFFFF8
000001E0
000003C0
01000380
03000700
07000600
0E000C00
1C000000
7C000000
FFFFFFF8
FFFFFFF8
7C000000
1E000000
0E000000
07000000
03000000
01800000
ENDCHAR
STARTCHAR 21C6
ENCODING 8646
SWIDTH 1002 0
DWIDTH 39 0
BBX 29 24 5 2
BITMAP
01800000
03000000
07000000
0E000000
1C000000
7C000000
FFFFFFF8
FFFFFFF8
7C000000
1C000000
0E000C00
07000600
03000700
01800380
000003C0
000001F0
FFFFFFF8
FFFFFFF8
000001E0
000003C0
00000380
00000700
00000600
00000C00
ENDCHAR
STARTCHAR 21D0
ENCODING 8656
SWIDTH 720 0
DWIDTH 28 0
BBX 28 17 0 3
BITMAP
00200000
00E00000
01C00000
03800000
07FFFFF0
0FFFFFF0
18000000
70000000
E0000000
70000000
18000000
0FFFFFF0
07FFFFF0
03800000
01C00000
00E00000
00200000
ENDCHAR
STARTCHAR 21D1
ENCODING 8657
SWIDTH 720 0
DWIDTH 28 0
BBX 16 25 6 0
BITMAP
0180
0180
03C0
0660
0C30
1818
381C
381E
6816
C813
0810
0810
0810
0810
0810
0810
0810
0810
0810
0810
0810
0810
0810
0810
0810
ENDCHAR
STARTCHAR 21D2
ENCODING 8658
SWIDTH 720 0
DWIDTH 28 0
BBX 28 17 0 3
BITMAP
00004000
00003000
00003800
00001C00
FFFFFE00
FFFFFF00
00000180
000000E0
00000070
000000E0
00000180
FFFFFF00
FFFFFE00
00001C00
00003800
00003000
00004000
ENDCHAR
STARTCHAR 21D3
ENCODING 8659
SWIDTH 720 0
DWIDTH 28 0
BBX 16 25 6 0
BITMAP
0810
0810
0810
0810
0810
0810
0810
0810
0810
0810
0810
0810
0810
0810
0810
C813
6816
381C
181C
1C38
0E30
0660
03C0
0180
0100
ENDCHAR
STARTCHAR 21D4
ENCODING 8660
SWIDTH 720 0
DWIDTH 28 0
BBX 28 17 0 3
BITMAP
00402000
00C03000
01C03800
03001C00
07FFFE00
0FFFFF00
380001C0
700000E0
E0000070
700000E0
380001C0
0FFFFF00
07FFFE00
03000C00
01C03800
00C03000
00402000
ENDCHAR
STARTCHAR 21D5
ENCODING 8661
SWIDTH 720 0
DWIDTH 28 0
BBX 18 28 5 -2
BITMAP
00C000
01E000
03F000
07F800
0F3C00
1E1E00
761F80
E619C0
861840
061800
061800
061800
061800
061800
061800
061800
061800
061800
061800
861840
E619C0
3E1F00
1E1E00
0F3C00
07F800
03F000
01E000
00C000
ENDCHAR
STARTCHAR 2200
ENCODING 8704
SWIDTH 591 0
DWIDTH 23 0
BBX 21 22 1 0
BITMAP
F00078
700070
7800F0
7800F0
3800E0
3C01E0
1C01C0
1FFFC0
1FFFC0
0FFF80
0F0780
070700
078F00
078F00
03CE00
03DE00
01DC00
01FC00
01FC00
00F800
00F800
007000
ENDCHAR
STARTCHAR 2202
ENCODING 8706
SWIDTH 488 0
DWIDTH 19 0
BBX 17 30 1 0
BITMAP
0F8000
3FE000
383800
001C00
000C00
000E00
000700
000700
000700
000300
000380
000380
000380
010380
0FE380
1E1F80
3C0F80
780780
700700
F00700
F00700
E00F00
E00E00
E00E00
E01E00
E01C00
703C00
303800
1CF000
07C000
ENDCHAR
STARTCHAR 2203
ENCODING 8707
SWIDTH 411 0
DWIDTH 16 0
BBX 13 22 2 0
BITMAP
FFF8
FFF8
FFF8
0078
0078
0078
0078
0078
0078
FFF8
FFF8
FFF8
0078
0078
0078
0078
0078
0078
0078
FFF8
FFF8
FFF8
ENDCHAR
STARTCHAR 2205
ENCODING 8709
SWIDTH 1002 0
DWIDTH 39 0
BBX 31 27 4 0
BITMAP
001FF004
007FFC0E
00F81F1C
03C007F8
038001F0
070001E0
0E0003E0
0C000770
1C001E30
18003C38
18007838
3800E018
3803C018
38078018
380F0018
381E0018
18380038
1CF00038
1DE00030
0FC00070
0F8000E0
0F0001E0
3F8003C0
79E00780
F0F83E00
E03FFC00
000FE000
ENDCHAR
STARTCHAR 2206
ENCODING 8710
SWIDTH 617 0
DWIDTH 24 0
BBX 23 25 0 0
BITMAP
003C00
003C00
007C00
007E00
007E00
00EF00
00E700
01E700
01C780
03C380
0383C0
0381C0
0781E0
0701E0
0F00E0
0E00F0
0E0070
1E0078
1C0078
3C0038
38003C
38001C
7FFFFE
7FFFFE
FFFFFE
ENDCHAR
STARTCHAR 2207
ENCODING 8711
SWIDTH 745 0
DWIDTH 29 0
BBX 23 25 3 0
BITMAP
FFFFFE
FFFFFE
7FFFFC
78003C
780038
380038
3C0078
1C0070
1C00F0
1E00E0
0E00E0
0F01E0
0701C0
0703C0
078380
038380
03C780
01C700
01CF00
01EE00
00EE00
00FE00
007C00
007C00
007800
ENDCHAR
STARTCHAR 2208
ENCODING 8712
SWIDTH 1002 0
DWIDTH 39 0
BBX 21 19 9 0
BITMAP
07FFF8
1FFFF8
3C0000
780000
700000
600000
E00000
E00000
FFFFF8
FFFFF8
E00000
E00000
E00000
700000
700000
380000
3F0000
1FFFF8
07FFF8
ENDCHAR
STARTCHAR 2209
ENCODING 8713
SWIDTH 1002 0
DWIDTH 39 0
BBX 21 25 9 -2
BITMAP
000040
000060
0000C0
0000C0
0FFFF8
1FFFF8
3C0300
780600
700600
600C00
E00C00
E01800
FFFFF8
FFFFF8
E06000
E06000
E0C000
70C000
718000
398000
3F0000
1FFFF8
07FFF8
0C0000
0C0000
ENDCHAR
STARTCHAR 220B
ENCODING 8715
SWIDTH 1002 0
DWIDTH 39 0
BBX 21 19 9 0
BITMAP
FFFF00
FFFFC0
0001E0
0000F0
000070
000030
000038
000038
FFFFF8
FFFFF8
000038
000038
000030
000070
000070
0000E0
0007C0
FFFF80
FFFE00
ENDCHAR
STARTCHAR 220D
ENCODING 8717
SWIDTH 540 0
DWIDTH 21 0
BBX 16 18 4 0
BITMAP
FFC0
FFF0
003C
001C
000E
0006
0007
0003
FFFF
FFFF
0003
0003
0006
0006
000C
003C
FFF0
FFC0
ENDCHAR
STARTCHAR 220F
ENCODING 8719
SWIDTH 1002 0
DWIDTH 39 0
BBX 29 37 5 -9
BITMAP
FFFFFFF8
FFFFFFF8
FFFFFFF8
0E000780
0E000780
0E000780
0E000780
0E000780
0E000780
0E000780
0E000780
0E000780
0E000780
0E000780
0E000780
0E000780
0E000780
0E000780
0E000780
0E000780
0E000780
0E000780
0E000780
0E000780
0E000780
0E000780
0E000780
0E000780
0E000780
0E000780
0E000780
0E000780
0E000780
0E000780
7FC01FF0
7FC01FF0
7FC01FF0
ENDCHAR
STARTCHAR 2211
ENCODING 8721
SWIDTH 1002 0
DWIDTH 39 0
BBX 19 34 9 -5
BITMAP
FFFFE0
FFFFE0
FFFFE0
F000E0
7000E0
7800E0
3800E0
1C00E0
1E0000
0E0000
0F0000
070000
078000
03C000
01C000
01E000
00E000
01E000
01C000
03C000
038000
070000
070000
0E0000
0E0000
1C0000
1C00E0
3800E0
7800E0
7000E0
F000E0
FFFFE0
FFFFE0
FFFFE0
ENDCHAR
STARTCHAR 2212
ENCODING 8722
SWIDTH 591 0
DWIDTH 23 0
BBX 19 3 2 8
BITMAP
FFFFE0
FFFFE0
FFFFE0
ENDCHAR
STARTCHAR 2213
ENCODING 8723
SWIDTH 1002 0
DWIDTH 39 0
BBX 19 24 10 0
BITMAP
FFFFE0
FFFFE0
FFFFE0
000000
000000
000000
00E000
00E000
00E000
00E000
00E000
00E000
00E000
FFFFE0
FFFFE0
FFFFE0
00E000
00E000
00E000
00E000
00E000
00E000
00E000
00E000
ENDCHAR
STARTCHAR 2215
ENCODING 8725
SWIDTH 282 0
DWIDTH 11 0
BBX 19 28 -4 0
BITMAP
0000E0
0000C0
000180
000180
000300
000700
000600
000C00
001C00
001800
003000
003000
006000
00E000
00C000
018000
038000
030000
070000
060000
0C0000
1C0000
180000
300000
300000
600000
E00000
C00000
ENDCHAR
STARTCHAR 2217
ENCODING 8727
SWIDTH 1002 0
DWIDTH 39 0
BBX 11 11 14 4
BITMAP
0E00
0E00
4E40
FDE0
7FC0
0E00
7F80
FDE0
6EC0
0E40
0E00
ENDCHAR
STARTCHAR 2219
ENCODING 8729
SWIDTH 282 0
DWIDTH 11 0
BBX 4 4 4 9
BITMAP
F0
F0
F0
F0
ENDCHAR
STARTCHAR 221A
ENCODING 8730
SWIDTH 462 0
DWIDTH 18 0
BBX 19 36 -1 0
BITMAP
000020
000060
000060
000060
000040
000040
000040
0000C0
0000C0
0000C0
000080
000080
000080
000080
000180
0C0180
3C0100
EE0100
860100
070100
030300
038300
018300
01C200
01C200
00E200
00E600
007600
007600
003C00
003C00
001C00
001C00
000C00
000C00
000800
ENDCHAR
STARTCHAR 221D
ENCODING 8733
SWIDTH 1002 0
DWIDTH 39 0
BBX 19 11 8 4
BITMAP
1E00E0
7F83E0
F7C780
C0EE00
C07C00
C03800
C07C00
E0EE00
F3C7C0
7F83E0
3E00E0
ENDCHAR
STARTCHAR 221E
ENCODING 8734
SWIDTH 720 0
DWIDTH 28 0
BBX 26 11 1 5
BITMAP
1F003E00
3FC0FF00
71E1C380
E0738180
C03E00C0
C01C00C0
C03E00C0
E0738180
70E1C380
3FC0FF00
1F003E00
ENDCHAR
STARTCHAR 221F
ENCODING 8735
SWIDTH 977 0
DWIDTH 38 0
BBX 34 34 2 0
BITMAP
E000000000
E000000000
E000000000
E000000000
E000000000
E000000000
E000000000
E000000000
E000000000
E000000000
E000000000
E000000000
E000000000
E000000000
E000000000
E000000000
E000000000
E000000000
E000000000
E000000000
E000000000
E000000000
E000000000
E000000000
E000000000
E000000000
E000000000
E000000000
E000000000
E000000000
E000000000
FFFFFFFFC0
FFFFFFFFC0
FFFFFFFFC0
ENDCHAR
STARTCHAR 2220
ENCODING 8736
SWIDTH 1002 0
DWIDTH 39 0
BBX 22 16 9 0
BITMAP
000180
000380
000700
000E00
001C00
003800
007000
00E000
018000
030000
060000
0C0000
180000
300000
7FFFFC
FFFFFC
ENDCHAR
STARTCHAR 2223
ENCODING 8739
SWIDTH 720 0
DWIDTH 28 0
BBX 2 39 13 -10
BITMAP
C0
C0
C0
C0
C0
C0
C0
C0
C0
C0
C0
C0
C0
C0
C0
C0
C0
C0
C0
C0
C0
C0
C0
C0
C0
C0
C0
C0
C0
C0
C0
C0
C0
C0
C0
C0
C0
C0
C0
ENDCHAR
STARTCHAR 2225
ENCODING 8741
SWIDTH 720 0
DWIDTH 28 0
BBX 8 44 10 -10
BITMAP
C3
C3
C3
C3
C3
C3
C3
C3
C3
C3
C3
C3
C3
C3
C3
C3
C3
C3
C3
C3
C3
C3
C3
C3
C3
C3
C3
C3
C3
C3
C3
C3
C3
C3
C3
C3
C3
C3
C3
C3
C3
C3
C3
C3
ENDCHAR
STARTCHAR 2227
ENCODING 8743
SWIDTH 1002 0
DWIDTH 39 0
BBX 19 20 10 0
BITMAP
00E000
00E000
01F000
01F000
03B800
03B800
073C00
071C00
0F1C00
0E0E00
0E0E00
1C0700
1C0700
380780
380380
780380
7001C0
7001C0
E000E0
E000E0
ENDCHAR
STARTCHAR 2228
ENCODING 8744
SWIDTH 1002 0
DWIDTH 39 0
BBX 19 20 10 0
BITMAP
E000E0
E000E0
F001C0
7001C0
700380
380380
380380
1C0700
1C0700
0E0E00
0E0E00
0F1C00
071C00
071C00
03B800
03B800
01F000
01F000
01E000
00E000
ENDCHAR
STARTCHAR 2229
ENCODING 8745
SWIDTH 720 0
DWIDTH 28 0
BBX 18 24 5 0
BITMAP
03F000
0FFC00
3F3F00
780780
700380
E001C0
E001C0
E001C0
E001C0
C000C0
C000C0
C000C0
C000C0
C000C0
C000C0
C000C0
C000C0
C000C0
C000C0
C000C0
C000C0
C000C0
C000C0
C000C0
ENDCHAR
STARTCHAR 222A
ENCODING 8746
SWIDTH 720 0
DWIDTH 28 0
BBX 18 24 5 0
BITMAP
C000C0
C000C0
C000C0
C000C0
C000C0
C000C0
C000C0
C000C0
C000C0
C000C0
C000C0
C000C0
C000C0
C000C0
C000C0
E001C0
E001C0
E001C0
E001C0
700380
780780
3F3F00
0FFC00
03F000
ENDCHAR
STARTCHAR 222B
ENCODING 8747
SWIDTH 282 0
DWIDTH 11 0
BBX 10 40 1 -4
BITMAP
0380
07C0
07C0
0DC0
0C00
0C00
0C00
0C00
0C00
0C00
0C00
0C00
0C00
1C00
1C00
1C00
1C00
1C00
1C00
1C00
1C00
1C00
1C00
1C00
1C00
1C00
0C00
0C00
0C00
0C00
0C00
0C00
0C00
0C00
0C00
0C00
EC00
F800
F800
F000
ENDCHAR
STARTCHAR 222E
ENCODING 8750
SWIDTH 1002 0
DWIDTH 39 0
BBX 16 48 11 -10
BITMAP
003C
00DE
009E
019E
010E
0300
0300
0300
0300
0380
0380
0380
0380
0380
0380
0380
03C0
0FF8
3BDC
63C6
43C3
C3C3
C3C1
83C1
83E1
C3E1
C3E3
43E3
63E6
31EC
1FF8
07E0
01E0
01E0
01E0
01E0
01E0
00E0
00C0
00C0
00C0
00C0
00C0
38C0
7880
7980
7B00
3C00
ENDCHAR
STARTCHAR 2234
ENCODING 8756
SWIDTH 1002 0
DWIDTH 39 0
BBX 24 24 7 0
BITMAP
001C00
003E00
003E00
003E00
001C00
000000
000000
000000
000000
000000
000000
000000
000000
000000
000000
000000
000000
000000
000000
70000F
F8001F
F8001F
F8001F
70000E
ENDCHAR
STARTCHAR 2235
ENCODING 8757
SWIDTH 1002 0
DWIDTH 39 0
BBX 24 24 7 0
BITMAP
78000F
F8001F
F8001F
F8001F
70000E
000000
000000
000000
000000
000000
000000
000000
000000
000000
000000
000000
000000
000000
000000
001C00
003E00
003E00
003E00
001C00
ENDCHAR
STARTCHAR 2237
ENCODING 8759
SWIDTH 1002 0
DWIDTH 39 0
BBX 24 24 7 0
BITMAP
78000F
78000F
F8001F
78000F
70000E
000000
000000
000000
000000
000000
000000
000000
000000
000000
000000
000000
000000
000000
000000
78000F
78000F
F8001F
78000F
70000E
ENDCHAR
STARTCHAR 2245
ENCODING 8773
SWIDTH 1002 0
DWIDTH 39 0
BBX 19 13 10 4
BITMAP
0000C0
1FE1C0
3FFF80
70FF00
400000
000000
FFFFE0
FFFFE0
000000
000000
000000
FFFFE0
FFFFE0
ENDCHAR
STARTCHAR 2248
ENCODING 8776
SWIDTH 540 0
DWIDTH 21 0
BBX 19 12 1 3
BITMAP
0F0000
3FC060
3FF0E0
70FFC0
E03F80
400F00
0F0000
3FC060
3FF0E0
70FFC0
E03F80
400F00
ENDCHAR
STARTCHAR 2260
ENCODING 8800
SWIDTH 540 0
DWIDTH 21 0
BBX 19 20 1 -1
BITMAP
000400
000600
000E00
001C00
001800
FFFFE0
FFFFE0
FFFFE0
006000
00E000
01C000
01C000
FFFFE0
FFFFE0
FFFFE0
060000
0E0000
0C0000
1C0000
080000
ENDCHAR
STARTCHAR 2261
ENCODING 8801
SWIDTH 591 0
DWIDTH 23 0
BBX 19 16 2 1
BITMAP
FFFFE0
FFFFE0
FFFFE0
000000
000000
000000
FFFFE0
FFFFE0
FFFFE0
000000
000000
000000
000000
FFFFE0
FFFFE0
FFFFE0
ENDCHAR
STARTCHAR 2262
ENCODING 8802
SWIDTH 1002 0
DWIDTH 39 0
BBX 19 21 10 1
BITMAP
000700
000600
FFFFE0
FFFFE0
FFFFE0
003800
003000
007000
006000
FFFFE0
FFFFE0
FFFFE0
038000
030000
070000
FFFFE0
FFFFE0
FFFFE0
180000
380000
100000
ENDCHAR
STARTCHAR 2264
ENCODING 8804
SWIDTH 540 0
DWIDTH 21 0
BBX 19 25 1 0
BITMAP
000060
0001E0
0007E0
003F80
00FE00
07F000
1FC000
7F0000
F80000
F80000
FE0000
1FC000
07F000
01FC00
003F80
000FE0
0003E0
000060
000000
000000
000000
000000
FFFFE0
FFFFE0
FFFFE0
ENDCHAR
STARTCHAR 2265
ENCODING 8805
SWIDTH 540 0
DWIDTH 21 0
BBX 19 25 1 0
BITMAP
C00000
F00000
FE0000
3F8000
0FE000
01FC00
007F00
001FC0
0003E0
0001E0
000FE0
003F80
01FC00
07F000
3FC000
FE0000
F80000
C00000
000000
000000
000000
000000
FFFFE0
FFFFE0
FFFFE0
ENDCHAR
STARTCHAR 226A
ENCODING 8810
SWIDTH 1002 0
DWIDTH 39 0
BBX 25 23 7 -1
BITMAP
00000380
00000F80
00003F00
0000FC00
0007F000
001FC180
007E0780
01F81F80
0FE0FE00
3F83F800
FC0FC000
F03F0000
FC0FC000
3F83F800
0FE0FE00
01F81F80
007E0780
001FC180
0007F000
0000FC00
00003F80
00000F80
00000380
ENDCHAR
STARTCHAR 226B
ENCODING 8811
SWIDTH 1002 0
DWIDTH 39 0
BBX 25 23 7 -1
BITMAP
C0000000
F0000000
FE000000
3F800000
07E00000
81F80000
F07F0000
FC1FC000
3F03F000
0FE0FC00
03F83F80
007E0F80
03F83F80
0FC0FC00
3F03F000
FC1FC000
F07F0000
81F80000
07E00000
3F800000
FE000000
F0000000
C0000000
ENDCHAR
STARTCHAR 2282
ENCODING 8834
SWIDTH 1002 0
DWIDTH 39 0
BBX 21 19 9 0
BITMAP
07FFF8
1FFFF8
3C0000
780000
700000
600000
E00000
E00000
E00000
E00000
E00000
E00000
E00000
700000
700000
380000
3F8000
1FFFF8
07FFF8
ENDCHAR
STARTCHAR 2283
ENCODING 8835
SWIDTH 1002 0
DWIDTH 39 0
BBX 21 19 9 0
BITMAP
FFFF00
FFFFC0
0001E0
0000F0
000070
000030
000038
000038
000038
000038
000038
000038
000030
000070
000070
0000E0
000FC0
FFFF80
FFFE00
ENDCHAR
STARTCHAR 2284
ENCODING 8836
SWIDTH 1002 0
DWIDTH 39 0
BBX 21 24 9 -2
BITMAP
000020
000060
000060
0FFFF8
1FFFF8
3C0180
780300
700300
600600
E00600
E00C00
E01C00
E01800
E03000
E03000
E06000
706000
70C000
39C000
3F8000
1FFFF8
07FFF8
060000
060000
ENDCHAR
STARTCHAR 2285
ENCODING 8837
SWIDTH 1002 0
DWIDTH 39 0
BBX 21 24 9 -2
BITMAP
600000
700000
300000
FFFF00
FFFFC0
0C01E0
0E00F0
060070
030030
030038
018038
01C038
00C038
00E038
006038
003030
003070
001870
001CE0
000FC0
FFFF80
FFFE00
000300
000300
ENDCHAR
STARTCHAR 2286
ENCODING 8838
SWIDTH 1002 0
DWIDTH 39 0
BBX 21 23 9 0
BITMAP
07FFF8
1FFFF8
3C0000
780000
700000
600000
E00000
E00000
E00000
E00000
E00000
E00000
E00000
700000
700000
380000
3F8000
0FFFF8
07FFF8
000000
000000
FFFFF8
FFFFF8
ENDCHAR
STARTCHAR 2287
ENCODING 8839
SWIDTH 1002 0
DWIDTH 39 0
BBX 21 23 9 0
BITMAP
FFFF00
FFFFC0
0001E0
0000F0
000070
000030
000038
000038
000038
000038
000038
000038
000038
000070
000070
0000E0
000FC0
FFFF80
FFFE00
000000
000000
FFFFF8
FFFFF8
ENDCHAR
STARTCHAR 2295
ENCODING 8853
SWIDTH 1002 0
DWIDTH 39 0
BBX 28 28 5 0
BITMAP
001FC000
00FFF800
01F77E00
07870F00
0E070780
1C0701C0
180700C0
380700E0
30070060
70070070
60070030
60070030
60070030
FFFFFFF0
FFFFFFF0
60070030
60070030
60070030
70070070
30070060
380700E0
180700C0
1C0701C0
0F070380
07870F00
03F77C00
00FFF800
001FC000
ENDCHAR
STARTCHAR 2296
ENCODING 8854
SWIDTH 1002 0
DWIDTH 39 0
BBX 28 28 5 -1
BITMAP
001FC000
00FFF800
03F8FC00
07801F00
0F000780
1C0003C0
180001C0
380000E0
70000060
70000070
60000030
60000030
E0000030
FFFFFFF0
FFFFFFF0
E0000030
60000030
60000030
70000070
30000060
380000E0
180001C0
1C000380
0F000780
07800F00
03F8FC00
00FFF800
001FC000
ENDCHAR
STARTCHAR 2297
ENCODING 8855
SWIDTH 1002 0
DWIDTH 39 0
BBX 28 28 5 0
BITMAP
001FC000
00FFF800
01F0FC00
07801F00
0F000780
1F0007C0
1F800FC0
3BC01CE0
31E03860
70F07070
6078E030
603DC030
601F8030
E00F0030
E00F8030
601FC030
6039E030
6070F030
70E07870
31C03C60
3B801CE0
1F000FC0
1E000780
0F000780
07800F00
03F87C00
00FFF800
001FC000
ENDCHAR
STARTCHAR 2298
ENCODING 8856
SWIDTH 1002 0
DWIDTH 39 0
BBX 28 28 5 0
BITMAP
001FC000
00FFF800
01F8FC00
07801F00
0F000780
1C000780
18000FC0
38001EE0
30003C60
70007870
6000F030
6001E030
6003C030
E0078030
E00F0030
E01E0030
603C0030
60780030
70F00070
31E00060
3BC000E0
1F8001C0
1F000380
0F000780
07800E00
03F0FC00
00FFF000
001FC000
ENDCHAR
STARTCHAR 2299
ENCODING 8857
SWIDTH 1002 0
DWIDTH 39 0
BBX 28 28 5 -1
BITMAP
001FC000
00FFF800
03F8FC00
07800F00
0E000780
1C0001C0
180001C0
380000E0
70000060
60000070
60000030
60060030
E00F0030
E00F8030
E00F8030
E0070030
60000030
60000030
70000070
30000060
380000E0
1C0001C0
1E000380
0F000700
07801E00
03F8FC00
00FFF000
001FC000
ENDCHAR
STARTCHAR 22A2
ENCODING 8866
SWIDTH 1002 0
DWIDTH 39 0
BBX 24 21 7 0
BITMAP
E00000
E00000
E00000
E00000
E00000
E00000
E00000
E00000
E00000
FFFFFF
FFFFFF
FFFFFF
E00000
E00000
E00000
E00000
E00000
E00000
E00000
E00000
E00000
ENDCHAR
STARTCHAR 22A3
ENCODING 8867
SWIDTH 1002 0
DWIDTH 39 0
BBX 24 21 7 0
BITMAP
000003
000003
000003
000003
000003
000003
000003
000003
000003
FFFFFF
FFFFFF
FFFFFF
000003
000003
000003
000003
000003
000003
000003
000003
000003
ENDCHAR
STARTCHAR 22A4
ENCODING 8868
SWIDTH 1002 0
DWIDTH 39 0
BBX 21 25 9 0
BITMAP
FFFFF8
FFFFF8
FFFFF8
007000
007000
007000
007000
007000
007000
007000
007000
007000
007000
007000
007000
007000
007000
007000
007000
007000
007000
007000
007000
007000
007000
ENDCHAR
STARTCHAR 22A5
ENCODING 8869
SWIDTH 1002 0
DWIDTH 39 0
BBX 23 23 8 0
BITMAP
003800
003800
003800
003800
003800
003800
003800
003800
003800
003800
003800
003800
003800
003800
003800
003800
003800
003800
003800
003800
003800
FFFFFE
FFFFFE
ENDCHAR
STARTCHAR 22BB
ENCODING 8891
SWIDTH 1002 0
DWIDTH 39 0
BBX 22 29 8 -6
BITMAP
E0001C
70001C
700018
380038
380038
180070
1C0070
1C00E0
0E00E0
0E00C0
0601C0
0701C0
070380
038380
038700
01C700
01C600
00CE00
00EE00
00FC00
007C00
007800
003800
000000
000000
000000
FFFFFC
FFFFFC
FFFFFC
ENDCHAR
STARTCHAR 2302
ENCODING 8962
SWIDTH 591 0
DWIDTH 23 0
BBX 20 28 2 0
BITMAP
004000
006000
00F000
01B800
039800
070C00
0E0E00
0C0700
180380
380180
7000C0
E000E0
C00070
C00030
C00030
C00030
C00030
C00030
C00030
C00030
C00030
C00030
C00030
C00030
C00030
C00030
FFFFF0
FFFFF0
ENDCHAR
STARTCHAR 2310
ENCODING 8976
SWIDTH 591 0
DWIDTH 23 0
BBX 19 12 2 3
BITMAP
FFFFE0
FFFFE0
FFFFE0
C00000
C00000
C00000
C00000
C00000
C00000
C00000
C00000
C00000
ENDCHAR
STARTCHAR 2320
ENCODING 8992
SWIDTH 591 0
DWIDTH 23 0
BBX 7 44 10 -8
BITMAP
1C
3E
7E
4C
40
40
60
60
60
E0
E0
E0
E0
E0
E0
E0
E0
E0
E0
E0
E0
E0
E0
E0
E0
E0
E0
E0
E0
E0
E0
E0
E0
E0
E0
E0
E0
E0
E0
E0
E0
E0
E0
E0
ENDCHAR
STARTCHAR 2321
ENCODING 8993
SWIDTH 591 0
DWIDTH 23 0
BBX 6 44 7 -8
BITMAP
1C
1C
1C
1C
1C
1C
1C
1C
1C
1C
1C
1C
1C
1C
1C
1C
1C
1C
1C
1C
1C
1C
1C
1C
1C
1C
1C
1C
1C
1C
1C
1C
0C
0C
0C
0C
0C
0C
0C
0C
E8
F8
F8
F0
ENDCHAR
STARTCHAR 2329
ENCODING 9001
SWIDTH 334 0
DWIDTH 13 0
BBX 9 28 2 -5
BITMAP
0180
0100
0300
0600
0600
0E00
0C00
1C00
1800
3800
3800
7000
7000
F000
7000
7000
3800
3800
1800
1C00
0C00
0E00
0600
0600
0300
0300
0100
0180
ENDCHAR
STARTCHAR 232A
ENCODING 9002
SWIDTH 334 0
DWIDTH 13 0
BBX 9 28 2 -5
BITMAP
C000
4000
6000
6000
3000
3000
1800
1C00
1C00
0E00
0E00
0700
0700
0780
0700
0700
0E00
0E00
0C00
1C00
1800
3800
3000
3000
6000
6000
C000
C000
ENDCHAR
STARTCHAR 2500
ENCODING 9472
SWIDTH 1002 0
DWIDTH 39 0
BBX 39 3 0 8
BITMAP
FFFFFFFFFE
FFFFFFFFFE
FFFFFFFFFE
ENDCHAR
STARTCHAR 2502
ENCODING 9474
SWIDTH 1002 0
DWIDTH 39 0
BBX 3 39 18 -10
BITMAP
E0
E0
E0
E0
E0
E0
E0
E0
E0
E0
E0
E0
E0
E0
E0
E0
E0
E0
E0
E0
E0
E0
E0
E0
E0
E0
E0
E0
E0
E0
E0
E0
E0
E0
E0
E0
E0
E0
E0
ENDCHAR
STARTCHAR 250C
ENCODING 9484
SWIDTH 1002 0
DWIDTH 39 0
BBX 21 21 18 -10
BITMAP
FFFFF8
FFFFF8
FFFFF8
E00000
E00000
E00000
E00000
E00000
E00000
E00000
E00000
E00000
E00000
E00000
E00000
E00000
E00000
E00000
E00000
E00000
E00000
ENDCHAR
STARTCHAR 2510
ENCODING 9488
SWIDTH 1002 0
DWIDTH 39 0
BBX 21 21 0 -10
BITMAP
FFFFF8
FFFFF8
FFFFF8
000038
000038
000038
000038
000038
000038
000038
000038
000038
000038
000038
000038
000038
000038
000038
000038
000038
000038
ENDCHAR
STARTCHAR 2514
ENCODING 9492
SWIDTH 1002 0
DWIDTH 39 0
BBX 21 21 18 8
BITMAP
E00000
E00000
E00000
E00000
E00000
E00000
E00000
E00000
E00000
E00000
E00000
E00000
E00000
E00000
E00000
E00000
E00000
E00000
FFFFF8
FFFFF8
FFFFF8
ENDCHAR
STARTCHAR 2518
ENCODING 9496
SWIDTH 1002 0
DWIDTH 39 0
BBX 21 21 0 8
BITMAP
000038
000038
000038
000038
000038
000038
000038
000038
000038
000038
000038
000038
000038
000038
000038
000038
000038
000038
FFFFF8
FFFFF8
FFFFF8
ENDCHAR
STARTCHAR 251C
ENCODING 9500
SWIDTH 1002 0
DWIDTH 39 0
BBX 21 39 18 -10
BITMAP
E00000
E00000
E00000
E00000
E00000
E00000
E00000
E00000
E00000
E00000
E00000
E00000
E00000
E00000
E00000
E00000
E00000
E00000
FFFFF8
FFFFF8
FFFFF8
E00000
E00000
E00000
E00000
E00000
E00000
E00000
E00000
E00000
E00000
E00000
E00000
E00000
E00000
E00000
E00000
E00000
E00000
ENDCHAR
STARTCHAR 2524
ENCODING 9508
SWIDTH 1002 0
DWIDTH 39 0
BBX 21 39 0 -10
BITMAP
000038
000038
000038
000038
000038
000038
000038
000038
000038
000038
000038
000038
000038
000038
000038
000038
000038
000038
FFFFF8
FFFFF8
FFFFF8
000038
000038
000038
000038
000038
000038
000038
000038
000038
000038
000038
000038
000038
000038
000038
000038
000038
000038
ENDCHAR
STARTCHAR 252C
ENCODING 9516
SWIDTH 1002 0
DWIDTH 39 0
BBX 39 21 0 -10
BITMAP
FFFFFFFFFE
FFFFFFFFFE
FFFFFFFFFE
0000380000
0000380000
0000380000
0000380000
0000380000
0000380000
0000380000
0000380000
0000380000
0000380000
0000380000
0000380000
0000380000
0000380000
0000380000
0000380000
0000380000
0000380000
ENDCHAR
STARTCHAR 2534
ENCODING 9524
SWIDTH 1002 0
DWIDTH 39 0
BBX 39 21 0 8
BITMAP
0000380000
0000380000
0000380000
0000380000
0000380000
0000380000
0000380000
0000380000
0000380000
0000380000
0000380000
0000380000
0000380000
0000380000
0000380000
0000380000
0000380000
0000380000
FFFFFFFFFE
FFFFFFFFFE
FFFFFFFFFE
ENDCHAR
STARTCHAR 253C
ENCODING 9532
SWIDTH 1002 0
DWIDTH 39 0
BBX 39 39 0 -10
BITMAP
0000380000
0000380000
0000380000
0000380000
0000380000
0000380000
0000380000
0000380000
0000380000
0000380000
0000380000
0000380000
0000380000
0000380000
0000380000
0000380000
0000380000
0000380000
FFFFFFFFFE
FFFFFFFFFE
FFFFFFFFFE
0000380000
0000380000
0000380000
0000380000
0000380000
0000380000
0000380000
0000380000
0000380000
0000380000
0000380000
0000380000
0000380000
0000380000
0000380000
0000380000
0000380000
0000380000
ENDCHAR
STARTCHAR 2550
ENCODING 9552
SWIDTH 1002 0
DWIDTH 39 0
BBX 39 8 0 6
BITMAP
FFFFFFFFFE
FFFFFFFFFE
FFFFFFFFFE
0000000000
0000000000
FFFFFFFFFE
FFFFFFFFFE
FFFFFFFFFE
ENDCHAR
STARTCHAR 2551
ENCODING 9553
SWIDTH 1002 0
DWIDTH 39 0
BBX 7 39 16 -10
BITMAP
C6
C6
C6
C6
C6
C6
C6
C6
C6
C6
C6
C6
C6
C6
C6
C6
C6
C6
C6
C6
C6
C6
C6
C6
C6
C6
C6
C6
C6
C6
C6
C6
C6
C6
C6
C6
C6
C6
C6
ENDCHAR
STARTCHAR 2552
ENCODING 9554
SWIDTH 1002 0
DWIDTH 39 0
BBX 21 24 18 -10
BITMAP
FFFFF8
FFFFF8
FFFFF8
E00000
E00000
FFFFF8
FFFFF8
FFFFF8
E00000
E00000
E00000
E00000
E00000
E00000
E00000
E00000
E00000
E00000
E00000
E00000
E00000
E00000
E00000
E00000
ENDCHAR
STARTCHAR 2553
ENCODING 9555
SWIDTH 1002 0
DWIDTH 39 0
BBX 23 21 16 -10
BITMAP
FFFFFE
FFFFFE
FFFFFE
C60000
C60000
C60000
C60000
C60000
C60000
C60000
C60000
C60000
C60000
C60000
C60000
C60000
C60000
C60000
C60000
C60000
C60000
ENDCHAR
STARTCHAR 2554
ENCODING 9556
SWIDTH 1002 0
DWIDTH 39 0
BBX 23 24 16 -10
BITMAP
FFFFFE
FFFFFE
FFFFFE
C00000
C00000
C7FFFE
C7FFFE
C7FFFE
C60000
C60000
C60000
C60000
C60000
C60000
C60000
C60000
C60000
C60000
C60000
C60000
C60000
C60000
C60000
C60000
ENDCHAR
STARTCHAR 2555
ENCODING 9557
SWIDTH 1002 0
DWIDTH 39 0
BBX 21 24 0 -10
BITMAP
FFFFF8
FFFFF8
FFFFF8
000038
000038
FFFFF8
FFFFF8
FFFFF8
000038
000038
000038
000038
000038
000038
000038
000038
000038
000038
000038
000038
000038
000038
000038
000038
ENDCHAR
STARTCHAR 2556
ENCODING 9558
SWIDTH 1002 0
DWIDTH 39 0
BBX 23 21 0 -10
BITMAP
FFFFFE
FFFFFE
FFFFFE
0000C6
0000C6
0000C6
0000C6
0000C6
0000C6
0000C6
0000C6
0000C6
0000C6
0000C6
0000C6
0000C6
0000C6
0000C6
0000C6
0000C6
0000C6
ENDCHAR
STARTCHAR 2557
ENCODING 9559
SWIDTH 1002 0
DWIDTH 39 0
BBX 23 24 0 -10
BITMAP
FFFFFE
FFFFFE
FFFFFE
000006
000006
FFFFC6
FFFFC6
FFFFC6
0000C6
0000C6
0000C6
0000C6
0000C6
0000C6
0000C6
0000C6
0000C6
0000C6
0000C6
0000C6
0000C6
0000C6
0000C6
0000C6
ENDCHAR
STARTCHAR 2558
ENCODING 9560
SWIDTH 1002 0
DWIDTH 39 0
BBX 21 23 18 6
BITMAP
E00000
E00000
E00000
E00000
E00000
E00000
E00000
E00000
E00000
E00000
E00000
E00000
E00000
E00000
E00000
FFFFF8
FFFFF8
FFFFF8
E00000
E00000
FFFFF8
FFFFF8
FFFFF8
ENDCHAR
STARTCHAR 2559
ENCODING 9561
SWIDTH 1002 0
DWIDTH 39 0
BBX 23 21 16 8
BITMAP
C60000
C60000
C60000
C60000
C60000
C60000
C60000
C60000
C60000
C60000
C60000
C60000
C60000
C60000
C60000
C60000
C60000
C60000
FFFFFE
FFFFFE
FFFFFE
ENDCHAR
STARTCHAR 255A
ENCODING 9562
SWIDTH 1002 0
DWIDTH 39 0
BBX 23 23 16 6
BITMAP
C60000
C60000
C60000
C60000
C60000
C60000
C60000
C60000
C60000
C60000
C60000
C60000
C60000
C60000
C60000
C7FFFE
C7FFFE
C7FFFE
C00000
C00000
FFFFFE
FFFFFE
FFFFFE
ENDCHAR
STARTCHAR 255B
ENCODING 9563
SWIDTH 1002 0
DWIDTH 39 0
BBX 21 23 0 6
BITMAP
000038
000038
000038
000038
000038
000038
000038
000038
000038
000038
000038
000038
000038
000038
000038
FFFFF8
FFFFF8
FFFFF8
000038
000038
FFFFF8
FFFFF8
FFFFF8
ENDCHAR
STARTCHAR 255C
ENCODING 9564
SWIDTH 1002 0
DWIDTH 39 0
BBX 23 21 0 8
BITMAP
0000C6
0000C6
0000C6
0000C6
0000C6
0000C6
0000C6
0000C6
0000C6
0000C6
0000C6
0000C6
0000C6
0000C6
0000C6
0000C6
0000C6
0000C6
FFFFFE
FFFFFE
FFFFFE
ENDCHAR
STARTCHAR 255D
ENCODING 9565
SWIDTH 1002 0
DWIDTH 39 0
BBX 23 23 0 6
BITMAP
0000C6
0000C6
0000C6
0000C6
0000C6
0000C6
0000C6
0000C6
0000C6
0000C6
0000C6
0000C6
0000C6
0000C6
0000C6
FFFFC6
FFFFC6
FFFFC6
000006
000006
FFFFFE
FFFFFE
FFFFFE
ENDCHAR
STARTCHAR 255E
ENCODING 9566
SWIDTH 1002 0
DWIDTH 39 0
BBX 21 39 18 -10
BITMAP
E00000
E00000
E00000
E00000
E00000
E00000
E00000
E00000
E00000
E00000
E00000
E00000
E00000
E00000
E00000
FFFFF8
FFFFF8
FFFFF8
E00000
E00000
FFFFF8
FFFFF8
FFFFF8
E00000
E00000
E00000
E00000
E00000
E00000
E00000
E00000
E00000
E00000
E00000
E00000
E00000
E00000
E00000
E00000
ENDCHAR
STARTCHAR 255F
ENCODING 9567
SWIDTH 1002 0
DWIDTH 39 0
BBX 23 39 16 -10
BITMAP
C60000
C60000
C60000
C60000
C60000
C60000
C60000
C60000
C60000
C60000
C60000
C60000
C60000
C60000
C60000
C60000
C60000
C60000
C7FFFE
C7FFFE
C7FFFE
C60000
C60000
C60000
C60000
C60000
C60000
C60000
C60000
C60000
C60000
C60000
C60000
C60000
C60000
C60000
C60000
C60000
C60000
ENDCHAR
STARTCHAR 2560
ENCODING 9568
SWIDTH 1002 0
DWIDTH 39 0
BBX 23 39 16 -10
BITMAP
C60000
C60000
C60000
C60000
C60000
C60000
C60000
C60000
C60000
C60000
C60000
C60000
C60000
C60000
C60000
C7FFFE
C7FFFE
C7FFFE
C00000
C00000
C7FFFE
C7FFFE
C7FFFE
C60000
C60000
C60000
C60000
C60000
C60000
C60000
C60000
C60000
C60000
C60000
C60000
C60000
C60000
C60000
C60000
ENDCHAR
STARTCHAR 2561
ENCODING 9569
SWIDTH 1002 0
DWIDTH 39 0
BBX 21 39 0 -10
BITMAP
000038
000038
000038
000038
000038
000038
000038
000038
000038
000038
000038
000038
000038
000038
000038
FFFFF8
FFFFF8
FFFFF8
000038
000038
FFFFF8
FFFFF8
FFFFF8
000038
000038
000038
000038
000038
000038
000038
000038
000038
000038
000038
000038
000038
000038
000038
000038
ENDCHAR
STARTCHAR 2562
ENCODING 9570
SWIDTH 1002 0
DWIDTH 39 0
BBX 23 39 0 -10
BITMAP
0000C6
0000C6
0000C6
0000C6
0000C6
0000C6
0000C6
0000C6
0000C6
0000C6
0000C6
0000C6
0000C6
0000C6
0000C6
0000C6
0000C6
0000C6
FFFFC6
FFFFC6
FFFFC6
0000C6
0000C6
0000C6
0000C6
0000C6
0000C6
0000C6
0000C6
0000C6
0000C6
0000C6
0000C6
0000C6
0000C6
0000C6
0000C6
0000C6
0000C6
ENDCHAR
STARTCHAR 2563
ENCODING 9571
SWIDTH 1002 0
DWIDTH 39 0
BBX 23 39 0 -10
BITMAP
0000C6
0000C6
0000C6
0000C6
0000C6
0000C6
0000C6
0000C6
0000C6
0000C6
0000C6
0000C6
0000C6
0000C6
0000C6
FFFFC6
FFFFC6
FFFFC6
000006
000006
FFFFC6
FFFFC6
FFFFC6
0000C6
0000C6
0000C6
0000C6
0000C6
0000C6
0000C6
0000C6
0000C6
0000C6
0000C6
0000C6
0000C6
0000C6
0000C6
0000C6
ENDCHAR
STARTCHAR 2564
ENCODING 9572
SWIDTH 1002 0
DWIDTH 39 0
BBX 39 24 0 -10
BITMAP
FFFFFFFFFE
FFFFFFFFFE
FFFFFFFFFE
0000000000
0000000000
FFFFFFFFFE
FFFFFFFFFE
FFFFFFFFFE
0000380000
0000380000
0000380000
0000380000
0000380000
0000380000
0000380000
0000380000
0000380000
0000380000
0000380000
0000380000
0000380000
0000380000
0000380000
0000380000
ENDCHAR
STARTCHAR 2565
ENCODING 9573
SWIDTH 1002 0
DWIDTH 39 0
BBX 39 21 0 -10
BITMAP
FFFFFFFFFE
FFFFFFFFFE
FFFFFFFFFE
0000C60000
0000C60000
0000C60000
0000C60000
0000C60000
0000C60000
0000C60000
0000C60000
0000C60000
0000C60000
0000C60000
0000C60000
0000C60000
0000C60000
0000C60000
0000C60000
0000C60000
0000C60000
ENDCHAR
STARTCHAR 2566
ENCODING 9574
SWIDTH 1002 0
DWIDTH 39 0
BBX 39 24 0 -10
BITMAP
FFFFFFFFFE
FFFFFFFFFE
FFFFFFFFFE
0000000000
0000000000
FFFFC7FFFE
FFFFC7FFFE
FFFFC7FFFE
0000C60000
0000C60000
0000C60000
0000C60000
0000C60000
0000C60000
0000C60000
0000C60000
0000C60000
0000C60000
0000C60000
0000C60000
0000C60000
0000C60000
0000C60000
0000C60000
ENDCHAR
STARTCHAR 2567
ENCODING 9575
SWIDTH 1002 0
DWIDTH 39 0
BBX 39 23 0 6
BITMAP
0000380000
0000380000
0000380000
0000380000
0000380000
0000380000
0000380000
0000380000
0000380000
0000380000
0000380000
0000380000
0000380000
0000380000
0000380000
FFFFFFFFFE
FFFFFFFFFE
FFFFFFFFFE
0000000000
0000000000
FFFFFFFFFE
FFFFFFFFFE
FFFFFFFFFE
ENDCHAR
STARTCHAR 2568
ENCODING 9576
SWIDTH 1002 0
DWIDTH 39 0
BBX 39 21 0 8
BITMAP
0000C60000
0000C60000
0000C60000
0000C60000
0000C60000
0000C60000
0000C60000
0000C60000
0000C60000
0000C60000
0000C60000
0000C60000
0000C60000
0000C60000
0000C60000
0000C60000
0000C60000
0000C60000
FFFFFFFFFE
FFFFFFFFFE
FFFFFFFFFE
ENDCHAR
STARTCHAR 2569
ENCODING 9577
SWIDTH 1002 0
DWIDTH 39 0
BBX 39 23 0 6
BITMAP
0000C60000
0000C60000
0000C60000
0000C60000
0000C60000
0000C60000
0000C60000
0000C60000
0000C60000
0000C60000
0000C60000
0000C60000
0000C60000
0000C60000
0000C60000
FFFFC7FFFE
FFFFC7FFFE
FFFFC7FFFE
0000000000
0000000000
FFFFFFFFFE
FFFFFFFFFE
FFFFFFFFFE
ENDCHAR
STARTCHAR 256A
ENCODING 9578
SWIDTH 1002 0
DWIDTH 39 0
BBX 39 39 0 -10
BITMAP
0000380000
0000380000
0000380000
0000380000
0000380000
0000380000
0000380000
0000380000
0000380000
0000380000
0000380000
0000380000
0000380000
0000380000
0000380000
FFFFFFFFFE
FFFFFFFFFE
FFFFFFFFFE
0000380000
0000380000
FFFFFFFFFE
FFFFFFFFFE
FFFFFFFFFE
0000380000
0000380000
0000380000
0000380000
0000380000
0000380000
0000380000
0000380000
0000380000
0000380000
0000380000
0000380000
0000380000
0000380000
0000380000
0000380000
ENDCHAR
STARTCHAR 256B
ENCODING 9579
SWIDTH 1002 0
DWIDTH 39 0
BBX 39 39 0 -10
BITMAP
0000C60000
0000C60000
0000C60000
0000C60000
0000C60000
0000C60000
0000C60000
0000C60000
0000C60000
0000C60000
0000C60000
0000C60000
0000C60000
0000C60000
0000C60000
0000C60000
0000C60000
0000C60000
FFFFFFFFFE
FFFFFFFFFE
FFFFFFFFFE
0000C60000
0000C60000
0000C60000
0000C60000
0000C60000
0000C60000
0000C60000
0000C60000
0000C60000
0000C60000
0000C60000
0000C60000
0000C60000
0000C60000
0000C60000
0000C60000
0000C60000
0000C60000
ENDCHAR
ENDFONT
